<?xml version="1.0" encoding="UTF-8"?>
<svg version="1.1" xmlns="http://www.w3.org/2000/svg" width="500" height="500">
<path d="M0 0 C1.01549927 0.4477478 1.01549927 0.4477478 2.05151367 0.90454102 C12.21099929 5.50276591 21.02978782 12.04641798 29.9375 18.6875 C30.70191406 19.21859375 31.46632813 19.7496875 32.25390625 20.296875 C32.80949219 20.75578125 33.36507812 21.2146875 33.9375 21.6875 C33.9375 22.3475 33.9375 23.0075 33.9375 23.6875 C34.535625 23.955625 35.13375 24.22375 35.75 24.5 C37.93597854 25.68667406 39.35082594 26.78349113 40.9375 28.6875 C40.9375 29.3475 40.9375 30.0075 40.9375 30.6875 C42.2575 31.3475 43.5775 32.0075 44.9375 32.6875 C44.9375 33.3475 44.9375 34.0075 44.9375 34.6875 C45.9275 35.0175 46.9175 35.3475 47.9375 35.6875 C49.98046875 38.12109375 49.98046875 38.12109375 52.125 41.125 C53.19814453 42.60806641 53.19814453 42.60806641 54.29296875 44.12109375 C55.9375 46.6875 55.9375 46.6875 55.9375 48.6875 C56.5975 48.6875 57.2575 48.6875 57.9375 48.6875 C62.66676207 56.39770651 66.7557509 64.15583204 70.25 72.5 C70.57484375 73.27512939 70.8996875 74.05025879 71.234375 74.84887695 C85.20497497 108.9167067 85.10234053 147.50239066 70.890625 181.47363281 C64.8289795 195.55329505 57.10910101 209.1228319 46.9375 220.6875 C46.2775 220.6875 45.6175 220.6875 44.9375 220.6875 C44.669375 221.285625 44.40125 221.88375 44.125 222.5 C42.93832594 224.68597854 41.84150887 226.10082594 39.9375 227.6875 C39.2775 227.6875 38.6175 227.6875 37.9375 227.6875 C37.2775 229.0075 36.6175 230.3275 35.9375 231.6875 C35.2775 231.6875 34.6175 231.6875 33.9375 231.6875 C33.6075 232.6775 33.2775 233.6675 32.9375 234.6875 C31.42211914 236.03442383 31.42211914 236.03442383 29.47265625 237.39453125 C28.76036865 237.89573486 28.04808105 238.39693848 27.31420898 238.91333008 C26.55052002 239.43693115 25.78683105 239.96053223 25 240.5 C24.22019775 241.03971436 23.44039551 241.57942871 22.63696289 242.13549805 C7.194086 252.75458351 -8.8000375 260.31012057 -27.0625 264.6875 C-28.15143555 264.94861572 -29.24037109 265.20973145 -30.36230469 265.47875977 C-39.65898079 267.53323 -48.6677944 268.21270527 -58.1875 268.125 C-58.90383606 268.12162628 -59.62017212 268.11825256 -60.35821533 268.11477661 C-80.81697808 267.97593165 -102.40780927 264.82108875 -120.0625 253.6875 C-121.114375 253.254375 -122.16625 252.82125 -123.25 252.375 C-131.80801223 248.77842159 -139.17462317 243.25343426 -146.49609375 237.640625 C-148.30707076 236.2624081 -150.16894665 234.9498689 -152.0625 233.6875 C-152.0625 233.0275 -152.0625 232.3675 -152.0625 231.6875 C-153.3825 231.0275 -154.7025 230.3675 -156.0625 229.6875 C-156.0625 229.0275 -156.0625 228.3675 -156.0625 227.6875 C-157.0525 227.3575 -158.0425 227.0275 -159.0625 226.6875 C-159.0625 226.0275 -159.0625 225.3675 -159.0625 224.6875 C-159.64773437 224.44386719 -160.23296875 224.20023438 -160.8359375 223.94921875 C-174.02903321 216.47313118 -183.43567703 194.14992076 -189.0625 180.6875 C-189.48789063 179.67913086 -189.48789063 179.67913086 -189.921875 178.65039062 C-203.64628858 145.34279257 -202.39139936 107.17033279 -188.953125 74 C-182.9113877 59.86461463 -174.7717549 47.55873473 -165.0625 35.6875 C-164.36382812 34.76453125 -163.66515625 33.8415625 -162.9453125 32.890625 C-162.32398438 32.16359375 -161.70265625 31.4365625 -161.0625 30.6875 C-160.4025 30.6875 -159.7425 30.6875 -159.0625 30.6875 C-158.7325 29.6975 -158.4025 28.7075 -158.0625 27.6875 C-157.4025 27.6875 -156.7425 27.6875 -156.0625 27.6875 C-155.82789063 27.10742188 -155.59328125 26.52734375 -155.3515625 25.9296875 C-153.76426375 23.16874968 -151.95623897 21.75419042 -149.4375 19.8125 C-148.53644531 19.11640625 -147.63539063 18.4203125 -146.70703125 17.703125 C-145.39798828 16.70539063 -145.39798828 16.70539063 -144.0625 15.6875 C-143.38574219 15.14609375 -142.70898438 14.6046875 -142.01171875 14.046875 C-102.30863246 -17.18950759 -45.07776981 -19.88673423 0 0 Z M-140.375 53.1875 C-161.25794052 77.74734653 -171.46861662 106.56999298 -168.87646484 139.01611328 C-166.56307689 161.51392892 -157.5825932 181.41845712 -143.0625 198.6875 C-142.32773438 199.60402344 -142.32773438 199.60402344 -141.578125 200.5390625 C-124.45078708 221.44178136 -97.68726871 234.72970427 -71.0625 237.6875 C-48.118493 239.41116714 -23.85816779 236.28806345 -4.0625 223.6875 C-3.4025 223.3575 -2.7425 223.0275 -2.0625 222.6875 C-2.0625 222.0275 -2.0625 221.3675 -2.0625 220.6875 C-1.505625 220.59082031 -0.94875 220.49414062 -0.375 220.39453125 C2.49835723 219.51602169 4.49197833 218.11594302 6.9375 216.375 C7.783125 215.78074219 8.62875 215.18648437 9.5 214.57421875 C11.86201022 212.745932 13.95080896 210.9179286 15.9375 208.6875 C15.9375 208.0275 15.9375 207.3675 15.9375 206.6875 C17.2575 206.0275 18.5775 205.3675 19.9375 204.6875 C19.9375 204.0275 19.9375 203.3675 19.9375 202.6875 C20.9275 202.3575 21.9175 202.0275 22.9375 201.6875 C24.95717328 199.50701982 24.95717328 199.50701982 26.9375 196.875 C27.618125 196.00230469 28.29875 195.12960937 29 194.23046875 C29.639375 193.39128906 30.27875 192.55210937 30.9375 191.6875 C31.515 190.98238281 32.0925 190.27726563 32.6875 189.55078125 C34.21605422 187.64623485 34.21605422 187.64623485 33.9375 184.6875 C34.5975 184.6875 35.2575 184.6875 35.9375 184.6875 C50.35499353 156.61132839 56.05530042 126.5210758 46.9375 95.6875 C42.15030429 81.13613912 34.84537681 68.36536712 24.9375 56.6875 C24.16599609 55.73230469 24.16599609 55.73230469 23.37890625 54.7578125 C7.16379941 34.98329196 -19.32113267 20.77607703 -44.74511719 17.88671875 C-80.67941052 14.79755068 -115.56851359 26.02123182 -140.375 53.1875 Z " fill="#0A0A0A" transform="translate(309.0625,122.3125)"/>
<path d="M0 0 C0.0093457 0.63800537 0.01869141 1.27601074 0.02832031 1.93334961 C0.35636847 19.84252784 1.60372118 35.86545794 10 52 C10.47050781 52.98097656 10.94101563 53.96195313 11.42578125 54.97265625 C22.97106575 77.17512644 43.71434232 92.21200644 67.03515625 100.015625 C77.51488818 103.02246792 87.66869225 103.11120439 98.5 103 C101.03120867 102.97463719 103.56246518 102.95355466 106.09375 102.9375 C107.20427734 102.92589844 108.31480469 102.91429687 109.45898438 102.90234375 C112 103 112 103 113 104 C114.63965393 122.44610671 103.05929704 141.92719566 91.8125 155.5625 C75.89589978 174.12642535 53.40224295 186.43107617 29 189 C6.46092003 190.66208536 -17.64576092 187.11601627 -36 173 C-36.78503906 172.41605469 -37.57007813 171.83210937 -38.37890625 171.23046875 C-58.03179186 156.12942519 -70.87881588 137.23128698 -76 113 C-76.22429687 111.99582031 -76.44859375 110.99164063 -76.6796875 109.95703125 C-81.61294717 84.91904895 -74.95097733 59.03242933 -61 38 C-56.24310166 31.5634199 -50.85713507 25.4487294 -45 20 C-44.34 20 -43.68 20 -43 20 C-43 19.34 -43 18.68 -43 18 C-31.92831382 8.15258682 -14.88856203 -0.28874787 0 0 Z " fill="#040404" transform="translate(232,157)"/>
<path d="M0 0 C3.18985667 2.26804152 5.77226733 5.0220062 8.4375 7.875 C9.16904297 8.62136719 9.90058594 9.36773437 10.65429688 10.13671875 C16 15.67708333 16 15.67708333 16 18 C16.58950439 18.2671582 17.17900879 18.53431641 17.78637695 18.80957031 C21.49590847 20.8044612 24.21478791 23.80467216 27.1875 26.75 C27.82880859 27.3584375 28.47011719 27.966875 29.13085938 28.59375 C32.78486503 32.20531208 34.91389514 34.60670455 35 40 C34.5 42.3125 34.5 42.3125 33 44 C29.98273773 45.32005224 29.09932438 45.69001656 26 45 C22.23132561 42.44849678 19.18013304 39.23827893 16 36 C14.89959058 34.92976149 13.79663279 33.86213819 12.69140625 32.796875 C11.58475113 31.7199678 10.47926495 30.64185795 9.375 29.5625 C8.84173096 29.04276611 8.30846191 28.52303223 7.7590332 27.98754883 C6.46652522 26.69674011 5.22791837 25.35239806 4 24 C4 23.34 4 22.68 4 22 C3.01 21.67 2.02 21.34 1 21 C-0.33895632 19.33784732 -1.67130142 17.67036393 -3 16 C-4.051875 15.21625 -5.10375 14.4325 -6.1875 13.625 C-9 11 -9 11 -9.9375 7.375 C-10 4 -10 4 -9 1 C-5.69197788 -0.65401106 -3.68174173 -0.52333066 0 0 Z " fill="#1F1F1F" transform="translate(109,100)"/>
<path d="M0 0 C0.96465179 -0.01606293 1.92930359 -0.03212585 2.92318726 -0.04867554 C7.32459745 -0.09318672 11.72585887 -0.13417184 16.12744141 -0.15722656 C18.44948334 -0.17380329 20.7714739 -0.20111555 23.09326172 -0.23925781 C26.44216361 -0.29397843 29.78987164 -0.31589184 33.13916016 -0.33056641 C34.17575775 -0.35323578 35.21235535 -0.37590515 36.28036499 -0.39926147 C43.46234155 -0.3781803 43.46234155 -0.3781803 47.42675781 2.53027344 C49.24072266 5.19287109 49.24072266 5.19287109 49.36572266 8.31787109 C48.24072266 11.19287109 48.24072266 11.19287109 46.34838867 12.84985352 C41.72524509 14.84780409 37.37729124 14.60153001 32.39306641 14.55615234 C31.34421768 14.55665085 30.29536896 14.55714935 29.21473694 14.55766296 C27.00161846 14.55532633 24.78849714 14.54562211 22.57543945 14.52905273 C19.1869331 14.50543181 15.79921247 14.50849873 12.41064453 14.51513672 C10.25894713 14.50956064 8.10725304 14.5024512 5.95556641 14.49365234 C4.94195541 14.49456375 3.92834442 14.49547516 2.88401794 14.49641418 C1.93946243 14.48688217 0.99490692 14.47735016 0.02172852 14.4675293 C-0.80702286 14.46292191 -1.63577423 14.45831451 -2.48963928 14.4535675 C-5.0073635 14.16437529 -6.61942179 13.53698956 -8.75927734 12.19287109 C-10.14477931 9.42186716 -9.94702404 7.2594005 -9.75927734 4.19287109 C-6.99136814 0.04100729 -4.68257347 0.07095229 0 0 Z " fill="#171717" transform="translate(47.75927734375,242.80712890625)"/>
<path d="M0 0 C7.54901961 -1.07843137 7.54901961 -1.07843137 11.6015625 1.93359375 C13.89177084 4.20562583 16.0419319 6.43553256 18 9 C18 9.66 18 10.32 18 11 C18.598125 11.268125 19.19625 11.53625 19.8125 11.8125 C21.99847854 12.99917406 23.41332594 14.09599113 25 16 C25 16.66 25 17.32 25 18 C25.88316895 18.4029126 25.88316895 18.4029126 26.78417969 18.81396484 C30.48830799 20.7966285 33.25173949 23.71814987 36.25 26.625 C36.8996875 27.21667969 37.549375 27.80835938 38.21875 28.41796875 C41.43522422 31.54659808 43.43019345 33.72513786 43.609375 38.3359375 C43.40828125 39.54507813 43.2071875 40.75421875 43 42 C39.53001271 44.31332486 38.07490752 44.33957563 34 44 C33.01 43.34 32.02 42.68 31 42 C31 41.34 31 40.68 31 40 C30.443125 39.773125 29.88625 39.54625 29.3125 39.3125 C26.34746553 37.6296426 24.34646311 35.46378626 22 33 C21.236875 32.278125 20.47375 31.55625 19.6875 30.8125 C18 29 18 29 18 27 C17.443125 26.79375 16.88625 26.5875 16.3125 26.375 C13.14159851 24.48959912 11.31270521 21.84640641 9 19 C8.01 18.34 7.02 17.68 6 17 C6 16.34 6 15.68 6 15 C5.34 15 4.68 15 4 15 C-1.88101059 8.68867156 -1.88101059 8.68867156 -2 5 C-1.0625 2.25 -1.0625 2.25 0 0 Z " fill="#1E1E1E" transform="translate(357,357)"/>
<path d="M0 0 C1.57689857 -0.01429802 1.57689857 -0.01429802 3.18565369 -0.02888489 C4.32523026 -0.02797348 5.46480682 -0.02706207 6.63891602 -0.02612305 C7.80536148 -0.03040817 8.97180695 -0.0346933 10.17359924 -0.03910828 C12.64420929 -0.04485981 15.11483627 -0.04534581 17.58544922 -0.04101562 C21.37374669 -0.0378577 25.16126219 -0.06129866 28.94946289 -0.08666992 C31.34594628 -0.08894295 33.74243177 -0.08964639 36.13891602 -0.08862305 C37.84524452 -0.10243767 37.84524452 -0.10243767 39.58604431 -0.11653137 C41.16767113 -0.10718819 41.16767113 -0.10718819 42.78125 -0.09765625 C43.71009506 -0.09828568 44.63894012 -0.0989151 45.59593201 -0.0995636 C48.41005209 0.34678269 49.29444519 0.99163674 50.95532227 3.2746582 C51.45532227 6.2121582 51.45532227 6.2121582 50.95532227 9.2746582 C48.77800726 11.8316669 46.98769838 13.11168433 43.63571167 13.64083862 C40.71253369 13.78852225 37.81568936 13.80256672 34.88891602 13.77075195 C33.81787125 13.77220718 32.74682648 13.77366241 31.64332581 13.77516174 C29.38312047 13.77350432 27.12290367 13.76196065 24.86279297 13.74121094 C21.40161288 13.7122318 17.94196237 13.72061095 14.48071289 13.73364258 C12.28343982 13.72740576 10.08617158 13.71901526 7.88891602 13.70825195 C6.33568886 13.71265541 6.33568886 13.71265541 4.75108337 13.71714783 C3.78650711 13.70446365 2.82193085 13.69177948 1.828125 13.67871094 C0.98160873 13.67330795 0.13509247 13.66790497 -0.73707581 13.66233826 C-3.56247155 13.18766818 -4.95874737 12.20789243 -7.04467773 10.2746582 C-7.70727427 7.43896962 -7.32635466 5.23226594 -7.04467773 2.2746582 C-4.49051851 -0.27950102 -3.5447465 0.01759824 0 0 Z " fill="#161616" transform="translate(413.044677734375,243.725341796875)"/>
<path d="M0 0 C2.9375 1.0625 2.9375 1.0625 4.59179688 2.953125 C6.58543829 7.559623 6.40525727 11.90458272 6.40625 16.875 C6.41386353 17.92147705 6.42147705 18.9679541 6.42932129 20.04614258 C6.44010956 22.25502134 6.44298058 24.46395105 6.43847656 26.67285156 C6.43750331 30.05099414 6.47916086 33.42687215 6.5234375 36.8046875 C6.52864398 38.95312027 6.5313327 41.10156092 6.53125 43.25 C6.54764526 44.25844971 6.56404053 45.26689941 6.58093262 46.3059082 C6.53424713 51.04438397 6.47292464 53.33428671 3.59960938 57.2421875 C0.9375 59.0625 0.9375 59.0625 -2.25 59 C-5.0625 58.0625 -5.0625 58.0625 -7.0625 56.0625 C-7.32992554 53.87478638 -7.32992554 53.87478638 -7.35302734 51.12548828 C-7.36578705 50.09747101 -7.37854675 49.06945374 -7.39169312 48.01028442 C-7.39391876 46.89571869 -7.39614441 45.78115295 -7.3984375 44.6328125 C-7.4050943 43.49093475 -7.4117511 42.34905701 -7.41860962 41.1725769 C-7.42875012 38.75325129 -7.43342621 36.33389763 -7.43310547 33.91455078 C-7.43747407 30.20949217 -7.47376834 26.50562855 -7.51171875 22.80078125 C-7.51758743 20.45312909 -7.52155648 18.10547125 -7.5234375 15.7578125 C-7.53780853 14.64729523 -7.55217957 13.53677795 -7.56698608 12.39260864 C-7.56083282 11.35828705 -7.55467957 10.32396545 -7.54833984 9.25830078 C-7.55118988 8.34944122 -7.55403992 7.44058167 -7.55697632 6.50418091 C-6.67004754 2.12460398 -4.4165596 0.09013387 0 0 Z " fill="#181818" transform="translate(251.0625,399.9375)"/>
<path d="M0 0 C2.03667615 1.54506466 2.86073078 2.72146156 4 5 C4.10989264 6.51515122 4.1590546 8.03492989 4.17700195 9.55395508 C4.18983719 10.49866165 4.20267242 11.44336823 4.21589661 12.41670227 C4.22697701 13.95260262 4.22697701 13.95260262 4.23828125 15.51953125 C4.246353 16.57025314 4.25442474 17.62097504 4.26274109 18.70353699 C4.27658815 20.93035224 4.28730751 23.15718877 4.29516602 25.3840332 C4.31237781 28.78833276 4.35625913 32.1916611 4.40039062 35.59570312 C4.41051745 37.75780535 4.41903358 39.91991584 4.42578125 42.08203125 C4.44328934 43.09989212 4.46079742 44.11775299 4.47883606 45.16645813 C4.46524978 49.59757403 4.42902432 52.26334749 2.16479492 56.15112305 C0 58 0 58 -3.0625 58.5 C-6.32796194 57.94417669 -7.05813506 57.58602961 -9 55 C-9.38095093 52.68530273 -9.38095093 52.68530273 -9.38818359 49.93359375 C-9.39764008 48.90242432 -9.40709656 47.87125488 -9.4168396 46.80883789 C-9.41076691 45.69629639 -9.40469421 44.58375488 -9.3984375 43.4375 C-9.40130768 42.29466553 -9.40417786 41.15183105 -9.40713501 39.97436523 C-9.40917757 37.55679835 -9.40363438 35.13921501 -9.39111328 32.72167969 C-9.37506321 29.01459915 -9.39095641 25.308609 -9.41015625 21.6015625 C-9.40817385 19.25520592 -9.40433025 16.90885002 -9.3984375 14.5625 C-9.40451019 13.4499585 -9.41058289 12.33741699 -9.4168396 11.19116211 C-9.40738312 10.15999268 -9.39792664 9.12882324 -9.38818359 8.06640625 C-9.38579681 7.15834229 -9.38341003 6.25027832 -9.38095093 5.31469727 C-8.48713743 -0.11620606 -4.94669595 -0.61833699 0 0 Z " fill="#141414" transform="translate(253,38)"/>
<path d="M0 0 C1.9375 1.625 1.9375 1.625 3 4 C3.05040018 9.52416569 0.50936928 12.09830591 -3.14323425 15.83796692 C-3.86295914 16.54757065 -4.58268402 17.25717438 -5.32421875 17.98828125 C-6.06323929 18.73208542 -6.80225983 19.47588959 -7.56367493 20.24223328 C-9.12704515 21.80900081 -10.6967269 23.36949239 -12.2722168 24.92407227 C-14.67906707 27.30416083 -17.05810288 29.70971859 -19.43554688 32.11914062 C-20.95933694 33.63962657 -22.48467734 35.15856071 -24.01171875 36.67578125 C-24.72132248 37.39550613 -25.43092621 38.11523102 -26.16203308 38.85676575 C-29.20432917 41.82823867 -31.24119168 43.76160278 -35.34692383 45.05151367 C-38 45 -38 45 -40.4375 43.5 C-42 41 -42 41 -42.05053711 37.83544922 C-40.59254628 32.51241043 -37.66588076 29.8915312 -33.75390625 26.1328125 C-33.02759506 25.41261932 -32.30128387 24.69242615 -31.55296326 23.95040894 C-29.23652042 21.6608449 -26.89978364 19.39326415 -24.5625 17.125 C-22.99282481 15.57685382 -21.42444976 14.02738822 -19.85742188 12.4765625 C-16.99262274 9.65386874 -14.12634176 6.83290721 -11.24047852 4.03173828 C-10.66169449 3.46883087 -10.08291046 2.90592346 -9.48658752 2.32595825 C-6.46687982 -0.36746294 -3.95329365 -0.40339731 0 0 Z " fill="#191919" transform="translate(141,359)"/>
<path d="M0 0 C1.51944546 3.03889092 1.52558446 4.59595811 1 8 C-1.12644091 11.06886792 -3.7300914 13.61825026 -6.375 16.2421875 C-7.13288818 17.01055939 -7.89077637 17.77893127 -8.67163086 18.57058716 C-10.27823112 20.19002621 -11.89263278 21.8017575 -13.51416016 23.40625 C-15.98795118 25.86303402 -18.42217493 28.35474006 -20.85546875 30.8515625 C-22.4222151 32.42153351 -23.99115634 33.98931783 -25.5625 35.5546875 C-26.28679199 36.30144745 -27.01108398 37.0482074 -27.75732422 37.81759644 C-33.54299506 43.44822262 -33.54299506 43.44822262 -38.40234375 43.59033203 C-42 43 -42 43 -44 41 C-44.65982343 37.48406012 -44.74855033 35.10003204 -42.68609619 32.06915283 C-40.74839907 29.92016019 -38.72519288 27.91283226 -36.6328125 25.9140625 C-35.50792923 24.80047867 -35.50792923 24.80047867 -34.36032104 23.66439819 C-31.96447621 21.30105458 -29.54514218 18.96342933 -27.125 16.625 C-25.50236596 15.02890815 -23.88125311 13.43126823 -22.26171875 11.83203125 C-19.29938822 8.92000553 -16.3344292 6.0110091 -13.34814453 3.12353516 C-12.74857941 2.54286285 -12.14901428 1.96219055 -11.53128052 1.36392212 C-7.78713852 -1.97101099 -4.68422185 -0.81788001 0 0 Z " fill="#141414" transform="translate(403,100)"/>
<path d="M0 0 C0.33 0.66 0.66 1.32 1 2 C-3.3316691 7.72563708 -7.6715789 12.87913893 -13.19140625 17.484375 C-16.18861948 19.99607853 -18.86856553 22.81495641 -21.56640625 25.640625 C-23.00918133 27.12859545 -24.50153207 28.56813064 -26 30 C-26.66 30 -27.32 30 -28 30 C-26.36221955 25.80374091 -23.26676818 23.01323215 -20.1171875 19.921875 C-19.54292023 19.35043762 -18.96865295 18.77900024 -18.37698364 18.19024658 C-16.5476419 16.37207055 -14.71145807 14.56098508 -12.875 12.75 C-11.63105226 11.51608671 -10.3875573 10.28171678 -9.14453125 9.046875 C-6.10157633 6.02593257 -3.05246746 3.01132908 0 0 Z " fill="#343434" transform="translate(128,365)"/>
<path d="M0 0 C0.99 0.33 1.98 0.66 3 1 C2.360625 1.433125 1.72125 1.86625 1.0625 2.3125 C-1.26746003 3.91239177 -1.26746003 3.91239177 -2 7 C-0.35 6.67 1.3 6.34 3 6 C3 5.01 3 4.02 3 3 C6.875 4.75 6.875 4.75 8 7 C6.75 9.625 6.75 9.625 5 12 C4.01 12 3.02 12 2 12 C2 11.34 2 10.68 2 10 C-0.16666667 10.83333333 -0.16666667 10.83333333 -1 13 C-4.465 11.02 -4.465 11.02 -8 9 C-8.33 10.32 -8.66 11.64 -9 13 C-9.66 12.34 -10.32 11.68 -11 11 C-9.25 8.9375 -9.25 8.9375 -7 7 C-4.75 7.25 -4.75 7.25 -3 8 C-3.37125 7.13375 -3.37125 7.13375 -3.75 6.25 C-3.8325 5.5075 -3.915 4.765 -4 4 C-2.0625 1.75 -2.0625 1.75 0 0 Z " fill="#0D0D0D" transform="translate(216,172)"/>
<path d="M0 0 C0.66 0.33 1.32 0.66 2 1 C2 1.66 2 2.32 2 3 C1.01 3.33 0.02 3.66 -1 4 C-1 3.01 -1 2.02 -1 1 C-2.32 1 -3.64 1 -5 1 C-5.33 1.99 -5.66 2.98 -6 4 C-6.66 4 -7.32 4 -8 4 C-8 20.83 -8 37.66 -8 55 C-8.33 55 -8.66 55 -9 55 C-9.0759439 47.64939985 -9.12855502 40.29890053 -9.16479492 32.94799805 C-9.17989944 30.44633198 -9.20038429 27.94469247 -9.22631836 25.44311523 C-9.26262775 21.85133316 -9.27970975 18.25990059 -9.29296875 14.66796875 C-9.31619453 12.98503975 -9.31619453 12.98503975 -9.33988953 11.26811218 C-9.34022942 9.70683342 -9.34022942 9.70683342 -9.34057617 8.11401367 C-9.34723801 7.19690109 -9.35389984 6.27978851 -9.36076355 5.33488464 C-9 3 -9 3 -7.67012024 1.19599915 C-5.13966624 -0.61609842 -3.02255668 -0.25723887 0 0 Z " fill="#313131" transform="translate(253,38)"/>
<path d="M0 0 C1.47118538 0.0001133 1.47118538 0.0001133 2.97209167 0.00022888 C4.028423 0.00539017 5.08475433 0.01055145 6.1730957 0.01586914 C7.79813774 0.01799156 7.79813774 0.01799156 9.45600891 0.02015686 C12.9203262 0.0257598 16.38457915 0.03831281 19.84887695 0.05102539 C22.19588123 0.05604001 24.54288652 0.06060298 26.88989258 0.06469727 C32.64707603 0.07573018 38.4042219 0.09247119 44.16137695 0.11352539 C44.65637695 1.10352539 44.65637695 1.10352539 45.16137695 2.11352539 C44.22843307 2.12565567 44.22843307 2.12565567 43.27664185 2.13803101 C36.82052679 2.22389046 30.36472541 2.32338515 23.90893555 2.4309082 C21.49753067 2.46926186 19.08606733 2.50410329 16.67456055 2.53540039 C13.21422382 2.58091242 9.75429187 2.63892943 6.29418945 2.69946289 C4.66913986 2.7167897 4.66913986 2.7167897 3.01126099 2.73446655 C2.01037445 2.75433624 1.00948792 2.77420593 -0.02172852 2.79467773 C-0.90553192 2.8080014 -1.78933533 2.82132507 -2.69992065 2.83505249 C-5.05190554 2.92021543 -5.05190554 2.92021543 -6.83862305 5.11352539 C-7.16862305 5.11352539 -7.49862305 5.11352539 -7.83862305 5.11352539 C-8.16862305 6.76352539 -8.49862305 8.41352539 -8.83862305 10.11352539 C-9.16862305 10.11352539 -9.49862305 10.11352539 -9.83862305 10.11352539 C-10.08862305 4.48852539 -10.08862305 4.48852539 -7.83862305 1.11352539 C-4.90944012 0.13713108 -3.04836566 -0.00783642 0 0 Z " fill="#343434" transform="translate(47.838623046875,242.886474609375)"/>
<path d="M0 0 C1.40564713 0.00666183 1.40564713 0.00666183 2.83969116 0.01345825 C3.90063995 0.01360931 4.96158875 0.01376038 6.0546875 0.01391602 C7.20367523 0.02423859 8.35266296 0.03456116 9.53646851 0.04519653 C10.71002899 0.04802643 11.88358948 0.05085632 13.0927124 0.05377197 C16.85271262 0.06499548 20.61247739 0.09010411 24.37240601 0.11550903 C26.91667341 0.12553602 29.46094453 0.13466236 32.00521851 0.14285278 C38.25269511 0.1649419 44.50003374 0.19844079 50.74740601 0.24050903 C50.74740601 0.57050903 50.74740601 0.90050903 50.74740601 1.24050903 C50.12988464 1.24415466 49.51236328 1.24780029 48.87612915 1.2515564 C42.45197848 1.29334934 36.0285444 1.36267233 29.60482788 1.44802856 C27.20711431 1.47626369 24.80930722 1.49746549 22.41146851 1.51150513 C18.96566804 1.53289876 15.52099506 1.57953284 12.07553101 1.63113403 C10.46596527 1.63297699 10.46596527 1.63297699 8.82388306 1.63485718 C7.32277985 1.66443512 7.32277985 1.66443512 5.79135132 1.6946106 C4.91198914 1.70349304 4.03262695 1.71237549 3.12661743 1.7215271 C0.0201012 2.39915742 -1.21866923 3.86719154 -3.25259399 6.24050903 C-3.87759399 4.36550903 -3.87759399 4.36550903 -4.25259399 2.24050903 C-2.25259399 0.24050903 -2.25259399 0.24050903 0 0 Z " fill="#2E2E2E" transform="translate(410.2525939941406,243.75949096679688)"/>
<path d="M0 0 C0.66 0.33 1.32 0.66 2 1 C1.67 2.32 1.34 3.64 1 5 C-0.32 5 -1.64 5 -3 5 C-3.226875 5.763125 -3.45375 6.52625 -3.6875 7.3125 C-5.30100646 10.61634656 -6.8881949 11.14773506 -10 13 C-10.66 14.051875 -11.32 15.10375 -12 16.1875 C-12.66 17.115625 -13.32 18.04375 -14 19 C-16.75 19.375 -16.75 19.375 -19 19 C-17.37660195 17.29115995 -15.70680947 15.62553283 -14 14 C-13.34 14 -12.68 14 -12 14 C-11.67 13.01 -11.34 12.02 -11 11 C-9.55710434 9.78665592 -8.11049724 8.57697608 -6.6328125 7.40625 C-4.07138126 5.20023266 -2.09352908 2.64769854 0 0 Z " fill="#5E5E5E" transform="translate(333,321)"/>
<path d="M0 0 C0.928125 0.0825 1.85625 0.165 2.8125 0.25 C2.8125 1.24 2.8125 2.23 2.8125 3.25 C1.4925 2.92 0.1725 2.59 -1.1875 2.25 C-1.1875 3.57 -1.1875 4.89 -1.1875 6.25 C0.7925 5.92 2.7725 5.59 4.8125 5.25 C4.4825 6.24 4.1525 7.23 3.8125 8.25 C3.1525 8.25 2.4925 8.25 1.8125 8.25 C2.1425 9.24 2.4725 10.23 2.8125 11.25 C-0.1875 11.25 -0.1875 11.25 -2.375 9.375 C-4.1875 7.25 -4.1875 7.25 -4.1875 5.25 C-4.8475 4.92 -5.5075 4.59 -6.1875 4.25 C-4.36434338 1.00883268 -3.82500054 0.30000004 0 0 Z " fill="#0D0D0D" transform="translate(204.1875,185.75)"/>
<path d="M0 0 C-0.86625 0.3403125 -0.86625 0.3403125 -1.75 0.6875 C-4.15517515 1.90505112 -4.15517515 1.90505112 -5.8125 4.3125 C-8.53230259 7.65397175 -11.43230055 9.59866383 -15 12 C-15.66 11.67 -16.32 11.34 -17 11 C-15.37807179 9.35113941 -13.75236228 7.7059976 -12.125 6.0625 C-11.22007812 5.14597656 -10.31515625 4.22945313 -9.3828125 3.28515625 C-6.06078671 0.09927906 -4.49292872 -0.11823497 0 0 Z " fill="#4F4F4F" transform="translate(400,99)"/>
<path d="M0 0 C2 2 2 2 3 5 C4.65 4.67 6.3 4.34 8 4 C7.21302675 7.41021743 6.12880057 10.68885166 5 14 C3.37723842 11.56585763 2.38255208 9.68680554 1.375 7 C0.98441406 5.9790625 0.98441406 5.9790625 0.5859375 4.9375 C0 3 0 3 0 0 Z " fill="#444444" transform="translate(116,289)"/>
<path d="M0 0 C0.33 0.66 0.66 1.32 1 2 C-0.07507629 3.29854721 -1.16043736 4.58858361 -2.25 5.875 C-2.85328125 6.59429687 -3.4565625 7.31359375 -4.078125 8.0546875 C-5.97087634 9.97052118 -7.53657727 10.96449045 -10 12 C-8.52278578 8.54798361 -6.56205999 6.35038064 -3.875 3.75 C-3.15054688 3.04359375 -2.42609375 2.3371875 -1.6796875 1.609375 C-1.12539062 1.07828125 -0.57109375 0.5471875 0 0 Z " fill="#4B4B4B" transform="translate(110,383)"/>
<path d="M0 0 C0.66 0.66 1.32 1.32 2 2 C1.625 4.625 1.625 4.625 1 7 C0.38125 6.814375 -0.2375 6.62875 -0.875 6.4375 C-3.04160178 5.76313824 -3.04160178 5.76313824 -5 7 C-4.75 4.625 -4.75 4.625 -4 2 C-1.9375 0.6875 -1.9375 0.6875 0 0 Z " fill="#040404" transform="translate(341,322)"/>
<path d="M0 0 C0.33 0.66 0.66 1.32 1 2 C-1.78999451 5.48749314 -4.25235831 8.50157221 -8 11 C-8.66 10.67 -9.32 10.34 -10 10 C-6.7 6.7 -3.4 3.4 0 0 Z " fill="#575757" transform="translate(378,115)"/>
<path d="M0 0 C0.33 0.66 0.66 1.32 1 2 C0.09515208 3.15518918 -0.8244206 4.29885406 -1.75 5.4375 C-2.26046875 6.07558594 -2.7709375 6.71367187 -3.296875 7.37109375 C-5.19667629 9.18810554 -6.43586908 9.60423197 -9 10 C-8.06409496 8.8944811 -7.12620142 7.79064547 -6.1875 6.6875 C-5.66542969 6.07261719 -5.14335938 5.45773437 -4.60546875 4.82421875 C-3.12827531 3.14575321 -1.59960869 1.56117966 0 0 Z " fill="#535353" transform="translate(128,365)"/>
<path d="M0 0 C3 0.1875 3 0.1875 5 1.1875 C5 1.8475 5 2.5075 5 3.1875 C4.01 3.5175 3.02 3.8475 2 4.1875 C2 3.1975 2 2.2075 2 1.1875 C0.68 1.1875 -0.64 1.1875 -2 1.1875 C-2.33 2.1775 -2.66 3.1675 -3 4.1875 C-3.66 4.1875 -4.32 4.1875 -5 4.1875 C-5.33 5.1775 -5.66 6.1675 -6 7.1875 C-4.91362126 0.30710133 -4.91362126 0.30710133 0 0 Z " fill="#636363" transform="translate(250,37.8125)"/>
<path d="M0 0 C-0.33 1.32 -0.66 2.64 -1 4 C-2.32 4 -3.64 4 -5 4 C-5.33 2.68 -5.66 1.36 -6 0 C-3.50907189 -1.24546405 -2.58919267 -0.7767578 0 0 Z " fill="#020202" transform="translate(355,311)"/>
<path d="M0 0 C-3.96926035 2.2227858 -8.63843451 4.47813386 -13.21875 3.55078125 C-13.8065625 3.36902344 -14.394375 3.18726562 -15 3 C-9.89665983 1.094753 -5.53657294 -0.42589023 0 0 Z " fill="#767676" transform="translate(220,114)"/>
<path d="M0 0 C0 3 0 3 0 3 Z M-4 2 C-3.01 2 -2.02 2 -1 2 C-1 4 -1 4 -2.875 6.125 C-5 8 -5 8 -7 8 C-6.42655063 5.13275314 -6.1385485 4.1385485 -4 2 Z " fill="#292929" transform="translate(386,109)"/>
<path d="M0 0 C0 0.99 0 1.98 0 3 C-0.66 3.66 -1.32 4.32 -2 5 C-2.33 5 -2.66 5 -3 5 C-3.33 6.65 -3.66 8.3 -4 10 C-4.33 10 -4.66 10 -5 10 C-5.25 4.375 -5.25 4.375 -3 1 C-2.01 0.67 -1.02 0.34 0 0 Z " fill="#616161" transform="translate(43,243)"/>
<path d="M0 0 C0.33 0.66 0.66 1.32 1 2 C1.66 2 2.32 2 3 2 C2.34 3.32 1.68 4.64 1 6 C-0.32 5.67 -1.64 5.34 -3 5 C-3 4.01 -3 3.02 -3 2 C-1.515 2.99 -1.515 2.99 0 4 C0 2.68 0 1.36 0 0 Z " fill="#0C0C0C" transform="translate(225,169)"/>
<path d="M0 0 C0.33 0.66 0.66 1.32 1 2 C-0.24546405 5.73639216 -1.63404953 6.18756513 -5 8 C-4.45773019 4.20411134 -2.79872437 2.52788007 0 0 Z " fill="#444444" transform="translate(367,126)"/>
<path d="M0 0 C-0.86625 0.3403125 -0.86625 0.3403125 -1.75 0.6875 C-4.5663661 2.33038023 -6.08077114 4.39533227 -8 7 C-8 6.34 -8 5.68 -8 5 C-8.66 4.67 -9.32 4.34 -10 4 C-6.58908673 0.88145073 -4.68377325 -0.53528837 0 0 Z " fill="#444444" transform="translate(400,99)"/>
<path d="M0 0 C0.66 0.99 1.32 1.98 2 3 C-0.31 4.98 -2.62 6.96 -5 9 C-4.34 7.68 -3.68 6.36 -3 5 C-2.67 4.01 -2.34 3.02 -2 2 C-1.34 2 -0.68 2 0 2 C0 1.34 0 0.68 0 0 Z " fill="#5E5E5E" transform="translate(345,305)"/>
<path d="M0 0 C0.99 0 1.98 0 3 0 C2.1875 2.4375 2.1875 2.4375 1 5 C0.01 5.33 -0.98 5.66 -2 6 C-1.125 1.125 -1.125 1.125 0 0 Z " fill="#505050" transform="translate(408,244)"/>
<path d="M0 0 C2.475 0.495 2.475 0.495 5 1 C5 2.98 5 4.96 5 7 C3.29115995 5.37660195 1.62553283 3.70680947 0 2 C0 1.34 0 0.68 0 0 Z " fill="#5C5C5C" transform="translate(337,182)"/>
</svg>
