<?xml version="1.0" encoding="UTF-8"?>
<svg version="1.1" xmlns="http://www.w3.org/2000/svg" width="640" height="640">
<path d="M0 0 C211.2 0 422.4 0 640 0 C640 211.2 640 422.4 640 640 C428.8 640 217.6 640 0 640 C0 428.8 0 217.6 0 0 Z " fill="#F4F4F4" transform="translate(0,0)"/>
<path d="M0 0 C2.04001557 0.01073692 4.0791511 0.00001795 6.11914062 -0.01269531 C14.91120752 -0.02241184 23.3804833 0.74891151 32.04101562 2.26074219 C32.8521582 2.40141113 33.66330078 2.54208008 34.49902344 2.68701172 C52.00532643 5.93704291 68.55306858 11.88515207 84.22558594 20.29199219 C85.98353345 21.23006854 87.7581923 22.13661754 89.53320312 23.04199219 C107.32606382 32.25241419 124.23715962 45.81834752 137.04101562 61.26074219 C138.07162109 62.45957031 138.07162109 62.45957031 139.12304688 63.68261719 C149.40863033 75.85959515 157.30039421 88.86227526 164.04101562 103.26074219 C164.52441406 104.27265625 165.0078125 105.28457031 165.50585938 106.32714844 C166.73476537 108.95304787 167.90644375 111.59285397 169.04101562 114.26074219 C169.54375 115.43830078 169.54375 115.43830078 170.05664062 116.63964844 C172.47233694 122.7651641 174.10071897 129.06390353 175.66601562 135.44824219 C175.87226563 136.27243652 176.07851563 137.09663086 176.29101562 137.94580078 C179.47566308 151.42109883 180.45510569 164.95819719 180.41601562 178.76074219 C180.41519989 179.85976364 180.41519989 179.85976364 180.41436768 180.98098755 C180.27467166 222.26339419 165.1070594 263.70874645 137.41210938 294.56542969 C135.06242911 297.00541831 135.06242911 297.00541831 134.04101562 299.26074219 C133.38101562 299.26074219 132.72101563 299.26074219 132.04101562 299.26074219 C131.77804687 299.84726562 131.51507813 300.43378906 131.24414062 301.03808594 C121.60999052 318.83623987 94.6125306 332.03250542 77.04101562 340.26074219 C75.83058594 340.84082031 75.83058594 340.84082031 74.59570312 341.43261719 C72.43130907 342.43663268 70.25049574 343.35992686 68.04101562 344.26074219 C66.32591797 344.9684375 66.32591797 344.9684375 64.57617188 345.69042969 C54.61773514 349.67881177 44.58855932 352.34319959 34.04101562 354.26074219 C32.6560791 354.52781982 32.6560791 354.52781982 31.24316406 354.80029297 C21.70935955 356.47823057 12.31599151 356.65937157 2.66601562 356.63574219 C1.82952484 356.63519836 0.99303406 356.63465454 0.13119507 356.63409424 C-34.95053572 356.52946885 -68.90770598 346.20309616 -97.95898438 326.26074219 C-99.27576172 325.37322266 -99.27576172 325.37322266 -100.61914062 324.46777344 C-108.36949404 319.05925343 -115.17226089 312.80443171 -121.95898438 306.26074219 C-122.49765137 305.74398926 -123.03631836 305.22723633 -123.59130859 304.69482422 C-129.90813346 298.60735457 -135.89934873 292.45840971 -140.95898438 285.26074219 C-141.51102539 284.4827124 -141.51102539 284.4827124 -142.07421875 283.68896484 C-152.06639925 269.5092401 -160.02315541 254.56263981 -165.95898438 238.26074219 C-166.41144531 237.02582031 -166.86390625 235.79089844 -167.33007812 234.51855469 C-170.35778759 225.87565704 -172.45727212 217.28978714 -173.95898438 208.26074219 C-174.16523438 207.12378906 -174.37148437 205.98683594 -174.58398438 204.81542969 C-178.01631945 182.74360833 -176.8285851 159.99254477 -171.95898438 138.26074219 C-171.78238281 137.45781738 -171.60578125 136.65489258 -171.42382812 135.82763672 C-167.16125308 117.13150896 -158.94998377 99.55488008 -148.95898438 83.26074219 C-148.31316406 82.20628906 -147.66734375 81.15183594 -147.00195312 80.06542969 C-126.79264299 48.5372595 -95.85894479 24.34629618 -60.95898438 11.26074219 C-59.96753418 10.8861084 -59.96753418 10.8861084 -58.95605469 10.50390625 C-51.73111036 7.8201428 -44.4035098 5.77571833 -36.89648438 4.07324219 C-36.21320068 3.91823242 -35.52991699 3.76322266 -34.82592773 3.60351562 C-23.25710298 1.12187498 -11.82847328 -0.07371532 0 0 Z " fill="#020202" transform="translate(317.958984375,141.7392578125)"/>
<path d="M0 0 C0.0093457 0.85529297 0.01869141 1.71058594 0.02832031 2.59179688 C0.13558751 25.12570907 0.13558751 25.12570907 5 47 C5.26039063 47.8559375 5.52078125 48.711875 5.7890625 49.59375 C6.46359941 51.75819812 7.21074243 53.87507576 8 56 C8.26167969 56.74894531 8.52335937 57.49789062 8.79296875 58.26953125 C19.75628914 87.90400863 43.61283373 109.98634488 71.44140625 123.6953125 C95.12940343 134.42093579 119.55516337 135.19845309 145 132 C144.54298453 138.54253731 143.83635688 144.70215864 142 151 C141.81824219 151.71027344 141.63648438 152.42054688 141.44921875 153.15234375 C136.10997366 172.83876275 125.50723451 189.01667549 112 204 C111.34515625 204.73863281 110.6903125 205.47726562 110.015625 206.23828125 C92.26995241 225.15941506 67.05150475 235.65424056 42 240 C40.88496094 240.19464844 39.76992188 240.38929688 38.62109375 240.58984375 C24.26449371 242.21599586 10.01270641 241.36556585 -4 238 C-4.99386719 237.80664062 -5.98773438 237.61328125 -7.01171875 237.4140625 C-33.95781963 231.75280802 -60.65160639 212.49734874 -75.6472168 189.63623047 C-77.10063707 187.3615501 -78.52494443 185.07004319 -79.91870117 182.75830078 C-80.67173809 181.53378692 -81.45009513 180.32463707 -82.24731445 179.12841797 C-85.53460314 174.13939356 -87.66878887 169.15460152 -89.5625 163.5 C-89.85914551 162.63068848 -90.15579102 161.76137695 -90.46142578 160.86572266 C-94.13586489 149.89056838 -97.58806075 138.63728368 -98 127 C-98.0515625 125.85789062 -98.103125 124.71578125 -98.15625 123.5390625 C-98.80263427 96.55251913 -91.11079437 69.84003408 -75 48 C-74.53851563 47.33613281 -74.07703125 46.67226562 -73.6015625 45.98828125 C-58.12779727 24.7413092 -27.86417247 0 0 0 Z " fill="#010101" transform="translate(296,201)"/>
<path d="M0 0 C1.59049606 1.47146212 3.17428619 2.95021911 4.75 4.4375 C5.76320313 5.37142578 5.76320313 5.37142578 6.796875 6.32421875 C16.95687297 16.01685681 24.29367204 27.35027108 30.81738281 39.68212891 C31.59537595 41.14646677 32.39995326 42.59664124 33.2109375 44.04296875 C48.0161801 71.43738261 51.1702149 107.50329971 43.75 137.4375 C43.45198486 138.6426123 43.45198486 138.6426123 43.14794922 139.87207031 C40.07652543 151.84947273 35.74710607 162.64449304 29.75 173.4375 C29.16089844 174.52804687 28.57179688 175.61859375 27.96484375 176.7421875 C21.9676914 187.47968578 14.0986226 196.46885879 5.75 205.4375 C5.07582031 206.17742187 4.40164063 206.91734375 3.70703125 207.6796875 C-19.63335904 232.29000521 -55.23947988 246.53488009 -88.828125 247.66015625 C-127.92843445 248.47415216 -163.05431804 235.72928559 -192.25 209.4375 C-193.17683594 208.60734375 -194.10367188 207.7771875 -195.05859375 206.921875 C-221.63216654 181.77533007 -235.79490546 145.34429378 -237.50390625 109.171875 C-237.56265854 105.23938842 -237.46447824 101.36440156 -237.25 97.4375 C-237.21277832 96.75187988 -237.17555664 96.06625977 -237.13720703 95.35986328 C-235.24342135 64.99685995 -223.01235624 36.41530359 -203.25 13.4375 C-202.45207031 12.49390625 -201.65414062 11.5503125 -200.83203125 10.578125 C-181.11529565 -12.18023924 -153.63950783 -27.56464126 -124.25 -33.5625 C-123.31929688 -33.77390625 -122.38859375 -33.9853125 -121.4296875 -34.203125 C-78.5038675 -43.62258393 -32.33332099 -28.72424999 0 0 Z M-182.1875 19.8125 C-200.54123638 38.52812945 -212.16476351 62.58466014 -216.25 88.4375 C-216.44722656 89.613125 -216.44722656 89.613125 -216.6484375 90.8125 C-220.27987684 116.72331041 -214.42380428 147.84243623 -199.25 169.4375 C-198.63769531 170.38625 -198.02539062 171.335 -197.39453125 172.3125 C-178.97400641 200.22848664 -151.82095046 218.51214688 -119.22265625 225.67578125 C-102.02845034 229.12510031 -84.27718139 228.28118863 -67.25 224.4375 C-66.23421875 224.24414062 -65.2184375 224.05078125 -64.171875 223.8515625 C-35.54106942 217.82814165 -9.36397236 197.28186682 6.75 173.4375 C17.385471 156.64244117 24.89987032 138.50056053 25.75 118.4375 C24.02716797 118.6540625 24.02716797 118.6540625 22.26953125 118.875 C-10.31564199 122.84020496 -42.22458983 117.45355564 -69.1953125 97.84765625 C-81.57539074 88.07974286 -92.7274142 76.75529957 -101.25 63.4375 C-101.84683594 62.51324219 -102.44367188 61.58898437 -103.05859375 60.63671875 C-107.61688757 53.23561803 -110.6150612 45.7020682 -113.25 37.4375 C-113.69666016 36.07238281 -113.69666016 36.07238281 -114.15234375 34.6796875 C-117.65071258 23.5754123 -118.61983884 12.88512184 -118.875 1.3125 C-118.91327434 -0.13543772 -118.95233118 -1.58335497 -118.9921875 -3.03125 C-119.08713614 -6.54147702 -119.17153215 -10.05186132 -119.25 -13.5625 C-141.69147131 -13.5625 -166.99928526 4.78447737 -182.1875 19.8125 Z " fill="#F3F3F3" transform="translate(415.25,214.5625)"/>
<path d="M0 0 C2.88368831 2.02637557 3.83152052 3.32608206 4.6875 6.75 C3.6386228 11.70832856 0.50116802 14.47685812 -3 18 C-3.845625 18.86625 -4.69125 19.7325 -5.5625 20.625 C-6.366875 21.40875 -7.17125 22.1925 -8 23 C-8.51820313 23.54011719 -9.03640625 24.08023438 -9.5703125 24.63671875 C-11.0095441 26.12809642 -12.50154271 27.56814082 -14 29 C-14.66 29 -15.32 29 -16 29 C-16.226875 29.556875 -16.45375 30.11375 -16.6875 30.6875 C-18.00320819 33.00565252 -19.51757151 34.56875009 -21.41040039 36.41918945 C-23.30127367 38.2996079 -25.12826227 40.23470987 -26.9609375 42.171875 C-28.43194892 43.69824706 -29.90331139 45.22428086 -31.375 46.75 C-32.10460937 47.52988281 -32.83421875 48.30976563 -33.5859375 49.11328125 C-39.70205422 55.39322253 -39.70205422 55.39322253 -43.88671875 56.07421875 C-47 56 -47 56 -49.4375 55.0625 C-51.35358368 52.53326954 -51.71910764 50.50326408 -51.64129639 47.35031128 C-50.17881028 41.99039089 -45.34319876 38.36739263 -41.4453125 34.62890625 C-40.46194251 33.6579337 -39.48026615 32.68524318 -38.50021362 31.71092224 C-35.92423542 29.15972969 -33.32471892 26.63388199 -30.71984863 24.11224365 C-28.59333785 22.04587414 -26.48376364 19.96267725 -24.37492561 17.87829685 C-20.02253478 13.57648957 -15.65698936 9.28815891 -11.26611328 5.02563477 C-10.10029221 3.89267723 -10.10029221 3.89267723 -8.91091919 2.73683167 C-5.93905603 0.03570958 -3.98318116 -0.47418823 0 0 Z " fill="#090909" transform="translate(512,127)"/>
<path d="M0 0 C1.26819077 -0.00630432 2.53638153 -0.01260864 3.84300232 -0.019104 C5.228751 -0.01552383 6.61449842 -0.01142177 8.00024414 -0.00683594 C9.42127041 -0.00818333 10.84229623 -0.01012449 12.26332092 -0.01263428 C15.24167265 -0.01558301 18.21990441 -0.01129669 21.19824219 -0.00195312 C25.01263216 0.00943099 28.82674036 0.00288712 32.64111996 -0.00909805 C35.57595433 -0.01633234 38.51072215 -0.01402135 41.44555855 -0.00884247 C42.85175167 -0.00750977 44.25795086 -0.00914039 45.66413689 -0.01380157 C47.6315588 -0.01889112 49.59900194 -0.00975594 51.56640625 0 C52.68542831 0.00159119 53.80445038 0.00318237 54.9573822 0.00482178 C57.81851846 0.2562075 59.47120196 0.68065036 61.84790039 2.25878906 C63.28525286 5.13349399 63.22962688 7.07773495 62.84790039 10.25878906 C60.23643424 12.91601547 58.54199304 14.13987458 54.84385681 14.77345276 C53.17317894 14.78275063 53.17317894 14.78275063 51.46875 14.79223633 C50.2007103 14.80807266 48.93267059 14.823909 47.62620544 14.84022522 C46.25088125 14.83638419 44.87555995 14.83134539 43.50024414 14.82519531 C42.08207288 14.83043316 40.66390511 14.83671023 39.2457428 14.84397888 C36.27922117 14.85436899 33.31317968 14.84984076 30.34667969 14.83520508 C26.54757945 14.8179943 22.74998841 14.84154514 18.95105648 14.87669468 C16.02472439 14.89866432 13.09875398 14.89722894 10.17236519 14.88892937 C8.77173771 14.88811005 7.37108363 14.89496994 5.97053337 14.90970039 C4.0129742 14.92713835 2.055197 14.90928883 0.09765625 14.88989258 C-1.57182823 14.88844994 -1.57182823 14.88844994 -3.27503967 14.88697815 C-6.15209961 14.25878906 -6.15209961 14.25878906 -8.5466156 11.94981384 C-10.15209961 9.25878906 -10.15209961 9.25878906 -10.08959961 5.57128906 C-8.47237829 -0.14289293 -5.31526807 0.00756339 0 0 Z " fill="#020202" transform="translate(530.152099609375,312.7412109375)"/>
<path d="M0 0 C1.26496307 -0.00945648 2.52992615 -0.01891296 3.83322144 -0.02865601 C5.21580314 -0.02328515 6.598382 -0.01713191 7.98095703 -0.01025391 C9.39958852 -0.0122752 10.81821899 -0.01518711 12.23684692 -0.01895142 C15.21105841 -0.02337506 18.18499962 -0.01694466 21.15917969 -0.00292969 C24.96462561 0.01413145 28.76943533 0.0043414 32.57485771 -0.01364708 C35.5054703 -0.02451069 38.43593323 -0.02102631 41.36655045 -0.0132637 C42.76912639 -0.01126718 44.17171607 -0.01370172 45.57427597 -0.02070236 C47.53909786 -0.02835484 49.50396756 -0.01461528 51.46875 0 C53.14395218 0.00358017 53.14395218 0.00358017 54.85299683 0.00723267 C58.27125837 0.43974287 60.16883511 1.25468903 62.86376953 3.38818359 C63.42626953 6.82568359 63.42626953 6.82568359 62.86376953 10.38818359 C60.7164446 13.25114396 59.5397792 14.27069243 55.97998047 14.88938904 C54.86397461 14.88955521 53.74796875 14.88972137 52.59814453 14.88989258 C51.3300293 14.89927353 50.06191406 14.90865448 48.75537109 14.9183197 C47.37483037 14.90784135 45.99429616 14.89647233 44.61376953 14.88427734 C43.19417242 14.88443237 41.77457489 14.8859219 40.35498047 14.88868713 C37.38245897 14.89007049 34.41042037 14.87752466 31.43798828 14.85473633 C27.63132386 14.82635116 23.82546157 14.8290895 20.01873779 14.84182644 C17.08814668 14.84878767 14.15774037 14.84098941 11.22717285 14.82856941 C9.82377837 14.82405917 8.42036402 14.82371439 7.01696777 14.82763481 C5.05441005 14.83055101 3.09185625 14.81186562 1.12939453 14.79223633 C0.01338867 14.78683334 -1.10261719 14.78143036 -2.25244141 14.77586365 C-5.4535509 14.34552486 -6.84088871 13.6225313 -9.13623047 11.38818359 C-9.63232422 9.45068359 -9.63232422 9.45068359 -9.57373047 7.38818359 C-9.57244141 6.70755859 -9.57115234 6.02693359 -9.56982422 5.32568359 C-8.40147363 0.10494581 -4.73525746 0.01013443 0 0 Z " fill="#010101" transform="translate(59.13623046875,312.61181640625)"/>
<path d="M0 0 C3.76439127 0.46229366 4.97121433 0.77002703 7.5625 3.4375 C8.07043457 6.23899841 8.07043457 6.23899841 8.08007812 9.68139648 C8.09268677 10.969608 8.10529541 12.25781952 8.11828613 13.58506775 C8.11112578 14.9929153 8.10292166 16.40075787 8.09375 17.80859375 C8.09644474 19.25204225 8.10032701 20.69548899 8.10534668 22.13893127 C8.11124462 25.16449258 8.1026713 28.18958151 8.08398438 31.21508789 C8.06121414 35.09029802 8.07430239 38.96439888 8.09827423 42.83956814 C8.11274221 45.82078885 8.10812149 48.80174746 8.09776306 51.78297615 C8.09509743 53.21149896 8.09835985 54.64004569 8.10768127 56.06854057 C8.1178589 58.06709198 8.09959094 60.06572692 8.08007812 62.06420898 C8.07689575 63.20099594 8.07371338 64.3377829 8.07043457 65.50901794 C7.44811519 69.09698233 6.45205561 70.27812364 3.5625 72.4375 C0 73 0 73 -3.4375 72.4375 C-6.37404142 68.7165044 -6.81552601 65.8145557 -6.82568359 61.15014648 C-6.83514008 59.90212753 -6.84459656 58.65410858 -6.8543396 57.36827087 C-6.84897014 56.01504192 -6.84281725 54.66181587 -6.8359375 53.30859375 C-6.8379599 51.91284534 -6.84087273 50.51709796 -6.84463501 49.12135315 C-6.84904913 46.20197448 -6.8426561 43.28287188 -6.82861328 40.36352539 C-6.81150561 36.62529547 -6.82137771 32.88771102 -6.83933067 29.14950466 C-6.85017988 26.26954804 -6.84671732 23.38974406 -6.8389473 20.50978279 C-6.83694924 19.1315001 -6.83939074 17.75320345 -6.84638596 16.37493706 C-6.85401995 14.44844713 -6.84031764 12.52190845 -6.82568359 10.59545898 C-6.82329681 9.50023422 -6.82091003 8.40500946 -6.81845093 7.27659607 C-6.17349012 2.46992527 -4.84549858 0.61669982 0 0 Z " fill="#020202" transform="translate(319.4375,513.5625)"/>
<path d="M0 0 C1.0209375 0.01546875 1.0209375 0.01546875 2.0625 0.03125 C2.743125 0.0209375 3.42375 0.010625 4.125 0 C6.93957267 0.77173767 7.58308754 2.04645826 9.0625 4.53125 C9.45018005 7.41503906 9.45018005 7.41503906 9.46655273 10.796875 C9.47923691 12.06499023 9.49192108 13.33310547 9.50498962 14.63964844 C9.50293826 16.02018395 9.4999503 17.40071835 9.49609375 18.78125 C9.50065607 20.2008489 9.50596179 21.62044558 9.51197815 23.04003906 C9.52090536 26.01246119 9.51849034 28.98461457 9.50854492 31.95703125 C9.49704811 35.76379754 9.51727819 39.56963719 9.54646206 43.37628174 C9.56481772 46.30686317 9.56453311 49.23722219 9.55882454 52.16784668 C9.55867128 53.57126161 9.56471932 54.97469157 9.57711601 56.37805176 C9.59201124 58.34052436 9.5787265 60.30314957 9.56420898 62.265625 C9.56395973 63.93963379 9.56395973 63.93963379 9.56370544 65.64746094 C8.94708263 69.19532767 7.9065095 70.38270802 5.0625 72.53125 C0.95472251 73.03424316 -0.44625983 72.85874345 -3.9375 70.53125 C-5.02016462 67.28325613 -5.07742611 64.888807 -5.09863281 61.47094727 C-5.10824036 60.22277725 -5.1178479 58.97460724 -5.12774658 57.68861389 C-5.13259399 56.3249632 -5.13687296 54.96131039 -5.140625 53.59765625 C-5.14637844 52.19905089 -5.15213615 50.80044554 -5.15789795 49.40184021 C-5.16839735 46.47060784 -5.17424724 43.53940282 -5.17773438 40.6081543 C-5.18322315 36.85423734 -5.20726337 33.10068235 -5.23570633 29.34687901 C-5.25433761 26.45837855 -5.25953851 23.56996531 -5.26107025 20.68140984 C-5.2640952 19.29752558 -5.27211849 17.91364279 -5.28525543 16.52981758 C-5.30232741 14.59360057 -5.29858919 12.65723397 -5.29394531 10.72094727 C-5.29759094 9.61969009 -5.30123657 8.51843292 -5.30499268 7.38380432 C-4.83435292 3.73060099 -3.74065754 1.02566416 0 0 Z " fill="#020202" transform="translate(317.9375,49.46875)"/>
<path d="M0 0 C2.42990112 1.66127014 2.42990112 1.66127014 4.81201172 4.01977539 C5.71249237 4.89811539 6.61297302 5.77645538 7.54074097 6.68141174 C8.50456545 7.6526581 9.46752729 8.62476117 10.4296875 9.59765625 C11.42922181 10.59060532 12.42957038 11.58273535 13.43069458 12.57408142 C15.52341841 14.65346094 17.60467574 16.74353773 19.67871094 18.84155273 C22.33350276 21.52491694 25.01649479 24.17787175 27.70905876 26.82326603 C29.78055194 28.86552221 31.83526956 30.92402883 33.88544083 32.98766899 C34.8681314 33.97250871 35.85614981 34.95206263 36.84957504 35.92607307 C38.23802554 37.29194289 39.60178377 38.68277561 40.96435547 40.07446289 C42.13633987 41.25027672 42.13633987 41.25027672 43.33200073 42.44984436 C45.52488622 45.8024833 45.37329237 48.07022273 45 52 C44 53.9375 44 53.9375 42 55 C38.84281666 55.45830081 37.00117384 55.72360318 34 55 C31.5 52.4375 31.5 52.4375 30.3359375 50.7734375 C28.7929729 48.72517455 27.08094093 47.21867987 25.125 45.5625 C21.21197175 42.22426686 17.59936678 38.6699426 14 35 C13.113125 34.13375 12.22625 33.2675 11.3125 32.375 C9 30 9 30 7.125 27.5625 C4.86955723 24.84270137 2.44083948 22.73351691 -0.26171875 20.4765625 C-9.63305547 12.51619109 -9.63305547 12.51619109 -10.4375 7 C-10 4 -10 4 -8.375 1.625 C-5.28728872 -0.48764456 -3.69204985 -0.41320434 0 0 Z " fill="#070707" transform="translate(466,457)"/>
<path d="M0 0 C2.55015564 1.66799927 2.55015564 1.66799927 4.92553711 4.03564453 C6.27614479 5.35799606 6.27614479 5.35799606 7.65403748 6.70706177 C8.61263025 7.68150208 9.57037929 8.65677303 10.52734375 9.6328125 C11.52515618 10.62844747 12.52408083 11.62296893 13.52406311 12.61642456 C15.61218931 14.69875373 17.68743073 16.79291329 19.75415039 18.89648438 C22.40100113 21.58884409 25.07590007 24.25111512 27.76087093 26.90539742 C29.82663816 28.9533501 31.87762661 31.01560538 33.92437935 33.08254623 C34.90529151 34.0699638 35.89052553 35.05310771 36.8801403 36.03180313 C38.2614847 37.40259184 39.62138096 38.79489174 40.98022461 40.18798828 C41.75853134 40.97408478 42.53683807 41.76018127 43.33872986 42.57009888 C45.42289096 45.61855275 45.44886577 47.37688578 45 51 C43.375 53.375 43.375 53.375 41 55 C37.2537381 55.6376616 35.62401971 55.41093981 32.4375 53.3125 C25.72992701 46.94890511 25.72992701 46.94890511 23.125 43.5625 C20.86842716 40.84133864 18.43782796 38.73131032 15.734375 36.47265625 C12.56194832 33.77895162 9.71232192 30.93338735 7.1875 27.625 C5.28139419 25.33767302 3.44492123 23.60196685 1.1875 21.6875 C-9.61581192 12.34354729 -9.61581192 12.34354729 -10.625 6.1875 C-10 3 -10 3 -8.9375 1.0625 C-5.88610692 -0.61084459 -3.42285831 -0.29582653 0 0 Z " fill="#070707" transform="translate(138,129)"/>
<path d="M0 0 C3.02352411 2.06872702 3.85787938 3.27360569 4.5625 6.875 C3.7813211 11.21488275 2.10406819 12.89593181 -1 16 C-1.66 16 -2.32 16 -3 16 C-3.226875 16.556875 -3.45375 17.11375 -3.6875 17.6875 C-5.97709713 21.72155209 -9.36067285 24.4830972 -12.9375 27.375 C-15.84410589 29.74500172 -18.1673667 32.42537383 -20.5625 35.30078125 C-23.25962096 38.48895412 -26.12862423 41.32971094 -29.4375 43.875 C-32.19587682 46.16243444 -34.32555915 48.63542186 -36.5703125 51.4140625 C-39.0977516 54.21772446 -40.74074929 54.97685262 -44.5 55.3125 C-48 55 -48 55 -49.9375 53.9375 C-51.61084459 50.88610692 -51.29582653 48.42285831 -51 45 C-49.33200073 42.44984436 -49.33200073 42.44984436 -46.96435547 40.07446289 C-46.08278778 39.17405777 -45.20122009 38.27365265 -44.29293823 37.34596252 C-43.31849792 36.38736975 -42.34322697 35.42962071 -41.3671875 34.47265625 C-40.37155253 33.47484382 -39.37703107 32.47591917 -38.38357544 31.47593689 C-36.30124627 29.38781069 -34.20708671 27.31256927 -32.10351562 25.24584961 C-29.41115591 22.59899887 -26.74888488 19.92409993 -24.09460258 17.23912907 C-22.0466499 15.17336184 -19.98439462 13.12237339 -17.91745377 11.07562065 C-16.9300362 10.09470849 -15.94689229 9.10947447 -14.96819687 8.1198597 C-13.59740816 6.7385153 -12.20510826 5.37861904 -10.81201172 4.01977539 C-9.63286697 2.85231529 -9.63286697 2.85231529 -8.42990112 1.66127014 C-5.38144725 -0.42289096 -3.62311422 -0.44886577 0 0 Z " fill="#080808" transform="translate(179,460)"/>
<path d="M0 0 C0.66 0.66 1.32 1.32 2 2 C1.01 3.485 1.01 3.485 0 5 C1.98 6.65 3.96 8.3 6 10 C5.57476184 11.60746056 5.13429874 13.21089836 4.6875 14.8125 C4.44386719 15.70582031 4.20023437 16.59914063 3.94921875 17.51953125 C2.9799181 20.05247738 2.04990396 21.2716496 0 23 C-3.36295835 21.55873214 -5.62927102 19.79407345 -8 17 C-8 16.01 -8 15.02 -8 14 C-8.66 13.67 -9.32 13.34 -10 13 C-9.16855469 11.96939453 -9.16855469 11.96939453 -8.3203125 10.91796875 C-7.59585937 10.01691406 -6.87140625 9.11585938 -6.125 8.1875 C-5.40570313 7.29417969 -4.68640625 6.40085937 -3.9453125 5.48046875 C-1.92059294 2.96429047 -1.92059294 2.96429047 0 0 Z " fill="#131313" transform="translate(436,401)"/>
<path d="M0 0 C0.33 1.32 0.66 2.64 1 4 C0.360625 4.2475 -0.27875 4.495 -0.9375 4.75 C-3.18741541 5.81562433 -3.18741541 5.81562433 -3.75 8.125 C-3.8325 8.74375 -3.915 9.3625 -4 10 C-0.73539027 8.19587357 0.88929795 7.16605307 3 4 C2.67 5.98 2.34 7.96 2 10 C0.329375 10.2784375 0.329375 10.2784375 -1.375 10.5625 C-2.57125 11.036875 -3.7675 11.51125 -5 12 C-6.54086322 15.51400668 -6.54086322 15.51400668 -7 19 C-13.36 19.36 -13.36 19.36 -16 17.875 C-17.49672661 15.06863762 -16.73294398 12.99840718 -16 10 C-13.36 9.34 -10.72 8.68 -8 8 C-8.061875 7.236875 -8.12375 6.47375 -8.1875 5.6875 C-8 3 -8 3 -6.8125 1.1875 C-4.44017475 -0.36678206 -2.77958655 -0.22537188 0 0 Z " fill="#101010" transform="translate(478,370)"/>
<path d="M0 0 C2.375 1.625 2.375 1.625 4 4 C4.50299316 8.10777749 4.32749345 9.50875983 2 13 C-2.11200491 14.16377498 -4.11852344 14.46887051 -7.9375 12.4375 C-10 10 -10 10 -10.5625 7 C-10 4 -10 4 -8.375 1.625 C-5.28813568 -0.48706506 -3.6717087 -0.61195145 0 0 Z " fill="#F6F6F6" transform="translate(63,465)"/>
<path d="M0 0 C2.375 1.625 2.375 1.625 4 4 C4.50299316 8.10777749 4.32749345 9.50875983 2 13 C-2.11200491 14.16377498 -4.11852344 14.46887051 -7.9375 12.4375 C-10 10 -10 10 -10.5625 7 C-10 4 -10 4 -8.375 1.625 C-5.28813568 -0.48706506 -3.6717087 -0.61195145 0 0 Z " fill="#F6F6F6" transform="translate(63,145)"/>
<path d="M0 0 C3.5625 0.5625 3.5625 0.5625 6.0625 2.6875 C7.5625 5.5625 7.5625 5.5625 7.5 8.6875 C6.09727444 12.98919173 6.09727444 12.98919173 3.5625 14.5625 C-0.06781776 15.10318562 -1.75964079 15.02629841 -4.8125 12.9375 C-6.9128727 9.86772452 -6.97043835 8.21693439 -6.4375 4.5625 C-4.82686834 0.96226452 -3.93610526 0.64408995 0 0 Z " fill="#EDEDED" transform="translate(526.4375,611.4375)"/>
<path d="M0 0 C3.5625 0.5625 3.5625 0.5625 6.0625 2.6875 C7.5625 5.5625 7.5625 5.5625 7.5 8.6875 C6.09727444 12.98919173 6.09727444 12.98919173 3.5625 14.5625 C-0.06781776 15.10318562 -1.75964079 15.02629841 -4.8125 12.9375 C-6.9128727 9.86772452 -6.97043835 8.21693439 -6.4375 4.5625 C-4.82686834 0.96226452 -3.93610526 0.64408995 0 0 Z " fill="#EDEDED" transform="translate(206.4375,611.4375)"/>
<path d="M0 0 C4.45725366 4.18711708 9.02403461 8.61930717 12 14 C11.61570892 17.97100786 10.91820294 19.90521957 8.375 22.9375 C7.92125 23.288125 7.4675 23.63875 7 24 C7.66 24.33 8.32 24.66 9 25 C9 25.66 9 26.32 9 27 C5.84164893 25.60249952 3.67727175 23.94801766 1.25 21.5 C0.63640625 20.8915625 0.0228125 20.283125 -0.609375 19.65625 C-2 18 -2 18 -2 16 C-1.34 16 -0.68 16 0 16 C1.27253436 12.35206816 2.32829194 8.8063457 3 5 C2.01 4.67 1.02 4.34 0 4 C0 2.68 0 1.36 0 0 Z " fill="#E3E3E3" transform="translate(426,226)"/>
<path d="M0 0 C3.5625 0.5625 3.5625 0.5625 6.0625 2.6875 C7.5625 5.5625 7.5625 5.5625 7.625 8.6875 C6.5625 11.5625 6.5625 11.5625 4.3125 13.5 C1.11333641 14.73604048 -0.24212419 14.73974372 -3.4375 13.5625 C-5.25 12.375 -5.25 12.375 -6.4375 10.5625 C-6.85780443 7.27011528 -6.732954 5.22292658 -5.375 2.1875 C-3.4375 0.5625 -3.4375 0.5625 0 0 Z " fill="#EDEDED" transform="translate(526.4375,291.4375)"/>
<path d="M0 0 C0.66 0 1.32 0 2 0 C0.53508337 3.39412751 -1.33970453 5.56361401 -3.97485352 8.13842773 C-4.79232559 8.94283798 -5.60979767 9.74724823 -6.45204163 10.57603455 C-7.33540695 11.43652908 -8.21877228 12.29702362 -9.12890625 13.18359375 C-10.9865999 15.01600056 -12.84401325 16.84869157 -14.70117188 18.68164062 C-17.63497931 21.56794231 -20.573648 24.44921446 -23.51733398 27.32543945 C-26.35668491 30.10090443 -29.18011292 32.89230067 -32.00390625 35.68359375 C-33.33199059 36.97129921 -33.33199059 36.97129921 -34.68690491 38.28501892 C-35.50122482 39.09258133 -36.31554474 39.90014374 -37.15454102 40.73217773 C-37.87464859 41.43737045 -38.59475616 42.14256317 -39.33668518 42.86912537 C-41.21383946 45.27394999 -41.65119312 46.99999847 -42 50 C-43.125 48.25 -43.125 48.25 -44 46 C-42.18128548 40.70919413 -38.03880146 36.837279 -33.8125 33.375 C-30.34986559 30.43393395 -27.4128445 27.19685987 -24.48046875 23.734375 C-21.84604735 20.6481399 -18.86827795 17.86827795 -16 15 C-15.525625 14.505 -15.05125 14.01 -14.5625 13.5 C-13.04199296 12.04031324 -11.45647962 10.75498834 -9.8125 9.4375 C-8.4203125 8.2309375 -8.4203125 8.2309375 -7 7 C-7 6.34 -7 5.68 -7 5 C-5.35666496 3.96210419 -3.68756133 2.96432076 -2 2 C-1.34 1.34 -0.68 0.68 0 0 Z " fill="#E6E6E6" transform="translate(170,460)"/>
<path d="M0 0 C0.495 1.485 0.495 1.485 1 3 C-13.19 17.19 -27.38 31.38 -42 46 C-42.99 45.34 -43.98 44.68 -45 44 C-44.44570313 43.52949219 -43.89140625 43.05898437 -43.3203125 42.57421875 C-42.59585937 41.95160156 -41.87140625 41.32898438 -41.125 40.6875 C-40.40570313 40.07261719 -39.68640625 39.45773438 -38.9453125 38.82421875 C-36.80820669 36.9587676 -36.80820669 36.9587676 -35 34 C-33.3545622 32.31237149 -31.68711423 30.6459651 -30 29 C-29.525625 28.505 -29.05125 28.01 -28.5625 27.5 C-27.04199296 26.04031324 -25.45647962 24.75498834 -23.8125 23.4375 C-22.884375 22.633125 -21.95625 21.82875 -21 21 C-21 20.34 -21 19.68 -21 19 C-20.236875 18.54625 -19.47375 18.0925 -18.6875 17.625 C-15.91337971 15.94762494 -14.87299944 14.57537423 -13 12 C-11.33333333 10.66666667 -9.66666667 9.33333333 -8 8 C-5.2874063 5.37816223 -2.63789521 2.69680602 0 0 Z " fill="#E6E6E6" transform="translate(504,126)"/>
<path d="M0 0 C3.86085606 1.57294136 6.44222339 3.71143007 9 7 C8.79310345 13.20689655 8.79310345 13.20689655 7 15 C5.33382885 15.04063832 3.66611905 15.042721 2 15 C2 14.34 2 13.68 2 13 C2.66 12.67 3.32 12.34 4 12 C1.69 12 -0.62 12 -3 12 C-4.61949011 9.42786866 -5.04408751 8.32330841 -4.625 5.25 C-4.41875 4.5075 -4.2125 3.765 -4 3 C-2.68 2.67 -1.36 2.34 0 2 C0 1.34 0 0.68 0 0 Z " fill="#121212" transform="translate(277,220)"/>
<path d="M0 0 C3.5154466 1.95302589 6.48239591 3.82968374 9 7 C9.51172898 9.99726972 9.44151107 11.3377334 7.75 13.875 C6 15 6 15 3.8125 14.6875 C3.214375 14.460625 2.61625 14.23375 2 14 C3.32 13.34 4.64 12.68 6 12 C5.67 11.67 5.34 11.34 5 11 C4.01 11.66 3.02 12.32 2 13 C-0.43769204 12.77146637 -1.7600421 12.1713985 -3.75 10.75 C-5.44818574 8.37253996 -5.36644691 6.85828587 -5 4 C-4.34 3.34 -3.68 2.68 -3 2 C-2.01 2 -1.02 2 0 2 C0 1.34 0 0.68 0 0 Z " fill="#E3E3E3" transform="translate(447,540)"/>
<path d="M0 0 C3.5154466 1.95302589 6.48239591 3.82968374 9 7 C9.51172898 9.99726972 9.44151107 11.3377334 7.75 13.875 C6 15 6 15 3.8125 14.6875 C3.214375 14.460625 2.61625 14.23375 2 14 C3.32 13.34 4.64 12.68 6 12 C5.67 11.67 5.34 11.34 5 11 C4.01 11.66 3.02 12.32 2 13 C-0.43769204 12.77146637 -1.7600421 12.1713985 -3.75 10.75 C-5.44818574 8.37253996 -5.36644691 6.85828587 -5 4 C-4.34 3.34 -3.68 2.68 -3 2 C-2.01 2 -1.02 2 0 2 C0 1.34 0 0.68 0 0 Z " fill="#E3E3E3" transform="translate(127,540)"/>
<path d="M0 0 C3.5154466 1.95302589 6.48239591 3.82968374 9 7 C9.51172898 9.99726972 9.44151107 11.3377334 7.75 13.875 C6 15 6 15 3.8125 14.6875 C3.214375 14.460625 2.61625 14.23375 2 14 C3.32 13.34 4.64 12.68 6 12 C5.67 11.67 5.34 11.34 5 11 C4.01 11.66 3.02 12.32 2 13 C-0.43769204 12.77146637 -1.7600421 12.1713985 -3.75 10.75 C-5.44818574 8.37253996 -5.36644691 6.85828587 -5 4 C-4.34 3.34 -3.68 2.68 -3 2 C-2.01 2 -1.02 2 0 2 C0 1.34 0 0.68 0 0 Z " fill="#E3E3E3" transform="translate(127,220)"/>
<path d="M0 0 C3.83776322 1.56353316 6.34999338 3.83471431 9 7 C9.5 9.625 9.5 9.625 9 12 C7.75 13.8125 7.75 13.8125 6 15 C4.68 15 3.36 15 2 15 C2 14.34 2 13.68 2 13 C3.32 12.67 4.64 12.34 6 12 C5.67 11.67 5.34 11.34 5 11 C4.67 11.33 4.34 11.66 4 12 C-1.21848739 12.45378151 -1.21848739 12.45378151 -3.9375 10.875 C-5.52513015 8.07329973 -4.74070176 6.03014356 -4 3 C-2.68 2.67 -1.36 2.34 0 2 C0 1.34 0 0.68 0 0 Z " fill="#E2E2E2" transform="translate(597,390)"/>
<path d="M0 0 C3.83776322 1.56353316 6.34999338 3.83471431 9 7 C9.5 9.625 9.5 9.625 9 12 C7.75 13.8125 7.75 13.8125 6 15 C4.68 15 3.36 15 2 15 C2 14.34 2 13.68 2 13 C3.32 12.67 4.64 12.34 6 12 C5.67 11.67 5.34 11.34 5 11 C4.67 11.33 4.34 11.66 4 12 C-1.21848739 12.45378151 -1.21848739 12.45378151 -3.9375 10.875 C-5.52513015 8.07329973 -4.74070176 6.03014356 -4 3 C-2.68 2.67 -1.36 2.34 0 2 C0 1.34 0 0.68 0 0 Z " fill="#E2E2E2" transform="translate(597,70)"/>
<path d="M0 0 C3.83776322 1.56353316 6.34999338 3.83471431 9 7 C9.5 9.625 9.5 9.625 9 12 C7.75 13.8125 7.75 13.8125 6 15 C4.68 15 3.36 15 2 15 C2 14.34 2 13.68 2 13 C3.32 12.67 4.64 12.34 6 12 C5.67 11.67 5.34 11.34 5 11 C4.67 11.33 4.34 11.66 4 12 C-1.21848739 12.45378151 -1.21848739 12.45378151 -3.9375 10.875 C-5.52513015 8.07329973 -4.74070176 6.03014356 -4 3 C-2.68 2.67 -1.36 2.34 0 2 C0 1.34 0 0.68 0 0 Z " fill="#E2E2E2" transform="translate(277,70)"/>
<path d="M0 0 C3.84788585 1.5676572 6.37632897 3.79329096 9 7 C9.4375 10.1875 9.4375 10.1875 9 13 C7 15 7 15 4.375 15.125 C3.59125 15.08375 2.8075 15.0425 2 15 C2.61875 14.95875 3.2375 14.9175 3.875 14.875 C4.57625 14.58625 5.2775 14.2975 6 14 C7.3045656 11.00384054 7.3045656 11.00384054 8 8 C7.34 8 6.68 8 6 8 C5.67 9.32 5.34 10.64 5 12 C1.98088413 12.92250763 0.6004589 13.31690887 -2.25 11.8125 C-4.19257099 9.80055148 -4.74106123 8.76201354 -5 6 C-4.67 5.01 -4.34 4.02 -4 3 C-1.9375 2.3125 -1.9375 2.3125 0 2 C0 1.34 0 0.68 0 0 Z " fill="#131313" transform="translate(450,393)"/>
<path d="M0 0 C5.42857143 -0.36190476 5.42857143 -0.36190476 7.875 1.1875 C9.43323149 3.69798407 9.49631357 5.09302053 9 8 C7 10.3125 7 10.3125 5 12 C5.99 13.485 5.99 13.485 7 15 C3.84164893 13.60249952 1.67727175 11.94801766 -0.75 9.5 C-1.67039062 8.58734375 -1.67039062 8.58734375 -2.609375 7.65625 C-4 6 -4 6 -4 4 C-3.34 4 -2.68 4 -2 4 C-1.34 2.68 -0.68 1.36 0 0 Z " fill="#E3E3E3" transform="translate(428,558)"/>
<path d="M0 0 C5.42857143 -0.36190476 5.42857143 -0.36190476 7.875 1.1875 C9.43323149 3.69798407 9.49631357 5.09302053 9 8 C7 10.3125 7 10.3125 5 12 C5.99 13.485 5.99 13.485 7 15 C3.84164893 13.60249952 1.67727175 11.94801766 -0.75 9.5 C-1.67039062 8.58734375 -1.67039062 8.58734375 -2.609375 7.65625 C-4 6 -4 6 -4 4 C-3.34 4 -2.68 4 -2 4 C-1.34 2.68 -0.68 1.36 0 0 Z " fill="#E3E3E3" transform="translate(108,558)"/>
<path d="M0 0 C5.42857143 -0.36190476 5.42857143 -0.36190476 7.875 1.1875 C9.43323149 3.69798407 9.49631357 5.09302053 9 8 C7 10.3125 7 10.3125 5 12 C5.99 13.485 5.99 13.485 7 15 C3.84164893 13.60249952 1.67727175 11.94801766 -0.75 9.5 C-1.67039062 8.58734375 -1.67039062 8.58734375 -2.609375 7.65625 C-4 6 -4 6 -4 4 C-3.34 4 -2.68 4 -2 4 C-1.34 2.68 -0.68 1.36 0 0 Z " fill="#E3E3E3" transform="translate(108,238)"/>
<path d="M0 0 C6.4 -0.49230769 6.4 -0.49230769 9.4375 2 C10.2109375 2.99 10.2109375 2.99 11 4 C9.75023244 7.65316671 9.32901247 8.78065836 6 11 C6.33 12.32 6.66 13.64 7 15 C5.86800647 14.0919838 4.74467637 13.17316174 3.625 12.25 C2.99851562 11.73953125 2.37203125 11.2290625 1.7265625 10.703125 C-0.12104748 8.8805957 -1.11140325 7.43398239 -2 5 C-1.125 2.25 -1.125 2.25 0 0 Z " fill="#131313" transform="translate(257,238)"/>
<path d="M0 0 C2.625 1.6875 2.625 1.6875 4 4 C4.25 6.75 4.25 6.75 4 9 C-2.6772895 8.39297368 -8.70127996 6.22368606 -15 4 C-10.58282388 -0.71165452 -6.11352115 -1.02063844 0 0 Z " fill="#E9E9E9" transform="translate(383,145)"/>
<path d="M0 0 C0.33 0.66 0.66 1.32 1 2 C2.98 1.67 4.96 1.34 7 1 C7.66 2.32 8.32 3.64 9 5 C9.66 5 10.32 5 11 5 C11.33 6.98 11.66 8.96 12 11 C11.34 11 10.68 11 10 11 C10.33 12.98 10.66 14.96 11 17 C6.87202847 13.11485033 2.85255988 8.93071347 0 4 C0 2.68 0 1.36 0 0 Z " fill="#EDEDED" transform="translate(458,204)"/>
<path d="M0 0 C1.4540625 0.0309375 1.4540625 0.0309375 2.9375 0.0625 C2.43918276 3.75004757 1.83682357 5.66740662 -1.0625 8.0625 C0.92241642 7.79573796 0.92241642 7.79573796 2.9375 7.0625 C3.2675 6.0725 3.5975 5.0825 3.9375 4.0625 C4.5975 4.0625 5.2575 4.0625 5.9375 4.0625 C5.1875 8.8125 5.1875 8.8125 2.9375 11.0625 C0.5625 11.5 0.5625 11.5 -2.0625 11.0625 C-4.375 8.5625 -4.375 8.5625 -6.0625 6.0625 C-3.76028481 0.07674051 -3.76028481 0.07674051 0 0 Z " fill="#E3E3E3" transform="translate(302.0625,46.9375)"/>
<path d="M0 0 C1.4540625 0.0309375 1.4540625 0.0309375 2.9375 0.0625 C3.2675 0.7225 3.5975 1.3825 3.9375 2.0625 C2.2875 4.0425 0.6375 6.0225 -1.0625 8.0625 C0.5875 8.0625 2.2375 8.0625 3.9375 8.0625 C3.9375 6.7425 3.9375 5.4225 3.9375 4.0625 C4.5975 4.0625 5.2575 4.0625 5.9375 4.0625 C5.625 6.4375 5.625 6.4375 4.9375 9.0625 C1.9375 11.0625 1.9375 11.0625 -0.5625 10.9375 C-3.0625 10.0625 -3.0625 10.0625 -5 8.3125 C-6.0625 6.0625 -6.0625 6.0625 -5.3125 3.375 C-3.5270845 0.07198132 -3.5270845 0.07198132 0 0 Z " fill="#E2E2E2" transform="translate(622.0625,366.9375)"/>
<path d="M0 0 C1.4540625 0.0309375 1.4540625 0.0309375 2.9375 0.0625 C3.2675 0.7225 3.5975 1.3825 3.9375 2.0625 C2.2875 4.0425 0.6375 6.0225 -1.0625 8.0625 C0.5875 8.0625 2.2375 8.0625 3.9375 8.0625 C3.9375 6.7425 3.9375 5.4225 3.9375 4.0625 C4.5975 4.0625 5.2575 4.0625 5.9375 4.0625 C5.625 6.4375 5.625 6.4375 4.9375 9.0625 C1.9375 11.0625 1.9375 11.0625 -0.5625 10.9375 C-3.0625 10.0625 -3.0625 10.0625 -5 8.3125 C-6.0625 6.0625 -6.0625 6.0625 -5.3125 3.375 C-3.5270845 0.07198132 -3.5270845 0.07198132 0 0 Z " fill="#E2E2E2" transform="translate(622.0625,46.9375)"/>
<path d="M0 0 C0.94875 0.04125 1.8975 0.0825 2.875 0.125 C3.205 1.115 3.535 2.105 3.875 3.125 C3.215 3.125 2.555 3.125 1.875 3.125 C1.565625 3.764375 1.25625 4.40375 0.9375 5.0625 C-0.125 7.125 -0.125 7.125 -1.125 8.125 C0.195 8.125 1.515 8.125 2.875 8.125 C3.205 6.805 3.535 5.485 3.875 4.125 C4.535 4.125 5.195 4.125 5.875 4.125 C5.125 8.875 5.125 8.875 2.875 11.125 C-0.125 11.4375 -0.125 11.4375 -3.125 11.125 C-5.42663882 7.67254176 -5.46990322 6.17761287 -5.125 2.125 C-3.125 0.125 -3.125 0.125 0 0 Z " fill="#E3E3E3" transform="translate(472.125,516.875)"/>
<path d="M0 0 C0.94875 0.04125 1.8975 0.0825 2.875 0.125 C3.205 1.115 3.535 2.105 3.875 3.125 C3.215 3.125 2.555 3.125 1.875 3.125 C1.565625 3.764375 1.25625 4.40375 0.9375 5.0625 C-0.125 7.125 -0.125 7.125 -1.125 8.125 C0.195 8.125 1.515 8.125 2.875 8.125 C3.205 6.805 3.535 5.485 3.875 4.125 C4.535 4.125 5.195 4.125 5.875 4.125 C5.125 8.875 5.125 8.875 2.875 11.125 C-0.125 11.4375 -0.125 11.4375 -3.125 11.125 C-5.42663882 7.67254176 -5.46990322 6.17761287 -5.125 2.125 C-3.125 0.125 -3.125 0.125 0 0 Z " fill="#E3E3E3" transform="translate(152.125,516.875)"/>
<path d="M0 0 C0.94875 0.04125 1.8975 0.0825 2.875 0.125 C3.205 1.115 3.535 2.105 3.875 3.125 C3.215 3.125 2.555 3.125 1.875 3.125 C1.565625 3.764375 1.25625 4.40375 0.9375 5.0625 C-0.125 7.125 -0.125 7.125 -1.125 8.125 C0.195 8.125 1.515 8.125 2.875 8.125 C3.205 6.805 3.535 5.485 3.875 4.125 C4.535 4.125 5.195 4.125 5.875 4.125 C5.125 8.875 5.125 8.875 2.875 11.125 C-0.125 11.4375 -0.125 11.4375 -3.125 11.125 C-5.42663882 7.67254176 -5.46990322 6.17761287 -5.125 2.125 C-3.125 0.125 -3.125 0.125 0 0 Z " fill="#E3E3E3" transform="translate(152.125,196.875)"/>
<path d="M0 0 C0.8125 1.6875 0.8125 1.6875 1 4 C-1.4375 6.75 -1.4375 6.75 -4 9 C-2.68 9.33 -1.36 9.66 0 10 C0 9.34 0 8.68 0 8 C0.66 8 1.32 8 2 8 C2.33 6.68 2.66 5.36 3 4 C3.25 6.3125 3.25 6.3125 3 9 C1.375 10.9375 1.375 10.9375 -1 12 C-4.25 11.1875 -4.25 11.1875 -7 10 C-8.33359073 3.57451737 -8.33359073 3.57451737 -6.875 1.0625 C-4.46420662 -0.30361625 -2.72705554 -0.22111261 0 0 Z " fill="#E4E4E4" transform="translate(466,525)"/>
<path d="M0 0 C0.8125 1.6875 0.8125 1.6875 1 4 C-1.4375 6.75 -1.4375 6.75 -4 9 C-2.68 9.33 -1.36 9.66 0 10 C0 9.34 0 8.68 0 8 C0.66 8 1.32 8 2 8 C2.33 6.68 2.66 5.36 3 4 C3.25 6.3125 3.25 6.3125 3 9 C1.375 10.9375 1.375 10.9375 -1 12 C-4.25 11.1875 -4.25 11.1875 -7 10 C-8.33359073 3.57451737 -8.33359073 3.57451737 -6.875 1.0625 C-4.46420662 -0.30361625 -2.72705554 -0.22111261 0 0 Z " fill="#E4E4E4" transform="translate(146,525)"/>
<path d="M0 0 C0.8125 1.6875 0.8125 1.6875 1 4 C-1.4375 6.75 -1.4375 6.75 -4 9 C-2.68 9.33 -1.36 9.66 0 10 C0 9.34 0 8.68 0 8 C0.66 8 1.32 8 2 8 C2.33 6.68 2.66 5.36 3 4 C3.25 6.3125 3.25 6.3125 3 9 C1.375 10.9375 1.375 10.9375 -1 12 C-4.25 11.1875 -4.25 11.1875 -7 10 C-8.33359073 3.57451737 -8.33359073 3.57451737 -6.875 1.0625 C-4.46420662 -0.30361625 -2.72705554 -0.22111261 0 0 Z " fill="#E4E4E4" transform="translate(146,205)"/>
<path d="M0 0 C0.94875 0.04125 1.8975 0.0825 2.875 0.125 C3.205 1.115 3.535 2.105 3.875 3.125 C3.215 3.125 2.555 3.125 1.875 3.125 C1.565625 3.764375 1.25625 4.40375 0.9375 5.0625 C-0.125 7.125 -0.125 7.125 -1.125 8.125 C0.195 8.125 1.515 8.125 2.875 8.125 C3.205 6.805 3.535 5.485 3.875 4.125 C4.535 4.125 5.195 4.125 5.875 4.125 C5.125 8.875 5.125 8.875 2.875 11.125 C-0.6875 10.875 -0.6875 10.875 -4.125 10.125 C-5.50625018 7.36249964 -5.31579306 5.17768901 -5.125 2.125 C-3.125 0.125 -3.125 0.125 0 0 Z " fill="#E2E2E2" transform="translate(472.125,196.875)"/>
<path d="M0 0 C0.763125 0.20625 1.52625 0.4125 2.3125 0.625 C1.0633258 4.08425163 -0.36277795 6.77193203 -2.6875 9.625 C1.12663002 8.4571734 1.12663002 8.4571734 3.625 5.5 C3.851875 4.88125 4.07875 4.2625 4.3125 3.625 C4.4375 6 4.4375 6 4.3125 8.625 C2.3125 10.625 2.3125 10.625 -1.1875 10.9375 C-2.92 10.7828125 -2.92 10.7828125 -4.6875 10.625 C-6.6875 7.625 -6.6875 7.625 -6.5 4.5625 C-5.41880569 0.65356673 -4.1113564 -0.57367764 0 0 Z " fill="#E2E2E2" transform="translate(614.6875,375.375)"/>
<path d="M0 0 C0.763125 0.20625 1.52625 0.4125 2.3125 0.625 C1.0633258 4.08425163 -0.36277795 6.77193203 -2.6875 9.625 C1.12663002 8.4571734 1.12663002 8.4571734 3.625 5.5 C3.851875 4.88125 4.07875 4.2625 4.3125 3.625 C4.4375 6 4.4375 6 4.3125 8.625 C2.3125 10.625 2.3125 10.625 -1.1875 10.9375 C-2.92 10.7828125 -2.92 10.7828125 -4.6875 10.625 C-6.6875 7.625 -6.6875 7.625 -6.5 4.5625 C-5.41880569 0.65356673 -4.1113564 -0.57367764 0 0 Z " fill="#E2E2E2" transform="translate(614.6875,55.375)"/>
<path d="M0 0 C0.763125 0.20625 1.52625 0.4125 2.3125 0.625 C1.0633258 4.08425163 -0.36277795 6.77193203 -2.6875 9.625 C1.12663002 8.4571734 1.12663002 8.4571734 3.625 5.5 C3.851875 4.88125 4.07875 4.2625 4.3125 3.625 C4.4375 6 4.4375 6 4.3125 8.625 C2.3125 10.625 2.3125 10.625 -1.1875 10.9375 C-2.92 10.7828125 -2.92 10.7828125 -4.6875 10.625 C-6.6875 7.625 -6.6875 7.625 -6.5 4.5625 C-5.41880569 0.65356673 -4.1113564 -0.57367764 0 0 Z " fill="#E2E2E2" transform="translate(294.6875,55.375)"/>
<path d="M0 0 C1.2065625 0.0309375 1.2065625 0.0309375 2.4375 0.0625 C2.7675 1.0525 3.0975 2.0425 3.4375 3.0625 C4.0975 3.3925 4.7575 3.7225 5.4375 4.0625 C5.375 6.875 5.375 6.875 4.4375 10.0625 C2.16305566 11.5551041 0.05788301 12.20492011 -2.5625 13.0625 C-3.3125 10.875 -3.3125 10.875 -3.5625 8.0625 C-1.625 5.25 -1.625 5.25 0.4375 3.0625 C-0.8825 2.4025 -2.2025 1.7425 -3.5625 1.0625 C-2.5625 0.0625 -2.5625 0.0625 0 0 Z " fill="#080808" transform="translate(155.5625,369.9375)"/>
<path d="M0 0 C2.375 1.625 2.375 1.625 4 4 C4.50299316 8.10777749 4.32749345 9.50875983 2 13 C-2.11200491 14.16377498 -4.11852344 14.46887051 -7.9375 12.4375 C-10 10 -10 10 -10.5625 7 C-10 4 -10 4 -8.375 1.625 C-5.28813568 -0.48706506 -3.6717087 -0.61195145 0 0 Z M-5 1 C-7.20142332 3.4390706 -7.20142332 3.4390706 -9 6 C-8.36078035 8.47627099 -8.36078035 8.47627099 -7 11 C-4.47627099 12.36078035 -4.47627099 12.36078035 -2 13 C-0.35 11.68 1.3 10.36 3 9 C2.81584568 6.05908413 2.81584568 6.05908413 2 3 C-0.54714915 1.13209062 -1.80869 1 -5 1 Z " fill="#E4E4E4" transform="translate(63,465)"/>
<path d="M0 0 C2.375 1.625 2.375 1.625 4 4 C4.50299316 8.10777749 4.32749345 9.50875983 2 13 C-2.11200491 14.16377498 -4.11852344 14.46887051 -7.9375 12.4375 C-10 10 -10 10 -10.5625 7 C-10 4 -10 4 -8.375 1.625 C-5.28813568 -0.48706506 -3.6717087 -0.61195145 0 0 Z M-5 1 C-7.20142332 3.4390706 -7.20142332 3.4390706 -9 6 C-8.36078035 8.47627099 -8.36078035 8.47627099 -7 11 C-4.47627099 12.36078035 -4.47627099 12.36078035 -2 13 C-0.35 11.68 1.3 10.36 3 9 C2.81584568 6.05908413 2.81584568 6.05908413 2 3 C-0.54714915 1.13209062 -1.80869 1 -5 1 Z " fill="#E4E4E4" transform="translate(63,145)"/>
<path d="M0 0 C0.99 0.33 1.98 0.66 3 1 C0.45981327 4.53811723 -0.81841206 6.02429615 -5 7 C-6.05021103 8.84971696 -6.05021103 8.84971696 -7 11 C-9.47661852 13.88938827 -11.18522884 15.45503269 -15 16 C-12.18657878 11.34703413 -9.3034536 8.42519776 -5 5 C-3.28766328 3.37260948 -1.64650902 1.69493576 0 0 Z " fill="#EBEBEB" transform="translate(158,495)"/>
<path d="M0 0 C1.2065625 0.0309375 1.2065625 0.0309375 2.4375 0.0625 C3.5625 2.375 3.5625 2.375 4.4375 5.0625 C3.4475 6.5475 3.4475 6.5475 2.4375 8.0625 C-2.4375 7.1875 -2.4375 7.1875 -3.5625 6.0625 C-3.6875 3.5625 -3.6875 3.5625 -3.5625 1.0625 C-2.5625 0.0625 -2.5625 0.0625 0 0 Z " fill="#F5F5F5" transform="translate(447.5625,542.9375)"/>
<path d="M0 0 C1.2065625 0.0309375 1.2065625 0.0309375 2.4375 0.0625 C3.5625 2.375 3.5625 2.375 4.4375 5.0625 C3.4475 6.5475 3.4475 6.5475 2.4375 8.0625 C-2.4375 7.1875 -2.4375 7.1875 -3.5625 6.0625 C-3.6875 3.5625 -3.6875 3.5625 -3.5625 1.0625 C-2.5625 0.0625 -2.5625 0.0625 0 0 Z " fill="#F5F5F5" transform="translate(127.5625,542.9375)"/>
<path d="M0 0 C0.598125 0.20625 1.19625 0.4125 1.8125 0.625 C2.4375 3 2.4375 3 2.8125 5.625 C0.8125 7.625 0.8125 7.625 -1.8125 7.75 C-2.59625 7.70875 -3.38 7.6675 -4.1875 7.625 C-4.5175 5.645 -4.8475 3.665 -5.1875 1.625 C-2.1875 -0.375 -2.1875 -0.375 0 0 Z " fill="#020202" transform="translate(452.1875,396.375)"/>
<path d="M0 0 C1 1 1 1 1.125 3.5 C1 6 1 6 0 7 C-1.66617115 7.04063832 -3.33388095 7.042721 -5 7 C-5 6.34 -5 5.68 -5 5 C-5.66 5 -6.32 5 -7 5 C-6.625 2.5625 -6.625 2.5625 -6 0 C-3.49749232 -1.25125384 -2.59701335 -0.83774624 0 0 Z " fill="#020202" transform="translate(264,240)"/>
<path d="M0 0 C1.2065625 0.0309375 1.2065625 0.0309375 2.4375 0.0625 C3.5625 2.375 3.5625 2.375 4.4375 5.0625 C3.4475 6.5475 3.4475 6.5475 2.4375 8.0625 C1.1175 8.0625 -0.2025 8.0625 -1.5625 8.0625 C-1.5625 7.4025 -1.5625 6.7425 -1.5625 6.0625 C-2.2225 6.0625 -2.8825 6.0625 -3.5625 6.0625 C-3.605221 4.39638095 -3.60313832 2.72867115 -3.5625 1.0625 C-2.5625 0.0625 -2.5625 0.0625 0 0 Z " fill="#010101" transform="translate(277.5625,222.9375)"/>
<path d="M0 0 C1.2065625 0.0309375 1.2065625 0.0309375 2.4375 0.0625 C3.5625 2.375 3.5625 2.375 4.4375 5.0625 C3.4475 6.5475 3.4475 6.5475 2.4375 8.0625 C-2.4375 7.1875 -2.4375 7.1875 -3.5625 6.0625 C-3.6875 3.5625 -3.6875 3.5625 -3.5625 1.0625 C-2.5625 0.0625 -2.5625 0.0625 0 0 Z " fill="#F5F5F5" transform="translate(127.5625,222.9375)"/>
<path d="M0 0 C0.103125 0.639375 0.20625 1.27875 0.3125 1.9375 C0.539375 2.618125 0.76625 3.29875 1 4 C1.99 4.33 2.98 4.66 4 5 C4 5.66 4 6.32 4 7 C4.66 7 5.32 7 6 7 C6 7.66 6 8.32 6 9 C5.01 8.67 4.02 8.34 3 8 C3 7.34 3 6.68 3 6 C0.525 5.01 0.525 5.01 -2 4 C-1.505 4.61875 -1.01 5.2375 -0.5 5.875 C1 8 1 8 1 10 C1.99 10.33 2.98 10.66 4 11 C1.03 10.505 1.03 10.505 -2 10 C-2 9.34 -2 8.68 -2 8 C-3.32 7.67 -4.64 7.34 -6 7 C-6.33 5.68 -6.66 4.36 -7 3 C-6.21625 2.87625 -5.4325 2.7525 -4.625 2.625 C-1.85942178 2.20882007 -1.85942178 2.20882007 0 0 Z " fill="#111111" transform="translate(285,212)"/>
<path d="M0 0 C1.65 0.33 3.3 0.66 5 1 C6.125 5.75 6.125 5.75 5 8 C2.03 7.505 2.03 7.505 -1 7 C-1.625 5.1875 -1.625 5.1875 -2 3 C-1.34 2.01 -0.68 1.02 0 0 Z " fill="#F5F5F5" transform="translate(429,239)"/>
<path d="M0 0 C1 1 1 1 1.0625 3.5625 C1.041875 4.366875 1.02125 5.17125 1 6 C-1.3125 6.6875 -1.3125 6.6875 -4 7 C-5.875 5.8125 -5.875 5.8125 -7 4 C-6.8125 1.875 -6.8125 1.875 -6 0 C-3.49749232 -1.25125384 -2.59701335 -0.83774624 0 0 Z " fill="#F6F6F6" transform="translate(434,560)"/>
<path d="M0 0 C1 1 1 1 1.0625 3.5625 C1.041875 4.366875 1.02125 5.17125 1 6 C-1.3125 6.6875 -1.3125 6.6875 -4 7 C-5.875 5.8125 -5.875 5.8125 -7 4 C-6.8125 1.875 -6.8125 1.875 -6 0 C-3.49749232 -1.25125384 -2.59701335 -0.83774624 0 0 Z " fill="#F6F6F6" transform="translate(114,560)"/>
<path d="M0 0 C2.00720923 0.28674418 4.0085944 0.61866701 6 1 C7 4 7 4 6 7 C3.625 7.625 3.625 7.625 1 8 C-1 6 -1 6 -1.1875 3.4375 C-1 1 -1 1 0 0 Z " fill="#F6F6F6" transform="translate(595,393)"/>
<path d="M0 0 C1 1 1 1 1.0625 3.5625 C1.041875 4.366875 1.02125 5.17125 1 6 C-1.3125 6.6875 -1.3125 6.6875 -4 7 C-5.875 5.8125 -5.875 5.8125 -7 4 C-6.8125 1.875 -6.8125 1.875 -6 0 C-3.49749232 -1.25125384 -2.59701335 -0.83774624 0 0 Z " fill="#F6F6F6" transform="translate(114,240)"/>
<path d="M0 0 C2.00720923 0.28674418 4.0085944 0.61866701 6 1 C7 4 7 4 6 7 C3.625 7.625 3.625 7.625 1 8 C-1 6 -1 6 -1.1875 3.4375 C-1 1 -1 1 0 0 Z " fill="#F6F6F6" transform="translate(595,73)"/>
<path d="M0 0 C2.00720923 0.28674418 4.0085944 0.61866701 6 1 C7 4 7 4 6 7 C3.625 7.625 3.625 7.625 1 8 C-1 6 -1 6 -1.1875 3.4375 C-1 1 -1 1 0 0 Z " fill="#F6F6F6" transform="translate(275,73)"/>
<path d="M0 0 C2.4375 0.75 2.4375 0.75 5 2 C5.9375 4 5.9375 4 6 6 C4 8 4 8 1.375 8.125 C0.59125 8.08375 -0.1925 8.0425 -1 8 C-1.625 5.6875 -1.625 5.6875 -2 3 C-1.34 2.01 -0.68 1.02 0 0 Z " fill="#020202" transform="translate(433,412)"/>
<path d="M0 0 C2.13315211 2.8206439 4.22749971 5.66129206 6.25 8.5625 C7.06210938 9.70912109 7.06210938 9.70912109 7.890625 10.87890625 C8.25671875 11.57886719 8.6228125 12.27882813 9 13 C8.67 13.99 8.34 14.98 8 16 C7.67 15.34 7.34 14.68 7 14 C6.34 14 5.68 14 5 14 C5 13.34 5 12.68 5 12 C4.34 12 3.68 12 3 12 C2.87625 11.360625 2.7525 10.72125 2.625 10.0625 C2.41875 9.381875 2.2125 8.70125 2 8 C1.34 7.67 0.68 7.34 0 7 C-1.26229508 2.52459016 -1.26229508 2.52459016 0 0 Z " fill="#E6E6E6" transform="translate(165,408)"/>
<path d="M0 0 C0 0.66 0 1.32 0 2 C1.32 2.66 2.64 3.32 4 4 C4 4.66 4 5.32 4 6 C1.94870759 4.97435379 -0.09797888 3.94812883 -2.125 2.875 C-3.95720802 1.85903818 -3.95720802 1.85903818 -6 2 C-4.7508258 5.45925163 -3.32472205 8.14693203 -1 11 C-4.40320742 9.98823563 -5.75725331 9.35156418 -7.8125 6.375 C-8.4003125 5.199375 -8.4003125 5.199375 -9 4 C-8.34 4 -7.68 4 -7 4 C-7 2.68 -7 1.36 -7 0 C-3.86650268 -1.04449911 -3.01031744 -0.93423645 0 0 Z " fill="#121212" transform="translate(272,230)"/>
<path d="M0 0 C-0.639375 0.2475 -1.27875 0.495 -1.9375 0.75 C-4.18741541 1.81562433 -4.18741541 1.81562433 -4.75 4.125 C-4.8325 4.74375 -4.915 5.3625 -5 6 C-4.34 6 -3.68 6 -3 6 C-3 6.66 -3 7.32 -3 8 C-0.49034386 7.29660434 -0.49034386 7.29660434 2 6 C2.88693303 3.95894361 2.88693303 3.95894361 3 2 C3.66 2.33 4.32 2.66 5 3 C4.34 4.98 3.68 6.96 3 9 C-3.36 9.36 -3.36 9.36 -6 7.875 C-7.52480785 5.01598528 -6.8570682 3.03270286 -6 0 C-3.50907189 -1.24546405 -2.58919267 -0.7767578 0 0 Z " fill="#141414" transform="translate(468,380)"/>
<path d="M0 0 C0 0.99 0 1.98 0 3 C-5.22270869 5.66464729 -8.0819503 6.32854177 -14 5 C-11.67684302 2.67684302 -10.12738825 2.27503325 -7 1.375 C-6.113125 1.11460937 -5.22625 0.85421875 -4.3125 0.5859375 C-2 0 -2 0 0 0 Z " fill="#E6E6E6" transform="translate(284,183)"/>
<path d="M0 0 C5.28 0 10.56 0 16 0 C15.67 0.99 15.34 1.98 15 3 C10.05 3 5.1 3 0 3 C0 2.01 0 1.02 0 0 Z " fill="#FBFBFB" transform="translate(312,499)"/>
<path d="M0 0 C6.44541485 6.26637555 6.44541485 6.26637555 9 10 C8.67 10.99 8.34 11.98 8 13 C6.02 12.34 4.04 11.68 2 11 C2.33 9.02 2.66 7.04 3 5 C2.01 4.67 1.02 4.34 0 4 C0 2.68 0 1.36 0 0 Z " fill="#E9E9E9" transform="translate(426,226)"/>
<path d="M0 0 C0.66 0.66 1.32 1.32 2 2 C1.525625 2.45375 1.05125 2.9075 0.5625 3.375 C-1.09027808 4.93258204 -1.09027808 4.93258204 -2 7 C-1.34 7 -0.68 7 0 7 C-0.33 7.66 -0.66 8.32 -1 9 C-1.66 8.67 -2.32 8.34 -3 8 C-3 8.66 -3 9.32 -3 10 C-4.62553283 11.70680947 -6.29115995 13.37660195 -8 15 C-8.66 14.67 -9.32 14.34 -10 14 C-8.90073597 12.22611914 -7.79539498 10.45600316 -6.6875 8.6875 C-6.07261719 7.70136719 -5.45773437 6.71523438 -4.82421875 5.69921875 C-3.33675339 3.49827965 -1.9596614 1.76671012 0 0 Z " fill="#E5E5E5" transform="translate(477,406)"/>
<path d="M0 0 C0 0.99 0 1.98 0 3 C-0.66 3.66 -1.32 4.32 -2 5 C-0.68 5.33 0.64 5.66 2 6 C2 5.34 2 4.68 2 4 C2.66 4 3.32 4 4 4 C4.33 2.68 4.66 1.36 5 0 C5.25 2.3125 5.25 2.3125 5 5 C3.375 6.9375 3.375 6.9375 1 8 C-2.25 7.1875 -2.25 7.1875 -5 6 C-5.33 4.35 -5.66 2.7 -6 1 C-5.38125 1.20625 -4.7625 1.4125 -4.125 1.625 C-3.073125 1.810625 -3.073125 1.810625 -2 2 C-1.34 1.34 -0.68 0.68 0 0 Z " fill="#E2E2E2" transform="translate(464,529)"/>
<path d="M0 0 C0 0.99 0 1.98 0 3 C-0.66 3.66 -1.32 4.32 -2 5 C-0.68 5.33 0.64 5.66 2 6 C2 5.34 2 4.68 2 4 C2.66 4 3.32 4 4 4 C4.33 2.68 4.66 1.36 5 0 C5.25 2.3125 5.25 2.3125 5 5 C3.375 6.9375 3.375 6.9375 1 8 C-2.25 7.1875 -2.25 7.1875 -5 6 C-5.33 4.35 -5.66 2.7 -6 1 C-5.38125 1.20625 -4.7625 1.4125 -4.125 1.625 C-3.073125 1.810625 -3.073125 1.810625 -2 2 C-1.34 1.34 -0.68 0.68 0 0 Z " fill="#E2E2E2" transform="translate(144,529)"/>
<path d="M0 0 C0 0.99 0 1.98 0 3 C-0.66 3.66 -1.32 4.32 -2 5 C-0.68 5.33 0.64 5.66 2 6 C2 5.34 2 4.68 2 4 C2.66 4 3.32 4 4 4 C4.33 2.68 4.66 1.36 5 0 C5.25 2.3125 5.25 2.3125 5 5 C3.375 6.9375 3.375 6.9375 1 8 C-2.25 7.1875 -2.25 7.1875 -5 6 C-5.33 4.35 -5.66 2.7 -6 1 C-5.38125 1.20625 -4.7625 1.4125 -4.125 1.625 C-3.073125 1.810625 -3.073125 1.810625 -2 2 C-1.34 1.34 -0.68 0.68 0 0 Z " fill="#E2E2E2" transform="translate(144,209)"/>
<path d="M0 0 C2.49118953 3.7367843 2.2065226 5.74451819 2.125 10.1875 C2.10695312 11.45980469 2.08890625 12.73210937 2.0703125 14.04296875 C2.03550781 15.50669922 2.03550781 15.50669922 2 17 C1.01 17.33 0.02 17.66 -1 18 C-0.505 9.09 -0.505 9.09 0 0 Z " fill="#FDFDFD" transform="translate(140,318)"/>
<path d="M0 0 C0.66 0 1.32 0 2 0 C2 0.66 2 1.32 2 2 C2.99 1.67 3.98 1.34 5 1 C5.12375 1.639375 5.2475 2.27875 5.375 2.9375 C5.684375 3.9584375 5.684375 3.9584375 6 5 C6.66 5.33 7.32 5.66 8 6 C8 6.66 8 7.32 8 8 C9.32 8 10.64 8 12 8 C12 8.66 12 9.32 12 10 C8.18759068 9.48480955 6.6205882 8.73970585 4 6 C3.01 6 2.02 6 1 6 C0.67 4.02 0.34 2.04 0 0 Z " fill="#121212" transform="translate(451,387)"/>
<path d="M0 0 C0.33 0.66 0.66 1.32 1 2 C0.01 2.495 0.01 2.495 -1 3 C-1 3.99 -1 4.98 -1 6 C-0.01 5.67 0.98 5.34 2 5 C1.34 6.65 0.68 8.3 0 10 C0.66 10.33 1.32 10.66 2 11 C0.68 11 -0.64 11 -2 11 C-4.14762184 7.77856724 -4.561068 6.7404533 -4 3 C-2 1.1875 -2 1.1875 0 0 Z " fill="#101010" transform="translate(292,205)"/>
<path d="M0 0 C0.6875 1.75 0.6875 1.75 1 4 C-0.4375 6.25 -0.4375 6.25 -2 8 C-4.31 6.35 -6.62 4.7 -9 3 C-7.68 2.34 -6.36 1.68 -5 1 C-5 1.66 -5 2.32 -5 3 C-3.02463255 2.65213292 -3.02463255 2.65213292 -1 2 C-0.67 1.34 -0.34 0.68 0 0 Z " fill="#EBEBEB" transform="translate(438,177)"/>
<path d="M0 0 C1.35439668 2.70879335 1.06501451 5.00933268 1 8 C-0.65 8.66 -2.3 9.32 -4 10 C-4.33 9.01 -4.66 8.02 -5 7 C-4.00390625 5.17578125 -4.00390625 5.17578125 -2.5625 3.3125 C-2.08941406 2.68988281 -1.61632812 2.06726563 -1.12890625 1.42578125 C-0.75636719 0.95527344 -0.38382812 0.48476563 0 0 Z " fill="#EBEBEB" transform="translate(486,388)"/>
<path d="M0 0 C4.51347752 2.32121701 7.10087768 4.90712143 10 9 C9.67 9.99 9.34 10.98 9 12 C8.34 12 7.68 12 7 12 C7 11.34 7 10.68 7 10 C6.34 9.67 5.68 9.34 5 9 C5 8.01 5 7.02 5 6 C3.02 5.34 1.04 4.68 -1 4 C-0.67 2.68 -0.34 1.36 0 0 Z " fill="#FAFAFA" transform="translate(141,154)"/>
<path d="M0 0 C0.99 0.33 1.98 0.66 3 1 C2.34 1 1.68 1 1 1 C1 2.32 1 3.64 1 5 C2.32 5 3.64 5 5 5 C5 4.34 5 3.68 5 3 C5.66 3.33 6.32 3.66 7 4 C6.01 5.32 5.02 6.64 4 8 C2.35 7.67 0.7 7.34 -1 7 C-1.625 4.625 -1.625 4.625 -2 2 C-1.34 1.34 -0.68 0.68 0 0 Z " fill="#E7E7E7" transform="translate(58,468)"/>
<path d="M0 0 C0.99 0.33 1.98 0.66 3 1 C1.02 1.99 1.02 1.99 -1 3 C-0.47731534 5.76276177 0.10869587 8.3260876 1 11 C1.66 11 2.32 11 3 11 C3 11.66 3 12.32 3 13 C-1.03810445 11.65396518 -2.47295076 9.34663277 -5 6 C-5 5.34 -5 4.68 -5 4 C-4.34 4 -3.68 4 -3 4 C-2.67 3.01 -2.34 2.02 -2 1 C-1.34 0.67 -0.68 0.34 0 0 Z " fill="#E3E3E3" transform="translate(588,399)"/>
<path d="M0 0 C0.66 0.33 1.32 0.66 2 1 C0.88200014 2.33920838 -0.24461897 3.67122556 -1.375 5 C-2.31472656 6.11375 -2.31472656 6.11375 -3.2734375 7.25 C-4.12808594 8.11625 -4.12808594 8.11625 -5 9 C-5.66 9 -6.32 9 -7 9 C-7 9.66 -7 10.32 -7 11 C-9 12.625 -9 12.625 -11 14 C-11 11 -11 11 -8.59375 8.30078125 C-7.5700032 7.29697757 -6.5383946 6.30114351 -5.5 5.3125 C-4.97535156 4.80138672 -4.45070312 4.29027344 -3.91015625 3.76367188 C-2.61339096 2.50227292 -1.30753883 1.25022788 0 0 Z " fill="#1C1C1C" transform="translate(203,185)"/>
<path d="M0 0 C0.99 0.33 1.98 0.66 3 1 C2.34 1 1.68 1 1 1 C1 2.32 1 3.64 1 5 C2.32 5 3.64 5 5 5 C5 4.34 5 3.68 5 3 C5.66 3.33 6.32 3.66 7 4 C6.01 5.32 5.02 6.64 4 8 C2.35 7.67 0.7 7.34 -1 7 C-1.625 4.625 -1.625 4.625 -2 2 C-1.34 1.34 -0.68 0.68 0 0 Z " fill="#E7E7E7" transform="translate(58,148)"/>
<path d="M0 0 C0.99 0.33 1.98 0.66 3 1 C1.02 1.99 1.02 1.99 -1 3 C-0.47731534 5.76276177 0.10869587 8.3260876 1 11 C1.66 11 2.32 11 3 11 C3 11.66 3 12.32 3 13 C-1.03810445 11.65396518 -2.47295076 9.34663277 -5 6 C-5 5.34 -5 4.68 -5 4 C-4.34 4 -3.68 4 -3 4 C-2.67 3.01 -2.34 2.02 -2 1 C-1.34 0.67 -0.68 0.34 0 0 Z " fill="#E3E3E3" transform="translate(588,79)"/>
<path d="M0 0 C0.99 0.33 1.98 0.66 3 1 C1.02 1.99 1.02 1.99 -1 3 C-0.47731534 5.76276177 0.10869587 8.3260876 1 11 C1.66 11 2.32 11 3 11 C3 11.66 3 12.32 3 13 C-1.03810445 11.65396518 -2.47295076 9.34663277 -5 6 C-5 5.34 -5 4.68 -5 4 C-4.34 4 -3.68 4 -3 4 C-2.67 3.01 -2.34 2.02 -2 1 C-1.34 0.67 -0.68 0.34 0 0 Z " fill="#E3E3E3" transform="translate(268,79)"/>
<path d="M0 0 C0.33 1.32 0.66 2.64 1 4 C-1.97 3.505 -1.97 3.505 -5 3 C-5.68707555 5.49064888 -6 7.37886292 -6 10 C-8 8 -8 8 -8.3125 5.5625 C-8 3 -8 3 -6.8125 1.1875 C-4.44017475 -0.36678206 -2.77958655 -0.22537188 0 0 Z " fill="#131313" transform="translate(478,370)"/>
<path d="M0 0 C2.475 0.495 2.475 0.495 5 1 C5.061875 1.5775 5.12375 2.155 5.1875 2.75 C6.32027301 5.88690987 8.34197595 7.09167504 11 9 C10.01 9.33 9.02 9.66 8 10 C4.54563194 7.46209694 2.37902903 5.56854354 0 2 C0 1.34 0 0.68 0 0 Z " fill="#E1E1E1" transform="translate(448,534)"/>
<path d="M0 0 C2.475 0.495 2.475 0.495 5 1 C5.061875 1.5775 5.12375 2.155 5.1875 2.75 C6.32027301 5.88690987 8.34197595 7.09167504 11 9 C10.01 9.33 9.02 9.66 8 10 C4.54563194 7.46209694 2.37902903 5.56854354 0 2 C0 1.34 0 0.68 0 0 Z " fill="#E1E1E1" transform="translate(128,534)"/>
<path d="M0 0 C2.475 0.495 2.475 0.495 5 1 C5.061875 1.5775 5.12375 2.155 5.1875 2.75 C6.32027301 5.88690987 8.34197595 7.09167504 11 9 C10.01 9.33 9.02 9.66 8 10 C4.54563194 7.46209694 2.37902903 5.56854354 0 2 C0 1.34 0 0.68 0 0 Z " fill="#E1E1E1" transform="translate(128,214)"/>
<path d="M0 0 C1.65 0 3.3 0 5 0 C5 0.66 5 1.32 5 2 C5.99 2.33 6.98 2.66 8 3 C8 3.66 8 4.32 8 5 C8.66 5.33 9.32 5.66 10 6 C9.01 6 8.02 6 7 6 C6.566875 5.484375 6.13375 4.96875 5.6875 4.4375 C5.130625 3.963125 4.57375 3.48875 4 3 C0.85078091 3.23283149 0.85078091 3.23283149 -2 4 C-1.34 2.68 -0.68 1.36 0 0 Z " fill="#121212" transform="translate(440,403)"/>
<path d="M0 0 C1.11375 0.3403125 1.11375 0.3403125 2.25 0.6875 C1.92 1.6775 1.59 2.6675 1.25 3.6875 C-1.625 4.3125 -1.625 4.3125 -4.75 4.6875 C-5.41 4.0275 -6.07 3.3675 -6.75 2.6875 C-4.29511132 0.41445492 -3.41240272 -0.38777304 0 0 Z " fill="#E7E7E7" transform="translate(412.75,161.3125)"/>
<path d="M0 0 C0 0.99 0 1.98 0 3 C-1.95890881 4.39300182 -3.9639118 5.72245446 -6 7 C-7.79394446 8.62351109 -7.79394446 8.62351109 -9 10 C-9.66 9.67 -10.32 9.34 -11 9 C-9.54782324 7.49403892 -8.08807139 5.99537896 -6.625 4.5 C-5.40683594 3.24703125 -5.40683594 3.24703125 -4.1640625 1.96875 C-2 0 -2 0 0 0 Z " fill="#E5E5E5" transform="translate(413,401)"/>
<path d="M0 0 C1.2065625 0.0309375 1.2065625 0.0309375 2.4375 0.0625 C2.4375 4.28778092 2.18125671 5.10768508 -0.5625 8.0625 C-1.2225 8.0625 -1.8825 8.0625 -2.5625 8.0625 C-0.6875 4.1875 -0.6875 4.1875 0.4375 3.0625 C-0.8825 2.4025 -2.2025 1.7425 -3.5625 1.0625 C-2.5625 0.0625 -2.5625 0.0625 0 0 Z " fill="#121212" transform="translate(155.5625,369.9375)"/>
<path d="M0 0 C0.33 0.66 0.66 1.32 1 2 C2.98 1.67 4.96 1.34 7 1 C7.66 1.99 8.32 2.98 9 4 C8.01 4.495 8.01 4.495 7 5 C7 4.34 7 3.68 7 3 C6.01 3.66 5.02 4.32 4 5 C3.01 5 2.02 5 1 5 C0.34 3.68 -0.32 2.36 -1 1 C-0.67 0.67 -0.34 0.34 0 0 Z " fill="#E4E4E4" transform="translate(458,204)"/>
<path d="M0 0 C3.33333333 3.33333333 6.66666667 6.66666667 10 10 C7.625 9.6875 7.625 9.6875 5 9 C4.34 8.01 3.68 7.02 3 6 C0.94996045 4.80767387 0.94996045 4.80767387 -1 4 C-0.67 2.68 -0.34 1.36 0 0 Z " fill="#DEDEDE" transform="translate(150,161)"/>
<path d="M0 0 C0.66 0.33 1.32 0.66 2 1 C0.32482761 4.53647504 -0.49280817 5.7911563 -4.1875 7.3125 C-5.5796875 7.6528125 -5.5796875 7.6528125 -7 8 C-3.375 2.25 -3.375 2.25 0 0 Z " fill="#EAEAEA" transform="translate(510,143)"/>
<path d="M0 0 C2.64 0.33 5.28 0.66 8 1 C8 1.66 8 2.32 8 3 C7.01 3 6.02 3 5 3 C5 3.66 5 4.32 5 5 C5.66 5 6.32 5 7 5 C6.67 5.99 6.34 6.98 6 8 C4.99403703 7.0479279 3.99538437 6.08812654 3 5.125 C2.443125 4.59132813 1.88625 4.05765625 1.3125 3.5078125 C0 2 0 2 0 0 Z " fill="#E2E2E2" transform="translate(577,415)"/>
<path d="M0 0 C1.32 0 2.64 0 4 0 C2.95125002 2.62187494 2.35068687 3.79371361 -0.125 5.25 C-0.74375 5.4975 -1.3625 5.745 -2 6 C-1.125 1.125 -1.125 1.125 0 0 Z " fill="#F4F4F4" transform="translate(620,368)"/>
<path d="M0 0 C1.32 0 2.64 0 4 0 C4.33 0.99 4.66 1.98 5 3 C4.34 3 3.68 3 3 3 C3 4.65 3 6.3 3 8 C0.9375 5.6875 0.9375 5.6875 -1 3 C-0.67 2.01 -0.34 1.02 0 0 Z " fill="#EDEDED" transform="translate(473,225)"/>
<path d="M0 0 C2.64 0.33 5.28 0.66 8 1 C8 1.66 8 2.32 8 3 C7.01 3 6.02 3 5 3 C5 3.66 5 4.32 5 5 C5.66 5 6.32 5 7 5 C6.67 5.99 6.34 6.98 6 8 C4.99403703 7.0479279 3.99538437 6.08812654 3 5.125 C2.443125 4.59132813 1.88625 4.05765625 1.3125 3.5078125 C0 2 0 2 0 0 Z " fill="#E2E2E2" transform="translate(577,95)"/>
<path d="M0 0 C2.64 0.33 5.28 0.66 8 1 C8 1.66 8 2.32 8 3 C7.01 3 6.02 3 5 3 C5 3.66 5 4.32 5 5 C5.66 5 6.32 5 7 5 C6.67 5.99 6.34 6.98 6 8 C4.99403703 7.0479279 3.99538437 6.08812654 3 5.125 C2.443125 4.59132813 1.88625 4.05765625 1.3125 3.5078125 C0 2 0 2 0 0 Z " fill="#E2E2E2" transform="translate(257,95)"/>
<path d="M0 0 C1.32 0 2.64 0 4 0 C2.95125002 2.62187494 2.35068687 3.79371361 -0.125 5.25 C-0.74375 5.4975 -1.3625 5.745 -2 6 C-1.125 1.125 -1.125 1.125 0 0 Z " fill="#F4F4F4" transform="translate(620,48)"/>
<path d="M0 0 C0.2475 0.598125 0.495 1.19625 0.75 1.8125 C2.16444091 4.28777159 3.72860188 5.33430804 6 7 C6 7.66 6 8.32 6 9 C2.63820226 7.55922954 0.40843732 5.75249979 -2 3 C-2 2.34 -2 1.68 -2 1 C-1.34 0.67 -0.68 0.34 0 0 Z " fill="#E3E3E3" transform="translate(455,532)"/>
<path d="M0 0 C0.2475 0.598125 0.495 1.19625 0.75 1.8125 C2.16444091 4.28777159 3.72860188 5.33430804 6 7 C6 7.66 6 8.32 6 9 C2.63820226 7.55922954 0.40843732 5.75249979 -2 3 C-2 2.34 -2 1.68 -2 1 C-1.34 0.67 -0.68 0.34 0 0 Z " fill="#E3E3E3" transform="translate(135,532)"/>
<path d="M0 0 C0.94875 0.04125 1.8975 0.0825 2.875 0.125 C3.205 1.115 3.535 2.105 3.875 3.125 C3.09125 2.939375 2.3075 2.75375 1.5 2.5625 C-1.09589775 1.86537734 -1.09589775 1.86537734 -3.125 3.125 C-3.78055119 5.65233235 -3.78055119 5.65233235 -4.125 8.125 C-4.455 8.125 -4.785 8.125 -5.125 8.125 C-5.25 5.25 -5.25 5.25 -5.125 2.125 C-3.125 0.125 -3.125 0.125 0 0 Z " fill="#E1E1E1" transform="translate(472.125,516.875)"/>
<path d="M0 0 C1.65 1.65 3.3 3.3 5 5 C4.01 5.99 3.02 6.98 2 8 C1.67 7.01 1.34 6.02 1 5 C0.34 5 -0.32 5 -1 5 C-0.67 3.35 -0.34 1.7 0 0 Z " fill="#DEDEDE" transform="translate(179,429)"/>
<path d="M0 0 C0.66 0 1.32 0 2 0 C1.67 1.32 1.34 2.64 1 4 C1.66 4 2.32 4 3 4 C3 4.66 3 5.32 3 6 C3.99 6.33 4.98 6.66 6 7 C5.67 7.99 5.34 8.98 5 10 C3.96468274 9.09972412 2.94705835 8.17906965 1.9375 7.25 C1.36902344 6.73953125 0.80054688 6.2290625 0.21484375 5.703125 C-1 4 -1 4 -0.68359375 1.796875 C-0.45800781 1.20390625 -0.23242188 0.6109375 0 0 Z " fill="#131313" transform="translate(458,385)"/>
<path d="M0 0 C0.99 0.99 1.98 1.98 3 3 C2.34 5.31 1.68 7.62 1 10 C0.34 10 -0.32 10 -1 10 C-1.125 2.25 -1.125 2.25 0 0 Z " fill="#DCDCDC" transform="translate(435,237)"/>
<path d="M0 0 C0.2475 0.598125 0.495 1.19625 0.75 1.8125 C2.16444091 4.28777159 3.72860188 5.33430804 6 7 C6 7.66 6 8.32 6 9 C2.63820226 7.55922954 0.40843732 5.75249979 -2 3 C-2 2.34 -2 1.68 -2 1 C-1.34 0.67 -0.68 0.34 0 0 Z " fill="#E3E3E3" transform="translate(135,212)"/>
<path d="M0 0 C0.94875 0.04125 1.8975 0.0825 2.875 0.125 C3.205 1.115 3.535 2.105 3.875 3.125 C3.09125 2.939375 2.3075 2.75375 1.5 2.5625 C-1.09589775 1.86537734 -1.09589775 1.86537734 -3.125 3.125 C-3.78055119 5.65233235 -3.78055119 5.65233235 -4.125 8.125 C-4.455 8.125 -4.785 8.125 -5.125 8.125 C-5.25 5.25 -5.25 5.25 -5.125 2.125 C-3.125 0.125 -3.125 0.125 0 0 Z " fill="#E1E1E1" transform="translate(472.125,196.875)"/>
<path d="M0 0 C0.94875 0.04125 1.8975 0.0825 2.875 0.125 C3.205 1.115 3.535 2.105 3.875 3.125 C3.09125 2.939375 2.3075 2.75375 1.5 2.5625 C-1.09589775 1.86537734 -1.09589775 1.86537734 -3.125 3.125 C-3.78055119 5.65233235 -3.78055119 5.65233235 -4.125 8.125 C-4.455 8.125 -4.785 8.125 -5.125 8.125 C-5.25 5.25 -5.25 5.25 -5.125 2.125 C-3.125 0.125 -3.125 0.125 0 0 Z " fill="#E1E1E1" transform="translate(152.125,196.875)"/>
<path d="M0 0 C2.0625 0.4375 2.0625 0.4375 4 1 C2.71937515 2.7074998 1.38232443 4.37373596 0 6 C-0.66 6 -1.32 6 -2 6 C-1.125 1.125 -1.125 1.125 0 0 Z " fill="#F5F5F5" transform="translate(300,48)"/>
<path d="M0 0 C1.70884005 1.62339805 3.37446717 3.29319053 5 5 C5 5.66 5 6.32 5 7 C4.34 7 3.68 7 3 7 C2.67 7.66 2.34 8.32 2 9 C2 7.68 2 6.36 2 5 C1.01 4.34 0.02 3.68 -1 3 C-0.67 2.01 -0.34 1.02 0 0 Z " fill="#E8E8E8" transform="translate(226,398)"/>
<path d="M0 0 C2.0625 0.4375 2.0625 0.4375 4 1 C2.75 3 2.75 3 1 5 C-0.32 5 -1.64 5 -3 5 C-1.125 1.125 -1.125 1.125 0 0 Z " fill="#212121" transform="translate(53,313)"/>
<path d="M0 0 C1.875 0.3125 1.875 0.3125 4 1 C4.66 1.99 5.32 2.98 6 4 C3 5 3 5 -1 5 C-0.67 4.34 -0.34 3.68 0 3 C0 2.01 0 1.02 0 0 Z " fill="#ECECEC" transform="translate(204,457)"/>
<path d="M0 0 C0.625 1.875 0.625 1.875 1 4 C0.34 4.66 -0.32 5.32 -1 6 C-3.125 5.625 -3.125 5.625 -5 5 C-3.35 3.35 -1.7 1.7 0 0 Z " fill="#010101" transform="translate(470,382)"/>
<path d="M0 0 C0 0.99 0 1.98 0 3 C-3.375 3.125 -3.375 3.125 -7 3 C-7.66 2.34 -8.32 1.68 -9 1 C-6.04335481 -0.4783226 -3.25770263 -0.06032783 0 0 Z " fill="#FCFCFC" transform="translate(405,331)"/>
<path d="M0 0 C2.88437779 1.29299694 4.87219421 2.65941363 7 5 C6.34 5.66 5.68 6.32 5 7 C3.02 5.35 1.04 3.7 -1 2 C-0.67 1.34 -0.34 0.68 0 0 Z " fill="#E7E7E7" transform="translate(406,208)"/>
<path d="M0 0 C-1.39332574 3.36720387 -2.9789286 4.9859524 -6 7 C-6 5.68 -6 4.36 -6 3 C-2.78571429 0 -2.78571429 0 0 0 Z " fill="#ECECEC" transform="translate(194,193)"/>
<path d="M0 0 C0.99 0.66 1.98 1.32 3 2 C1.02 2.99 1.02 2.99 -1 4 C-1 4.66 -1 5.32 -1 6 C-1.66 6 -2.32 6 -3 6 C-2.625 3.5625 -2.625 3.5625 -2 1 C-1.34 0.67 -0.68 0.34 0 0 Z " fill="#F7F7F7" transform="translate(471,518)"/>
<path d="M0 0 C0.99 0.66 1.98 1.32 3 2 C1.02 2.99 1.02 2.99 -1 4 C-1 4.66 -1 5.32 -1 6 C-1.66 6 -2.32 6 -3 6 C-2.625 3.5625 -2.625 3.5625 -2 1 C-1.34 0.67 -0.68 0.34 0 0 Z " fill="#F6F6F6" transform="translate(151,518)"/>
<path d="M0 0 C2.475 0.99 2.475 0.99 5 2 C4.01 3.485 4.01 3.485 3 5 C2.01 5 1.02 5 0 5 C-0.5625 3.0625 -0.5625 3.0625 -1 1 C-0.67 0.67 -0.34 0.34 0 0 Z " fill="#EAEAEA" transform="translate(214,464)"/>
<path d="M0 0 C0.99 0.33 1.98 0.66 3 1 C3 3.31 3 5.62 3 8 C0.9375 6.25 0.9375 6.25 -1 4 C-0.75 1.75 -0.75 1.75 0 0 Z " fill="#ECECEC" transform="translate(202,394)"/>
<path d="M0 0 C1.2065625 0.0309375 1.2065625 0.0309375 2.4375 0.0625 C2.1075 0.7225 1.7775 1.3825 1.4375 2.0625 C0.7775 2.0625 0.1175 2.0625 -0.5625 2.0625 C-1.2225 3.3825 -1.8825 4.7025 -2.5625 6.0625 C-2.8925 6.0625 -3.2225 6.0625 -3.5625 6.0625 C-3.605221 4.39638095 -3.60313832 2.72867115 -3.5625 1.0625 C-2.5625 0.0625 -2.5625 0.0625 0 0 Z " fill="#F6F6F6" transform="translate(613.5625,376.9375)"/>
<path d="M0 0 C0.99 0.66 1.98 1.32 3 2 C1.02 2.99 1.02 2.99 -1 4 C-1 4.66 -1 5.32 -1 6 C-1.66 6 -2.32 6 -3 6 C-2.625 3.5625 -2.625 3.5625 -2 1 C-1.34 0.67 -0.68 0.34 0 0 Z " fill="#F7F7F7" transform="translate(471,198)"/>
<path d="M0 0 C0.99 0.66 1.98 1.32 3 2 C1.02 2.99 1.02 2.99 -1 4 C-1 4.66 -1 5.32 -1 6 C-1.66 6 -2.32 6 -3 6 C-2.625 3.5625 -2.625 3.5625 -2 1 C-1.34 0.67 -0.68 0.34 0 0 Z " fill="#F7F7F7" transform="translate(151,198)"/>
<path d="M0 0 C1.2065625 0.0309375 1.2065625 0.0309375 2.4375 0.0625 C2.1075 0.7225 1.7775 1.3825 1.4375 2.0625 C0.7775 2.0625 0.1175 2.0625 -0.5625 2.0625 C-1.2225 3.3825 -1.8825 4.7025 -2.5625 6.0625 C-2.8925 6.0625 -3.2225 6.0625 -3.5625 6.0625 C-3.605221 4.39638095 -3.60313832 2.72867115 -3.5625 1.0625 C-2.5625 0.0625 -2.5625 0.0625 0 0 Z " fill="#F6F6F6" transform="translate(613.5625,56.9375)"/>
<path d="M0 0 C1.2065625 0.0309375 1.2065625 0.0309375 2.4375 0.0625 C2.1075 0.7225 1.7775 1.3825 1.4375 2.0625 C0.7775 2.0625 0.1175 2.0625 -0.5625 2.0625 C-1.2225 3.3825 -1.8825 4.7025 -2.5625 6.0625 C-2.8925 6.0625 -3.2225 6.0625 -3.5625 6.0625 C-3.605221 4.39638095 -3.60313832 2.72867115 -3.5625 1.0625 C-2.5625 0.0625 -2.5625 0.0625 0 0 Z " fill="#F6F6F6" transform="translate(293.5625,56.9375)"/>
<path d="M0 0 C1.32 0 2.64 0 4 0 C3.1875 1.9375 3.1875 1.9375 2 4 C1.01 4.33 0.02 4.66 -1 5 C-0.67 3.35 -0.34 1.7 0 0 Z " fill="#F6F6F6" transform="translate(461,527)"/>
<path d="M0 0 C1.32 0 2.64 0 4 0 C3.1875 1.9375 3.1875 1.9375 2 4 C1.01 4.33 0.02 4.66 -1 5 C-0.67 3.35 -0.34 1.7 0 0 Z " fill="#F6F6F6" transform="translate(141,527)"/>
<path d="M0 0 C0.66 0 1.32 0 2 0 C1.8125 2.875 1.8125 2.875 1 6 C-1.5625 7.375 -1.5625 7.375 -4 8 C-4.33 7.34 -4.66 6.68 -5 6 C-4.175 5.566875 -3.35 5.13375 -2.5 4.6875 C-1.2625 3.8521875 -1.2625 3.8521875 0 3 C0 2.01 0 1.02 0 0 Z " fill="#111111" transform="translate(159,374)"/>
<path d="M0 0 C1.32 0 2.64 0 4 0 C3.1875 1.9375 3.1875 1.9375 2 4 C1.01 4.33 0.02 4.66 -1 5 C-0.67 3.35 -0.34 1.7 0 0 Z " fill="#F6F6F6" transform="translate(141,207)"/>
<path d="M0 0 C0.66 0.33 1.32 0.66 2 1 C0 4 0 4 -2.625 4.6875 C-3.800625 4.8421875 -3.800625 4.8421875 -5 5 C-5.33 4.34 -5.66 3.68 -6 3 C-4.03533587 1.93224776 -2.03144641 0.93446535 0 0 Z " fill="#DDDDDD" transform="translate(258,192)"/>
<path d="M0 0 C2.51083114 1.25541557 2.87125446 2.50063488 4 5 C1.36 4.34 -1.28 3.68 -4 3 C-2.68 2.01 -1.36 1.02 0 0 Z " fill="#E5E5E5" transform="translate(372,146)"/>
<path d="M0 0 C-2.63904371 1.41377341 -5.07120629 2.37240135 -8 3 C-8.33 2.01 -8.66 1.02 -9 0 C-5.67465243 -1.10844919 -3.37817425 -0.84454356 0 0 Z " fill="#FBFBFB" transform="translate(327,587)"/>
<path d="M0 0 C1 3 1 3 0 6 C-0.99 5.67 -1.98 5.34 -3 5 C-3.33 4.01 -3.66 3.02 -4 2 C-2.68 1.34 -1.36 0.68 0 0 Z " fill="#E8E8E8" transform="translate(411,473)"/>
<path d="M0 0 C0.99 0 1.98 0 3 0 C1.63016497 3.16115776 1.0109362 3.9927092 -2 6 C-1.125 1.125 -1.125 1.125 0 0 Z " fill="#010101" transform="translate(465,380)"/>
<path d="M0 0 C2.0625 0.4375 2.0625 0.4375 4 1 C2.71034824 2.37562854 1.37310707 3.70766393 0 5 C-0.66 5 -1.32 5 -2 5 C-1.125 1.125 -1.125 1.125 0 0 Z " fill="#020202" transform="translate(473,372)"/>
<path d="M0 0 C0 0.66 0 1.32 0 2 C-2.64 2 -5.28 2 -8 2 C-6.14210462 -1.71579076 -3.44525918 -1.06921837 0 0 Z " fill="#FDFDFD" transform="translate(436,332)"/>
<path d="M0 0 C0.99 0 1.98 0 3 0 C1.125 4.75 1.125 4.75 0 7 C-0.66 7 -1.32 7 -2 7 C-1.34 4.69 -0.68 2.38 0 0 Z " fill="#E8E8E8" transform="translate(163,230)"/>
<path d="M0 0 C1.98 0 3.96 0 6 0 C5.1875 1.9375 5.1875 1.9375 4 4 C3.01 4.33 2.02 4.66 1 5 C0.67 3.35 0.34 1.7 0 0 Z " fill="#EDEDED" transform="translate(201,181)"/>
<path d="M0 0 C1.67542976 0.28604898 3.34385343 0.61781233 5 1 C4.34 1.66 3.68 2.32 3 3 C2.01 3 1.02 3 0 3 C0.33 3.66 0.66 4.32 1 5 C0.01 5 -0.98 5 -2 5 C-1.125 1.125 -1.125 1.125 0 0 Z " fill="#F7F7F7" transform="translate(378,146)"/>
<path d="M0 0 C0.66 0.66 1.32 1.32 2 2 C1.625 4.125 1.625 4.125 1 6 C0.34 5.01 -0.32 4.02 -1 3 C-4.56769552 2.26393501 -4.56769552 2.26393501 -8 2 C-8 1.67 -8 1.34 -8 1 C-1.9453125 0.0234375 -1.9453125 0.0234375 0 0 Z " fill="#CECECE" transform="translate(325,48)"/>
</svg>
