<?xml version="1.0" encoding="UTF-8"?>
<svg version="1.1" xmlns="http://www.w3.org/2000/svg" width="1000" height="808">
<path d="M0 0 C1.90422729 0.01824829 1.90422729 0.01824829 3.84692383 0.03686523 C17.69984997 0.41342383 30.2584597 3.96041434 40.6875 13.6875 C40.6875 14.3475 40.6875 15.0075 40.6875 15.6875 C41.28691406 15.95304688 41.88632812 16.21859375 42.50390625 16.4921875 C51.2194827 21.26314706 56.37913116 33.19636558 59.68359375 42.01171875 C61.45054581 48.48137591 61.59322899 55.01139831 61.6875 61.6875 C62.5690979 61.88545166 62.5690979 61.88545166 63.46850586 62.08740234 C66.9369547 63.02539852 70.05448692 64.70199141 73.25 66.3125 C74.31637695 66.84883057 74.31637695 66.84883057 75.40429688 67.39599609 C97.45067726 78.65319258 116.0450977 94.86393997 130.6875 114.6875 C131.3203894 115.52958008 131.3203894 115.52958008 131.96606445 116.38867188 C136.84024917 123.00038305 140.20119152 130.27975778 143.6875 137.6875 C144.22761719 138.80640625 144.76773438 139.9253125 145.32421875 141.078125 C147.01535988 144.89539894 148.41565118 148.71338972 149.6875 152.6875 C149.96400391 153.54504883 150.24050781 154.40259766 150.52539062 155.28613281 C160.74750659 188.91758658 158.37173226 227.97314312 149.6875 261.6875 C149.32712646 263.15195557 149.32712646 263.15195557 148.95947266 264.64599609 C147.44155377 270.74452795 145.66217986 276.72225165 143.6875 282.6875 C143.21836182 284.11739258 143.21836182 284.11739258 142.73974609 285.57617188 C132.10238871 317.5448531 117.03492137 349.5175064 98.11328125 377.484375 C96.73622365 379.61221194 95.51255912 381.76845194 94.3125 384 C91.72091384 388.77485167 88.73139711 393.24044944 85.68359375 397.734375 C84.4046493 399.626512 83.14488056 401.5318397 81.91015625 403.453125 C81.38292969 404.27296875 80.85570312 405.0928125 80.3125 405.9375 C79.85101562 406.66453125 79.38953125 407.3915625 78.9140625 408.140625 C78.50929688 408.65109375 78.10453125 409.1615625 77.6875 409.6875 C77.0275 409.6875 76.3675 409.6875 75.6875 409.6875 C75.56995361 410.27813232 75.45240723 410.86876465 75.33129883 411.47729492 C74.65607181 413.79539509 73.83956844 415.13986838 72.38671875 417.05078125 C71.91032959 417.68258301 71.43394043 418.31438477 70.94311523 418.96533203 C70.42563721 419.63677246 69.90815918 420.30821289 69.375 421 C68.83883057 421.70495605 68.30266113 422.40991211 67.75024414 423.13623047 C63.14722245 429.15934046 58.42617906 435.08596105 53.66015625 440.98046875 C51.59345208 443.54214276 49.56483041 446.12898499 47.55859375 448.73828125 C47.05529541 449.39038574 46.55199707 450.04249023 46.03344727 450.71435547 C45.07184237 451.96340442 44.11507851 453.21619928 43.16381836 454.47314453 C42.0508509 455.91449083 40.87471639 457.30666947 39.6875 458.6875 C39.0275 458.6875 38.3675 458.6875 37.6875 458.6875 C38.22540053 454.06329057 40.2737757 450.78495042 42.8125 447 C43.21557373 446.38640625 43.61864746 445.7728125 44.03393555 445.140625 C47.01047082 440.63318254 50.07916994 436.19165249 53.203125 431.78515625 C55.08758012 429.12212362 56.89132781 426.4107288 58.6875 423.6875 C59.18378906 422.965625 59.68007813 422.24375 60.19140625 421.5 C60.72636719 420.71625 61.26132812 419.9325 61.8125 419.125 C62.55886719 418.04025391 62.55886719 418.04025391 63.3203125 416.93359375 C64.74711568 414.58955996 65.73882939 412.25794561 66.6875 409.6875 C67.3475 409.6875 68.0075 409.6875 68.6875 409.6875 C69.04714844 408.41519531 69.04714844 408.41519531 69.4140625 407.1171875 C70.82910469 403.30612296 72.8007226 400.15420036 75.0625 396.8125 C77.88033375 392.54517702 80.50403672 388.35704602 82.67578125 383.71875 C83.98772163 381.08473843 85.49343483 378.5900707 87 376.0625 C90.55551056 370.02569697 93.69496582 363.8330997 96.77392578 357.54248047 C97.70141882 355.65923833 98.64315695 353.78381722 99.58984375 351.91015625 C124.65729269 302.28135591 140.54481536 250.61329265 131.6875 194.6875 C131.58066895 193.97223145 131.47383789 193.25696289 131.36376953 192.52001953 C127.5618481 167.54220731 115.48554255 141.32705686 96.875 124 C95.6875 122.6875 95.6875 122.6875 95.6875 120.6875 C95.15125 120.460625 94.615 120.23375 94.0625 120 C90.86289839 118.23179911 88.39712777 116.15079797 85.6875 113.6875 C85.6875 113.0275 85.6875 112.3675 85.6875 111.6875 C84.96433594 111.43355469 84.24117187 111.17960937 83.49609375 110.91796875 C80.49674336 109.6039279 78.32288219 108.01786908 75.75 106 C65.40300763 98.09837109 65.40300763 98.09837109 53.3984375 94.83203125 C50.53475217 96.26387391 49.3714398 99.03401911 47.6875 101.6875 C45.4375 104.125 45.4375 104.125 42.6875 106.6875 C41.92759766 107.48994141 41.92759766 107.48994141 41.15234375 108.30859375 C29.2621501 120.04199364 13.77677257 121.97435644 -2.12719727 122.0065918 C-13.95433791 121.8677861 -23.2719891 119.03842557 -33.3125 112.6875 C-34.24449219 112.12482422 -34.24449219 112.12482422 -35.1953125 111.55078125 C-36.6124953 110.66421806 -37.97106679 109.68497598 -39.3125 108.6875 C-39.3125 108.0275 -39.3125 107.3675 -39.3125 106.6875 C-39.89257812 106.44773437 -40.47265625 106.20796875 -41.0703125 105.9609375 C-49.19842615 101.34462208 -53.67715929 90.87280535 -57.3125 82.6875 C-57.88871094 81.39779297 -57.88871094 81.39779297 -58.4765625 80.08203125 C-59.3125 77.6875 -59.3125 77.6875 -59.3125 73.6875 C-60.22386719 73.80867188 -61.13523437 73.92984375 -62.07421875 74.0546875 C-74.05262226 75.60413273 -74.05262226 75.60413273 -79.99609375 76.08984375 C-102.72979097 77.95172417 -125.12303357 82.31707782 -147.46240234 86.80761719 C-148.6942627 87.05286133 -149.92612305 87.29810547 -151.1953125 87.55078125 C-152.28215332 87.77032471 -153.36899414 87.98986816 -154.48876953 88.21606445 C-157.3125 88.6875 -157.3125 88.6875 -161.3125 88.6875 C-161.3125 89.3475 -161.3125 90.0075 -161.3125 90.6875 C-160.75046875 90.93113281 -160.1884375 91.17476563 -159.609375 91.42578125 C-156.87230215 92.92930936 -154.85454059 94.75449748 -152.5625 96.875 C-148.6868113 100.44017358 -144.75101248 103.89996881 -140.7109375 107.27734375 C-139.3125 108.6875 -139.3125 108.6875 -139.3125 110.6875 C-138.3534375 111.0896875 -138.3534375 111.0896875 -137.375 111.5 C-135.3125 112.6875 -135.3125 112.6875 -134.3125 115.6875 C-133.6525 116.0175 -132.9925 116.3475 -132.3125 116.6875 C-131.6525 117.0175 -130.9925 117.3475 -130.3125 117.6875 C-129.9825 118.6775 -129.6525 119.6675 -129.3125 120.6875 C-127.99429421 121.38360036 -126.65895452 122.04774813 -125.3125 122.6875 C-122.73411747 125.12149311 -120.56702755 127.95521793 -118.3125 130.6875 C-117.85697754 131.23212891 -117.40145508 131.77675781 -116.93212891 132.33789062 C-108.21852246 142.76597328 -100.10012587 153.55274932 -92.3125 164.6875 C-91.9009668 165.2757959 -91.48943359 165.8640918 -91.06542969 166.47021484 C-86.88380618 172.49096168 -83.1160936 178.61235232 -79.734375 185.1171875 C-78.30877946 187.78506363 -78.30877946 187.78506363 -76.37890625 190.54296875 C-74.12918006 193.96646513 -72.29930414 197.45228678 -70.5 201.125 C-70.15598145 201.82238281 -69.81196289 202.51976562 -69.45751953 203.23828125 C-68.40301507 205.38507215 -67.35681777 207.53573817 -66.3125 209.6875 C-65.99845215 210.32961426 -65.6844043 210.97172852 -65.36083984 211.63330078 C-60.74507267 221.10464735 -56.79397992 230.74124207 -53.3125 240.6875 C-52.78970459 242.17419189 -52.78970459 242.17419189 -52.25634766 243.69091797 C-47.07733822 258.52443283 -42.43645045 273.28310094 -39.3125 288.6875 C-38.98789795 290.25806152 -38.98789795 290.25806152 -38.65673828 291.86035156 C-27.24074188 348.03585421 -29.31279608 408.82535614 -46.3125 463.6875 C-46.63516846 464.73260742 -46.63516846 464.73260742 -46.96435547 465.79882812 C-48.32015418 470.12976357 -49.78624704 474.4139917 -51.3125 478.6875 C-51.53373535 479.3072168 -51.7549707 479.92693359 -51.98291016 480.56542969 C-60.97030728 505.55786737 -72.0048909 529.68126648 -86.9921875 551.69140625 C-88.11584132 553.39018466 -89.1329522 555.15865567 -90.125 556.9375 C-92.18881088 560.63479524 -94.55680426 564.12710363 -96.9375 567.625 C-97.53268433 568.51396973 -97.53268433 568.51396973 -98.13989258 569.42089844 C-99.14500084 570.88062227 -100.22339633 572.28932637 -101.3125 573.6875 C-101.9725 573.6875 -102.6325 573.6875 -103.3125 573.6875 C-103.52261719 574.36941406 -103.73273437 575.05132813 -103.94921875 575.75390625 C-105.751758 579.6327228 -108.29708425 582.44829657 -111.125 585.625 C-112.17354093 586.82129577 -113.22172149 588.01790751 -114.26953125 589.21484375 C-114.7795166 589.79089355 -115.28950195 590.36694336 -115.81494141 590.96044922 C-117.28027362 592.65033511 -118.67730297 594.38237705 -120.07421875 596.12890625 C-121.18216797 597.39541016 -121.18216797 597.39541016 -122.3125 598.6875 C-122.9725 598.6875 -123.6325 598.6875 -124.3125 598.6875 C-124.498125 599.38875 -124.68375 600.09 -124.875 600.8125 C-126.56411134 604.19072268 -128.48933817 605.68603012 -131.38671875 608.01953125 C-133.41373105 609.77517882 -135.08417168 611.63925538 -136.8125 613.6875 C-139.96859916 617.39217622 -143.30231931 620.89412876 -147.3125 623.6875 C-147.9725 623.6875 -148.6325 623.6875 -149.3125 623.6875 C-149.51230469 624.23148438 -149.71210937 624.77546875 -149.91796875 625.3359375 C-151.89043815 628.66206237 -154.68642808 630.87293086 -157.625 633.3125 C-158.47868164 634.04726562 -158.47868164 634.04726562 -159.34960938 634.796875 C-162.5207955 637.46198205 -165.30379463 639.40892606 -169.3125 640.6875 C-169.3125 641.3475 -169.3125 642.0075 -169.3125 642.6875 C-170.67859217 643.65255726 -172.05433384 644.605928 -173.46728516 645.50097656 C-175.43910912 646.76891311 -177.33234567 648.11652176 -179.23046875 649.4921875 C-186.10661042 654.44586354 -192.87371008 659.30159508 -200.42578125 663.1875 C-204.88069477 665.50236711 -209.21819528 668.0252488 -213.56860352 670.5300293 C-216.73854485 672.33182792 -219.83717466 673.93714304 -223.234375 675.26953125 C-224.25015625 675.73746094 -225.2659375 676.20539062 -226.3125 676.6875 C-226.6425 677.6775 -226.9725 678.6675 -227.3125 679.6875 C-229.140625 681.01171875 -229.140625 681.01171875 -231.5625 682.375 C-235.62425494 684.70589346 -239.60426647 687.12199938 -243.5625 689.625 C-249.23737854 693.13007204 -255.0059807 696.12476555 -260.99609375 699.05078125 C-263.87345764 700.47082303 -266.69122683 701.95018235 -269.5 703.5 C-281.62011143 710.17227218 -293.84317036 716.56660043 -306.37890625 722.42407227 C-311.56578655 724.84896035 -316.70215294 727.35541059 -321.8125 729.9375 C-329.57671602 733.8539883 -337.44389554 737.46414581 -345.44067383 740.88208008 C-348.00356167 741.98485391 -350.55570661 743.11148393 -353.10864258 744.23706055 C-362.39431162 748.32617282 -371.71472802 752.17183398 -381.28125 755.5625 C-384.75437075 756.85149327 -388.18583576 758.23138217 -391.62304688 759.61279297 C-396.00481385 761.3637496 -400.40649517 763.06113995 -404.8125 764.75 C-406.12154297 765.25756836 -406.12154297 765.25756836 -407.45703125 765.77539062 C-412.48291774 767.70011901 -417.51623577 769.40676003 -422.68261719 770.91235352 C-427.71171252 772.39465742 -432.69550501 774.02304562 -437.6875 775.625 C-438.73421875 775.95951172 -439.7809375 776.29402344 -440.859375 776.63867188 C-447.11469174 778.64269002 -453.35076415 780.69482999 -459.56982422 782.80883789 C-464.41875943 784.36227547 -469.36327024 785.50306895 -474.3125 786.6875 C-476.62542147 787.26915997 -478.93788172 787.8526555 -481.25 788.4375 C-483.38570719 788.97022816 -485.52208424 789.50018954 -487.65869141 790.02929688 C-489.60935155 790.51310366 -491.5594691 790.99909943 -493.50927734 791.48632812 C-509.36423899 795.43846411 -525.17288506 799.11067943 -541.3125 801.6875 C-542.35051758 801.8534668 -543.38853516 802.01943359 -544.45800781 802.19042969 C-547.82455362 802.72146518 -551.19285285 803.23902692 -554.5625 803.75 C-555.54750488 803.90041748 -556.53250977 804.05083496 -557.54736328 804.20581055 C-560.39609541 804.62423916 -563.24720249 805.01554394 -566.10189819 805.39096069 C-567.69638734 805.60485209 -569.28971439 805.82747011 -570.88223267 806.05557251 C-589.81348022 808.74000187 -608.53086229 809.28565829 -627.61279297 809.2537384 C-630.03101629 809.24995143 -632.44920634 809.25115887 -634.86743164 809.25256348 C-659.10979406 809.24242908 -682.59323935 808.11515878 -706.3125 802.6875 C-707.77903408 802.3617324 -709.24558746 802.03605171 -710.7121582 801.71044922 C-718.44771874 799.96686354 -726.04510544 798.04313181 -733.5 795.3125 C-734.33893799 795.01069824 -735.17787598 794.70889648 -736.04223633 794.39794922 C-753.15619868 788.16546039 -769.64329002 780.57598576 -784.3125 769.6875 C-786.8670396 767.93926051 -789.42579189 766.19750053 -791.98828125 764.4609375 C-794.68254651 762.40514518 -796.95364816 760.11949454 -799.3125 757.6875 C-800.1375 756.87410156 -800.9625 756.06070313 -801.8125 755.22265625 C-806.21729405 750.86603964 -810.49349782 746.56733612 -814.3125 741.6875 C-814.745625 741.15511719 -815.17875 740.62273438 -815.625 740.07421875 C-837.29624704 712.57293514 -845.34705942 679.09760366 -845 644.6875 C-844.99518616 643.5333963 -844.99037231 642.3792926 -844.9854126 641.19021606 C-844.87840395 622.35913331 -843.36071297 604.88066022 -838.3125 586.6875 C-838.04566406 585.69588867 -837.77882813 584.70427734 -837.50390625 583.68261719 C-836.12257159 578.6194415 -834.61923688 573.61422539 -832.95898438 568.63574219 C-832.39095246 566.92392395 -831.85676974 565.20095128 -831.328125 563.4765625 C-828.85774495 555.56701233 -825.57784117 548.00444984 -822.3125 540.3984375 C-820.9422633 537.20455244 -819.63673543 533.99296866 -818.3671875 530.7578125 C-816.26306311 525.46670946 -813.892729 520.32368826 -811.4375 515.1875 C-810.99841309 514.26622314 -810.55932617 513.34494629 -810.10693359 512.39575195 C-807.5407452 507.07008399 -804.89293887 501.88013765 -801.6640625 496.91796875 C-800.48323428 494.9692609 -799.47223803 493.03104217 -798.46875 490.98828125 C-796.22578814 486.44372145 -793.74275434 482.06252004 -791.1875 477.6875 C-790.52427734 476.52541016 -790.52427734 476.52541016 -789.84765625 475.33984375 C-789.42097656 474.60894531 -788.99429688 473.87804687 -788.5546875 473.125 C-788.1716748 472.46371094 -787.78866211 471.80242187 -787.39404297 471.12109375 C-787.03713379 470.64800781 -786.68022461 470.17492187 -786.3125 469.6875 C-785.6525 469.6875 -784.9925 469.6875 -784.3125 469.6875 C-784.21195313 468.95789063 -784.11140625 468.22828125 -784.0078125 467.4765625 C-783.23109346 464.36095916 -782.09961586 462.62627866 -780.1875 460.0625 C-777.73393946 456.69070554 -775.424446 453.30768136 -773.25 449.75 C-760.49870313 429.50300835 -744.87593466 410.71446046 -729.39648438 392.5234375 C-726.50369057 389.11825204 -723.67442762 385.67033219 -720.875 382.1875 C-716.90733223 377.30145706 -712.69820448 372.68132201 -708.38500977 368.1015625 C-706.32374244 365.90652662 -704.35634423 363.74790981 -702.5859375 361.30859375 C-701.95558594 360.50615234 -701.95558594 360.50615234 -701.3125 359.6875 C-700.6525 359.6875 -699.9925 359.6875 -699.3125 359.6875 C-699.044375 359.048125 -698.77625 358.40875 -698.5 357.75 C-697.3125 355.6875 -697.3125 355.6875 -694.3125 354.6875 C-693.60855388 353.37346724 -692.94904342 352.0354743 -692.3125 350.6875 C-689.59413734 347.0317709 -686.56993196 343.8654824 -683.3125 340.6875 C-682.590625 339.945 -681.86875 339.2025 -681.125 338.4375 C-678.72036664 336.08630294 -676.26540097 333.85510789 -673.75 331.625 C-669.04642184 327.43775448 -664.61073088 323.03500293 -660.24780273 318.49780273 C-658.97208176 317.19150013 -657.64613621 315.93461867 -656.3125 314.6875 C-655.6525 314.6875 -654.9925 314.6875 -654.3125 314.6875 C-654.05082031 314.089375 -653.78914062 313.49125 -653.51953125 312.875 C-652.23222747 310.54202228 -651.04702539 309.37070717 -649 307.6875 C-645.22526444 304.5008573 -641.60568607 301.18644865 -638 297.8125 C-633.2340933 293.3790507 -628.34378894 289.18136349 -623.265625 285.10546875 C-619.67358075 282.16436374 -616.18250695 279.11765177 -612.6875 276.0625 C-597.33581335 262.6875 -597.33581335 262.6875 -594.3125 262.6875 C-594.3125 262.0275 -594.3125 261.3675 -594.3125 260.6875 C-593.01953125 259.53125 -593.01953125 259.53125 -591.125 258.1875 C-587.38765697 255.47842066 -583.71212091 252.70067003 -580.0625 249.875 C-574.83186716 245.84030827 -569.56659664 241.8548471 -564.2734375 237.90234375 C-562.29447161 236.42203549 -560.32051629 234.93500576 -558.3515625 233.44140625 C-553.02738952 229.40984745 -547.65610646 225.45781554 -542.1875 221.625 C-541.11242187 220.87089844 -540.03734375 220.11679688 -538.9296875 219.33984375 C-536.3125 217.6875 -536.3125 217.6875 -534.3125 217.6875 C-534.3125 217.0275 -534.3125 216.3675 -534.3125 215.6875 C-532.68075154 214.63148166 -531.00351917 213.6457442 -529.3125 212.6875 C-527.01274817 211.17742199 -524.72179667 209.65802883 -522.4375 208.125 C-521.45511353 207.46854492 -521.45511353 207.46854492 -520.45288086 206.79882812 C-517.1507611 204.59188971 -513.85293407 202.3786872 -510.55859375 200.16015625 C-502.81483635 194.95594101 -494.98066644 189.927583 -487.05078125 185.01171875 C-482.95226007 182.47086499 -478.89210356 179.87174995 -474.83984375 177.2578125 C-472.40646983 175.7458862 -469.93530633 174.31803702 -467.44311523 172.90576172 C-464.83685517 171.41553166 -462.24870969 169.8957778 -459.66015625 168.375 C-458.63599609 167.77429688 -457.61183594 167.17359375 -456.55664062 166.5546875 C-454.43845174 165.31160059 -452.32126011 164.0668128 -450.20507812 162.8203125 C-445.2394557 159.91147523 -440.28156946 157.09691769 -435.10546875 154.58105469 C-432.0985348 153.08250101 -429.21342918 151.37964076 -426.3125 149.6875 C-412.40187044 141.68214725 -398.22009929 134.47355207 -383.67700195 127.69165039 C-378.76431592 125.39380836 -373.90405455 123.0063323 -369.0625 120.5625 C-359.94415535 115.96365354 -350.70372503 111.70361783 -341.3125 107.6875 C-340.0344205 107.12797971 -338.75709268 106.5667397 -337.48046875 106.00390625 C-330.98842778 103.14178895 -324.50269295 100.28940388 -317.89453125 97.703125 C-315.94819046 96.93754466 -314.00928932 96.1530107 -312.07421875 95.359375 C-302.33043771 91.38232151 -292.45269564 87.88425827 -282.50634766 84.44970703 C-277.20057059 82.60632443 -271.92931287 80.66542268 -266.66796875 78.69921875 C-259.62416317 76.08928221 -252.507447 73.84225615 -245.3125 71.6875 C-243.75384706 71.21764422 -242.19525728 70.74757889 -240.63671875 70.27734375 C-236.36893358 68.99123025 -232.09848495 67.71420454 -227.82714844 66.43994141 C-225.41710095 65.71879904 -223.00918301 64.99091576 -220.6015625 64.26171875 C-213.9607067 62.26273361 -207.38237796 60.37171047 -200.546875 59.14453125 C-198.17522416 58.65942085 -195.93102924 57.98476422 -193.625 57.25 C-188.09351362 55.51977203 -182.46399426 54.4660869 -176.78125 53.375 C-174.2120069 52.86578065 -171.71186873 52.30957457 -169.1875 51.625 C-164.83400421 50.57173489 -160.49283846 49.92205324 -156.06323242 49.27636719 C-152.38871495 48.69946579 -148.75444953 48.00883649 -145.10546875 47.2890625 C-135.65995988 45.48551292 -126.16769884 44.17034765 -116.625 43 C-115.73016907 42.88911041 -114.83533813 42.77822083 -113.91339111 42.66397095 C-95.01726782 40.37182775 -76.3184227 40.13510107 -57.3125 40.6875 C-56.84408691 39.51054565 -56.84408691 39.51054565 -56.36621094 38.30981445 C-52.96093959 29.8352965 -48.33551487 21.70722703 -41.3125 15.6875 C-40.6525 15.6875 -39.9925 15.6875 -39.3125 15.6875 C-39.07144531 15.08808594 -38.83039062 14.48867187 -38.58203125 13.87109375 C-31.90308392 2.38330434 -11.75037089 -0.18686131 0 0 Z M-188 96.25 C-189.69962891 96.806875 -189.69962891 96.806875 -191.43359375 97.375 C-192.72659222 97.81241217 -194.01955893 98.24991819 -195.3125 98.6875 C-196.82388171 99.18851787 -198.33561614 99.68847266 -199.84765625 100.1875 C-203.60764038 101.43151827 -207.36322345 102.68814513 -211.1171875 103.95019531 C-215.93735932 105.56906975 -220.75964988 107.18097508 -225.59375 108.7578125 C-246.34164982 115.55627482 -267.01582773 122.92986009 -287.15649414 131.3671875 C-290.16918104 132.62754263 -293.18698982 133.87457548 -296.20703125 135.1171875 C-306.17737701 139.23136665 -316.08135935 143.4018359 -325.81640625 148.046875 C-329.59583612 149.8204622 -333.41466912 151.4773241 -337.25 153.125 C-344.75592837 156.36834732 -352.04709306 159.97202427 -359.33007812 163.68457031 C-361.27051173 164.66625766 -363.21897844 165.62931558 -365.171875 166.5859375 C-373.68636006 170.76708129 -382.02681568 175.21060749 -390.31152344 179.83129883 C-394.68225163 182.26534229 -399.0792715 184.59014159 -403.56591797 186.80273438 C-405.82403359 187.94662744 -407.97415164 189.22904935 -410.125 190.5625 C-413.55362786 192.65516328 -417.01370043 194.61877144 -420.5625 196.5 C-425.63964296 199.23329145 -430.46397307 202.27517887 -435.27832031 205.44067383 C-438.6190637 207.63163659 -442.01135173 209.67114791 -445.49072266 211.63330078 C-448.85634615 213.5808701 -452.1126984 215.69782882 -455.375 217.8125 C-456.11016846 218.28824463 -456.84533691 218.76398926 -457.6027832 219.25415039 C-463.61077094 223.17116406 -469.46262585 227.27776295 -475.26171875 231.49609375 C-478.23554679 233.63222375 -481.26559823 235.65753592 -484.3125 237.6875 C-486.65853852 239.33655415 -488.98591856 241.01114219 -491.3125 242.6875 C-492.49931 243.54262511 -493.6868039 244.39680192 -494.875 245.25 C-495.44476563 245.65992188 -496.01453125 246.06984375 -496.6015625 246.4921875 C-498.28894421 247.67104322 -500.01165297 248.77323076 -501.75 249.875 C-502.595625 250.473125 -503.44125 251.07125 -504.3125 251.6875 C-504.3125 252.3475 -504.3125 253.0075 -504.3125 253.6875 C-505.03050781 253.93242187 -505.74851562 254.17734375 -506.48828125 254.4296875 C-509.65949544 255.84204015 -511.85447845 257.56947287 -514.5 259.8125 C-515.46550781 260.62203125 -516.43101562 261.4315625 -517.42578125 262.265625 C-518.37839844 263.06484375 -519.33101562 263.8640625 -520.3125 264.6875 C-521.93344292 265.98425434 -523.55829286 267.27614396 -525.1875 268.5625 C-529.66889953 272.13483592 -534.04273066 275.82242556 -538.40771484 279.53491211 C-544.51084863 284.72013891 -550.68346288 289.82162804 -556.96875 294.78515625 C-559.41426814 296.70310261 -559.41426814 296.70310261 -561.8125 299.1875 C-564.3125 301.6875 -564.3125 301.6875 -566.6875 303.5 C-568.97482698 305.40610581 -570.71053315 307.24257877 -572.625 309.5 C-575.60000854 312.98372212 -578.77832525 315.93828771 -582.265625 318.8984375 C-585.79268247 321.98124727 -589.0302743 325.3488059 -592.3125 328.6875 C-593.22 329.574375 -594.1275 330.46125 -595.0625 331.375 C-597.33350052 333.61690025 -597.33350052 333.61690025 -599.125 336.0625 C-601.04845602 338.37064723 -602.8975494 340.08374153 -605.1875 342 C-608.62528348 344.92753733 -611.24162891 347.98006838 -613.79296875 351.6953125 C-615.75301927 354.26504455 -618.01068622 356.41899756 -620.3125 358.6875 C-622.33493615 360.81271401 -624.32431399 362.96776771 -626.3125 365.125 C-626.82039063 365.67220703 -627.32828125 366.21941406 -627.8515625 366.78320312 C-634.1049633 372.60818636 -634.1049633 372.60818636 -637.3125 379.6875 C-637.9725 379.6875 -638.6325 379.6875 -639.3125 379.6875 C-640.71123124 381.19173899 -642.03045269 382.77015149 -643.3125 384.375 C-644.11429688 385.37660156 -644.91609375 386.37820313 -645.7421875 387.41015625 C-649.19431423 391.79596836 -652.60222141 396.21539255 -655.98828125 400.65234375 C-657.84604176 403.07836042 -659.72719447 405.48048487 -661.625 407.875 C-666.91190592 414.65630451 -671.87070691 421.68950313 -676.875 428.68017578 C-677.9965424 430.24629697 -679.12242446 431.80931069 -680.25 433.37109375 C-699.81894387 460.81653753 -717.90563618 490.73557354 -728.90625 522.69921875 C-729.95024512 525.71047474 -731.10487686 528.6381439 -732.375 531.5625 C-735.52670149 539.336697 -737.44850221 547.52690485 -739.3125 555.6875 C-739.48201172 556.42097656 -739.65152344 557.15445312 -739.82617188 557.91015625 C-745.04310661 581.76518561 -744.80462612 610.1728805 -738.3125 633.6875 C-738.13058105 634.39519531 -737.94866211 635.10289062 -737.76123047 635.83203125 C-728.73158272 670.62724225 -704.59431335 698.39368141 -674.3125 716.6875 C-673.26835938 717.326875 -672.22421875 717.96625 -671.1484375 718.625 C-659.1993634 725.78826923 -646.769521 730.39431337 -633.6394043 734.87207031 C-631.47287381 735.63129934 -629.33497597 736.44208501 -627.1953125 737.2734375 C-623.31836353 738.7405482 -619.41385028 739.77084407 -615.375 740.6875 C-614.27430176 740.94067993 -614.27430176 740.94067993 -613.15136719 741.19897461 C-606.80498004 742.62982352 -600.43497711 743.87342729 -594.01367188 744.91723633 C-591.70079476 745.2932108 -589.389761 745.67392527 -587.0818634 746.079422 C-572.79710213 748.58062442 -558.81418851 749.12588312 -544.32836914 749.02368164 C-540.75058467 749.00000387 -537.17354683 749.00316038 -533.59570312 749.00976562 C-520.03997583 748.99368875 -506.76275289 748.34881785 -493.3125 746.6875 C-491.88955814 746.52267357 -490.46646496 746.35914744 -489.04321289 746.19702148 C-485.06732799 745.73921582 -481.0959551 745.24890852 -477.125 744.75 C-476.09756683 744.62168793 -476.09756683 744.62168793 -475.04937744 744.49078369 C-466.07634295 743.36580235 -457.1521166 742.1254117 -448.2734375 740.3984375 C-444.79678952 739.73617359 -441.30289459 739.26214023 -437.796875 738.78125 C-430.20611566 737.71381519 -422.70568963 736.30018997 -415.1875 734.8125 C-413.81139978 734.54203728 -412.43525989 734.27177636 -411.05908203 734.00170898 C-408.35542445 733.47060562 -405.65220292 732.93735092 -402.94921875 732.40283203 C-399.92640328 731.80825299 -396.90193913 731.22543334 -393.875 730.65234375 C-379.23265782 727.85294064 -364.78177635 724.26197808 -350.3125 720.6875 C-348.68489989 720.2877439 -347.05729634 719.8880018 -345.4296875 719.48828125 C-341.71915894 718.57333243 -338.01558094 717.63216351 -334.3125 716.6875 C-333.17554688 716.40777344 -332.03859375 716.12804687 -330.8671875 715.83984375 C-318.80739184 712.77851101 -307.08091382 708.70534087 -295.3125 704.6875 C-295.3125 704.3575 -295.3125 704.0275 -295.3125 703.6875 C-299.91143517 704.1297053 -304.20368582 704.87204761 -308.66870117 706.06518555 C-332.56218617 712.11085906 -356.69199231 713.58326661 -381.22521591 713.39126968 C-383.54311683 713.37469162 -385.86091224 713.36719028 -388.17886353 713.36141968 C-411.64962935 713.28328622 -434.37673809 712.009377 -457.3125 706.6875 C-458.34487793 706.46368652 -459.37725586 706.23987305 -460.44091797 706.00927734 C-466.13271878 704.77361481 -471.72386472 703.32292922 -477.3125 701.6875 C-478.13266602 701.45562988 -478.95283203 701.22375977 -479.79785156 700.98486328 C-491.19457011 697.76217955 -502.29228099 694.01864463 -513.3125 689.6875 C-514.65828125 689.18283203 -514.65828125 689.18283203 -516.03125 688.66796875 C-522.70986872 686.12011908 -529.03522837 682.90451392 -535.39453125 679.65820312 C-537.37049138 678.65814999 -539.35537039 677.67823247 -541.34375 676.703125 C-549.53923325 672.67528401 -557.47087328 668.37793205 -565.3125 663.6875 C-566.47726653 663.03824601 -567.6436555 662.39188343 -568.8125 661.75 C-573.11845351 659.30295813 -577.18881044 656.48583032 -581.29296875 653.71875 C-583.20290422 652.43392924 -585.12123112 651.16142098 -587.05078125 649.90625 C-587.85902344 649.3803125 -588.66726563 648.854375 -589.5 648.3125 C-590.21542969 647.85101562 -590.93085937 647.38953125 -591.66796875 646.9140625 C-593.3125 645.6875 -593.3125 645.6875 -594.3125 643.6875 C-595.33150391 643.08615234 -595.33150391 643.08615234 -596.37109375 642.47265625 C-601.13001035 639.58444259 -605.24969365 635.89770311 -609.51757812 632.33789062 C-610.5472168 631.48807617 -610.5472168 631.48807617 -611.59765625 630.62109375 C-612.52396851 629.8485022 -612.52396851 629.8485022 -613.46899414 629.06030273 C-615.33813188 627.66841272 -617.20066293 626.66306898 -619.3125 625.6875 C-619.3125 625.0275 -619.3125 624.3675 -619.3125 623.6875 C-620.92757363 622.01467819 -620.92757363 622.01467819 -623 620.3125 C-623.73476563 619.6834375 -624.46953125 619.054375 -625.2265625 618.40625 C-626.73809405 617.16079329 -628.29439654 615.96903912 -629.875 614.8125 C-632.19864072 612.78676193 -633.78507813 610.83237312 -635.625 608.375 C-637.95619646 605.27682982 -640.26400681 602.720763 -643.25 600.25 C-647.9986208 596.26552507 -651.54976852 591.58640262 -655.3125 586.6875 C-656.19950922 585.57497428 -657.08895787 584.46439038 -657.98046875 583.35546875 C-658.92454007 582.17452785 -659.86855088 580.99353858 -660.8125 579.8125 C-661.23893799 579.28454834 -661.66537598 578.75659668 -662.10473633 578.21264648 C-665.10957408 574.4209482 -667.81994489 570.47697791 -670.49414062 566.44482422 C-671.21041626 565.36611053 -671.92669189 564.28739685 -672.66467285 563.17599487 C-673.20845581 562.35479156 -673.75223877 561.53358826 -674.3125 560.6875 C-663.46411034 560.52520473 -652.61601012 560.40087771 -641.76665306 560.3248148 C-636.7286016 560.2883051 -631.69138154 560.23879671 -626.65380859 560.15942383 C-621.79080684 560.08328233 -616.92860393 560.04149268 -612.06505203 560.0233593 C-610.21101938 560.01043968 -608.35702976 559.98520934 -606.50333786 559.9473896 C-603.90279977 559.8964497 -601.30554776 559.88958069 -598.70458984 559.89282227 C-597.55875427 559.85507187 -597.55875427 559.85507187 -596.38977051 559.81655884 C-593.02356265 559.86185977 -591.08810415 559.98582804 -588.53087234 562.29929924 C-586.91299438 564.23716736 -586.91299438 564.23716736 -585.52527809 566.18418789 C-585.12506132 566.68028089 -584.72484455 567.17637388 -584.3125 567.6875 C-583.6525 567.6875 -582.9925 567.6875 -582.3125 567.6875 C-582.3125 568.3475 -582.3125 569.0075 -582.3125 569.6875 C-578.83251493 573.32383539 -578.83251493 573.32383539 -574.3125 574.6875 C-573.9825 575.6775 -573.6525 576.6675 -573.3125 577.6875 C-571.17689923 579.45855601 -569.04957454 581.11850296 -566.8125 582.75 C-560.43561083 587.44127834 -560.43561083 587.44127834 -559.3125 589.6875 C-557.66524892 590.71916936 -555.99502376 591.71441646 -554.3125 592.6875 C-552.67697014 593.79713601 -551.05203155 594.92252725 -549.4375 596.0625 C-548.56738281 596.67480469 -547.69726562 597.28710938 -546.80078125 597.91796875 C-544.73134424 599.38964059 -542.67680491 600.87898875 -540.625 602.375 C-537.9236016 604.30995513 -535.13484549 605.99896436 -532.22265625 607.60546875 C-530.87811569 608.36710011 -529.55383789 609.16506991 -528.24609375 609.98828125 C-520.92521614 614.58395907 -513.20529155 618.14985981 -505.36083984 621.74121094 C-503.5403994 622.58221537 -501.73212156 623.44943562 -499.92578125 624.3203125 C-485.95949791 631.01431531 -471.21005548 635.56660158 -456.3125 639.6875 C-455.6436377 639.87586426 -454.97477539 640.06422852 -454.28564453 640.25830078 C-444.0329437 643.11864666 -433.90445158 644.69122733 -423.3125 645.6875 C-426.76713749 641.98735527 -430.63529128 639.0627023 -434.6875 636.0625 C-435.7401001 635.27842773 -435.7401001 635.27842773 -436.81396484 634.47851562 C-448.5504311 625.74624956 -448.5504311 625.74624956 -460.6484375 617.53125 C-463.3125 615.6875 -463.3125 615.6875 -464.3125 613.6875 C-465.96782623 612.66883771 -467.63510138 611.66939187 -469.3125 610.6875 C-469.9725 610.0275 -470.6325 609.3675 -471.3125 608.6875 C-472.3025 608.6875 -473.2925 608.6875 -474.3125 608.6875 C-474.3125 608.0275 -474.3125 607.3675 -474.3125 606.6875 C-476.15310415 605.17557209 -476.15310415 605.17557209 -478.5625 603.625 C-482.53520028 600.9242362 -486.41699741 598.1460464 -490.25 595.25 C-496.33102681 590.67047546 -496.33102681 590.67047546 -502.4375 586.125 C-503.32695312 585.46371094 -504.21640625 584.80242187 -505.1328125 584.12109375 C-507.15618399 582.50433117 -507.15618399 582.50433117 -509.3125 582.6875 C-509.3125 582.0275 -509.3125 581.3675 -509.3125 580.6875 C-511.09483868 579.32633039 -512.94301283 578.05126213 -514.8125 576.8125 C-520.98394473 572.66638598 -526.93428807 568.27528221 -532.84179688 563.76220703 C-535.54304929 561.71042492 -538.17934512 559.76716851 -541.09375 558.0234375 C-543.22147777 556.74230564 -544.5944227 555.45479305 -546.3125 553.6875 C-547.95982374 552.4325287 -549.62915946 551.20623094 -551.3125 550 C-552.29863281 549.28972656 -553.28476562 548.57945312 -554.30078125 547.84765625 C-555.29464844 547.13480469 -556.28851562 546.42195313 -557.3125 545.6875 C-564.5775147 540.44841144 -571.76830755 535.1177167 -578.91870117 529.72363281 C-579.90253784 528.98258301 -579.90253784 528.98258301 -580.90625 528.2265625 C-581.78313477 527.56454834 -581.78313477 527.56454834 -582.67773438 526.88916016 C-584.19066696 525.77705529 -585.7501625 524.72905834 -587.3125 523.6875 C-587.6425 522.6975 -587.9725 521.7075 -588.3125 520.6875 C-574.53402957 520.51672035 -560.75699679 520.41640555 -546.9774189 520.40509319 C-540.57816987 520.39764577 -534.180931 520.36628231 -527.78222656 520.27954102 C-521.6023123 520.19665746 -515.42513639 520.17754013 -509.24474716 520.20191383 C-506.89162392 520.20012711 -504.53840134 520.17568019 -502.18576431 520.12781334 C-482.76802926 519.75586662 -482.76802926 519.75586662 -477.69569397 524.53144836 C-475.0235536 527.66345775 -473.18448203 531.03304457 -471.3125 534.6875 C-470.27524544 536.13398514 -469.21430981 537.56466356 -468.10546875 538.95703125 C-467.6470459 539.57143066 -467.18862305 540.18583008 -466.71630859 540.81884766 C-465.15614887 542.89562374 -463.57445909 544.95475129 -461.98828125 547.01171875 C-461.43462891 547.73037109 -460.88097656 548.44902344 -460.31054688 549.18945312 C-459.17681055 550.65950058 -458.04136294 552.12822967 -456.90429688 553.59570312 C-454.61142439 556.57670616 -452.44714674 559.45773856 -450.54296875 562.70703125 C-449.93388672 563.68736328 -449.93388672 563.68736328 -449.3125 564.6875 C-448.6525 564.6875 -447.9925 564.6875 -447.3125 564.6875 C-447.0546875 565.24566406 -446.796875 565.80382812 -446.53125 566.37890625 C-441.84165485 575.26208168 -434.74094458 583.09470916 -428.59472656 591.03027344 C-426.49455542 593.74466067 -424.40391439 596.46636393 -422.3125 599.1875 C-419.76733607 602.49741508 -417.2211567 605.80653625 -414.671875 609.11328125 C-410.72793465 614.23101337 -406.7980656 619.35698292 -402.93359375 624.53515625 C-396.81813882 632.65471207 -390.56589919 640.67403813 -384.3125 648.6875 C-378.48577274 643.40702842 -374.22839862 636.87818847 -369.7578125 630.453125 C-366.49265873 625.77757937 -366.49265873 625.77757937 -364.3125 624.6875 C-363.30449883 623.02566023 -362.30644507 621.3577847 -361.3125 619.6875 C-359.19134598 616.81325272 -356.9486205 614.03210302 -354.72070312 611.24023438 C-352.15097854 608.31564805 -352.15097854 608.31564805 -351.3125 604.6875 C-350.6525 604.6875 -349.9925 604.6875 -349.3125 604.6875 C-349.044375 604.089375 -348.77625 603.49125 -348.5 602.875 C-347.3125 600.6875 -347.3125 600.6875 -346.01953125 599.421875 C-343.68481445 597.04975999 -341.79443639 594.42231089 -339.8125 591.75 C-338.65234375 590.18958984 -338.65234375 590.18958984 -337.46875 588.59765625 C-336.7571875 587.63730469 -336.045625 586.67695312 -335.3125 585.6875 C-334.7246875 584.94371094 -334.136875 584.19992187 -333.53125 583.43359375 C-332.12171542 581.76905855 -332.12171542 581.76905855 -332.3125 579.6875 C-331.6525 579.6875 -330.9925 579.6875 -330.3125 579.6875 C-329.33369824 578.28800375 -328.3640428 576.88091642 -327.44970703 575.43847656 C-325.55322484 572.51843141 -323.38878572 569.80732845 -321.25 567.0625 C-319.60305467 564.93835654 -317.9575286 562.81312961 -316.3125 560.6875 C-315.71566406 559.93726563 -315.11882812 559.18703125 -314.50390625 558.4140625 C-313.12318316 556.76276726 -313.12318316 556.76276726 -313.3125 554.6875 C-312.6525 554.6875 -311.9925 554.6875 -311.3125 554.6875 C-309.6714968 552.55149583 -308.13731603 550.41200809 -306.625 548.1875 C-303.19113264 543.22920555 -299.6851129 538.59544566 -295.4921875 534.23828125 C-294.00978049 532.61430128 -294.00978049 532.61430128 -294.3125 529.6875 C-293.6525 529.6875 -292.9925 529.6875 -292.3125 529.6875 C-290.9518991 528.20113242 -290.9518991 528.20113242 -289.6875 526.3125 C-289.24148438 525.68601562 -288.79546875 525.05953125 -288.3359375 524.4140625 C-287.14253031 522.73527357 -287.14253031 522.73527357 -287.3125 520.6875 C-251.6725 520.6875 -216.0325 520.6875 -179.3125 520.6875 C-180.64934345 524.69803036 -183.27232713 526.0316952 -186.625 528.3125 C-187.91235697 529.20834542 -189.19880068 530.10550452 -190.484375 531.00390625 C-191.13083984 531.4539502 -191.77730469 531.90399414 -192.44335938 532.36767578 C-195.1339615 534.26754452 -197.75369565 536.25598639 -200.375 538.25 C-203.51996027 540.63524652 -206.68412614 542.96282978 -209.94921875 545.1796875 C-210.5517749 545.58888428 -211.15433105 545.99808105 -211.77514648 546.41967773 C-213.47575878 547.56650507 -215.18302459 548.70344771 -216.890625 549.83984375 C-218.08945313 550.75443359 -218.08945313 550.75443359 -219.3125 551.6875 C-219.3125 552.3475 -219.3125 553.0075 -219.3125 553.6875 C-220.01117187 553.92210937 -220.70984375 554.15671875 -221.4296875 554.3984375 C-224.83547171 555.92134914 -227.54912368 557.99780059 -230.4375 560.3125 C-231.59283711 561.21991351 -232.74910164 562.12614736 -233.90625 563.03125 C-234.47988281 563.48113281 -235.05351563 563.93101562 -235.64453125 564.39453125 C-239.78402412 567.6033653 -244.06203735 570.6284079 -248.3125 573.6875 C-255.04454988 578.5543932 -261.72190491 583.48534703 -268.359375 588.48046875 C-271.07699015 590.51149066 -273.81323456 592.51213293 -276.5625 594.5 C-282.56733191 598.84892761 -288.49250763 603.30177619 -294.41796875 607.7578125 C-295.05492676 608.23677979 -295.69188477 608.71574707 -296.34814453 609.20922852 C-297.70401431 610.2295854 -299.05911017 611.25097119 -300.41357422 612.27319336 C-303.9211543 614.9151443 -307.44097746 617.51501911 -311.0625 620 C-316.92700137 624.07808403 -322.61488787 628.38089111 -328.3125 632.6875 C-329.79122099 633.79226345 -331.27032552 634.89651394 -332.75 636 C-334.92391922 637.62367411 -337.02698367 639.27496435 -339.125 641 C-341.3125 642.6875 -341.3125 642.6875 -344.3125 643.6875 C-344.3125 644.3475 -344.3125 645.0075 -344.3125 645.6875 C-315.25999664 643.70480827 -286.40959054 633.165602 -260.3125 620.6875 C-259.59723145 620.35105469 -258.88196289 620.01460937 -258.14501953 619.66796875 C-240.36423072 611.28088303 -223.69500881 600.49939704 -208.32421875 588.25390625 C-206.34647556 586.71395476 -204.317824 585.29069587 -202.25 583.875 C-201.280625 583.153125 -200.31125 582.43125 -199.3125 581.6875 C-199.3125 581.0275 -199.3125 580.3675 -199.3125 579.6875 C-198.77625 579.460625 -198.24 579.23375 -197.6875 579 C-192.51272051 576.14025344 -188.40956565 571.88961862 -184.3125 567.6875 C-177.79862798 561.17362798 -174.51736593 560.79909368 -165.21914673 560.63186646 C-161.77715518 560.64138622 -158.33627045 560.68044314 -154.89453125 560.72265625 C-152.31576019 560.72868062 -149.73698116 560.73185093 -147.15820312 560.73242188 C-143.12816677 560.73414548 -139.10093687 560.74499402 -135.0715332 560.81420898 C-131.15782181 560.88012348 -127.24628739 560.86537351 -123.33203125 560.84765625 C-121.53026176 560.89697044 -121.53026176 560.89697044 -119.6920929 560.94728088 C-113.23556277 560.90969214 -113.23556277 560.90969214 -108.02023315 557.48884583 C-106.23186838 554.95797633 -104.7384629 552.43546313 -103.3125 549.6875 C-102.33796875 548.20443359 -102.33796875 548.20443359 -101.34375 546.69140625 C-100.24862764 544.94535657 -99.15358449 543.19925722 -98.05859375 541.453125 C-96.92563773 539.65864432 -95.77298912 537.87639025 -94.59765625 536.109375 C-89.844959 528.91027803 -86.04137409 521.39560713 -82.28125 513.65136719 C-81.39258383 511.84984735 -80.46379693 510.06826387 -79.53125 508.2890625 C-65.93415301 482.26916326 -56.62716359 452.39941356 -51.9296875 423.44921875 C-51.43660247 420.44389671 -50.86609956 417.48097405 -50.25 414.5 C-47.22948385 397.56716254 -46.94030277 380.27462168 -47 363.125 C-47.00173721 361.56632706 -47.00173721 361.56632706 -47.00350952 359.97616577 C-47.04807867 339.66762084 -47.79545669 319.66217143 -52.58178711 299.83837891 C-53.26044282 296.91197374 -53.81925904 293.99511664 -54.328125 291.03515625 C-55.27671632 285.64126301 -56.59795698 280.39984528 -58.0625 275.125 C-58.32562988 274.17318848 -58.58875977 273.22137695 -58.85986328 272.24072266 C-66.39231416 245.37243897 -76.29511261 217.99946435 -91.5234375 194.4765625 C-93.21016808 191.84703055 -94.76485191 189.16454646 -96.30322266 186.44628906 C-108.44954917 165.27983135 -124.30227527 145.37368913 -141.703125 128.33203125 C-143.31700865 126.68289286 -144.78218549 124.9670278 -146.25 123.1875 C-150.47965366 118.15703192 -155.58158713 114.1174005 -160.625 109.9375 C-163.3125 107.6875 -163.3125 107.6875 -164.64453125 106.3359375 C-166.89073824 104.1160327 -169.27078323 102.09519055 -171.6875 100.0625 C-172.62335937 99.26585938 -173.55921875 98.46921875 -174.5234375 97.6484375 C-179.40248946 94.21806764 -182.4652537 94.40508457 -188 96.25 Z " fill="#2E6AFE" transform="translate(844.3125,-0.6875)"/>
<path d="M0 0 C1.00857056 -0.0033284 2.01714111 -0.0066568 3.05627441 -0.01008606 C5.18074085 -0.01511903 7.3052151 -0.01749552 9.4296875 -0.01733398 C12.61993031 -0.01950652 15.80981877 -0.03766319 19 -0.05664062 C31.19533031 -0.08898427 43.07529907 0.47567681 55.15625 2.16796875 C55.15625 3.48796875 55.15625 4.80796875 55.15625 6.16796875 C50.13694175 8.77057303 45.10931831 11.04487553 39.84765625 13.109375 C31.52538034 16.382723 23.35807515 19.94151082 15.26171875 23.73828125 C13.2140425 24.68098503 11.15269137 25.59460852 9.078125 26.4765625 C-19.64220832 38.70032702 -48.25981862 52.60589915 -75.07421875 68.58203125 C-78.913424 70.78050421 -82.86808085 72.70783291 -86.859375 74.61328125 C-89.93883879 76.21750453 -92.83021407 78.00180795 -95.75976562 79.86083984 C-99.11341092 81.96433292 -102.5452091 83.93111379 -105.96875 85.91796875 C-112.66466156 89.82576116 -119.21381349 93.90716295 -125.6953125 98.16015625 C-128.42880578 99.90335172 -131.20392625 101.52060659 -134.02636719 103.11376953 C-137.30887936 105.01783825 -140.47760671 107.09665356 -143.65625 109.16796875 C-144.38835693 109.64363281 -145.12046387 110.11929688 -145.87475586 110.609375 C-166.127908 123.80007713 -186.09356354 137.3934222 -205.61328125 151.6484375 C-206.836521 152.53909912 -206.836521 152.53909912 -208.08447266 153.44775391 C-209.6895123 154.61718111 -211.29214183 155.7899249 -212.89208984 156.96630859 C-213.62250488 157.49820801 -214.35291992 158.03010742 -215.10546875 158.578125 C-215.75475342 159.05386963 -216.40403809 159.52961426 -217.07299805 160.01977539 C-218.84375 161.16796875 -218.84375 161.16796875 -221.84375 162.16796875 C-221.84375 162.82796875 -221.84375 163.48796875 -221.84375 164.16796875 C-223.257573 165.15890719 -224.67880788 166.14106643 -226.13671875 167.06591797 C-228.82369142 168.800614 -231.31593976 170.77335037 -233.84375 172.73046875 C-234.39264893 173.15376465 -234.94154785 173.57706055 -235.50708008 174.01318359 C-238.60181378 176.40569948 -241.67407491 178.82432565 -244.73046875 181.265625 C-245.36533203 181.77085693 -246.00019531 182.27608887 -246.65429688 182.79663086 C-247.88953955 183.78138663 -249.12141766 184.77038015 -250.34960938 185.76391602 C-254.62145844 189.16796875 -254.62145844 189.16796875 -256.84375 189.16796875 C-257.17375 190.15796875 -257.50375 191.14796875 -257.84375 192.16796875 C-260.05982044 194.04176653 -262.27490118 195.80617915 -264.59375 197.54296875 C-268.98949398 200.86257624 -272.97292795 204.22902023 -276.84375 208.16796875 C-278.91118885 210.0039421 -281.03177286 211.77356178 -283.15625 213.54296875 C-284.31807735 214.51909219 -285.47953717 215.49565326 -286.640625 216.47265625 C-287.19556641 216.93897461 -287.75050781 217.40529297 -288.32226562 217.88574219 C-292.61592823 221.50421395 -296.82245164 225.20622755 -300.92578125 229.0390625 C-301.46904053 229.544375 -302.0122998 230.0496875 -302.57202148 230.5703125 C-303.65520259 231.58010387 -304.73427729 232.59432128 -305.80883789 233.61328125 C-309.62178788 237.16796875 -309.62178788 237.16796875 -311.84375 237.16796875 C-311.84375 237.82796875 -311.84375 238.48796875 -311.84375 239.16796875 C-313.26953125 240.67578125 -313.26953125 240.67578125 -315.15625 242.29296875 C-315.77113281 242.83179688 -316.38601563 243.370625 -317.01953125 243.92578125 C-318.84375 245.16796875 -318.84375 245.16796875 -321.84375 245.16796875 C-319.53883346 237.03517382 -316.77094086 229.09615967 -313.84375 221.16796875 C-313.52535156 220.30171875 -313.20695313 219.43546875 -312.87890625 218.54296875 C-310.30969807 211.83876887 -307.07954216 205.48213736 -303.81884766 199.09472656 C-302.80553179 197.09245095 -301.81258814 195.08110448 -300.82421875 193.06640625 C-297.55412576 186.41359329 -294.24212283 179.87647732 -290.32421875 173.57421875 C-288.67495421 170.89361993 -287.14083015 168.1587168 -285.59375 165.41796875 C-281.81316308 158.91067534 -277.46970898 152.89023511 -273.03515625 146.82226562 C-270.6841167 143.5577894 -268.45507037 140.20701027 -266.21875 136.86328125 C-265.765 136.30382812 -265.31125 135.744375 -264.84375 135.16796875 C-264.18375 135.16796875 -263.52375 135.16796875 -262.84375 135.16796875 C-262.59625 134.44609375 -262.34875 133.72421875 -262.09375 132.98046875 C-260.72105408 129.89190293 -259.12021704 127.65785457 -256.84375 125.16796875 C-256.18375 125.16796875 -255.52375 125.16796875 -254.84375 125.16796875 C-254.62074219 124.6265625 -254.39773437 124.08515625 -254.16796875 123.52734375 C-252.42300893 120.4183298 -250.09096653 117.98901307 -247.65625 115.41796875 C-246.65540936 114.34713925 -245.65540879 113.27552396 -244.65625 112.203125 C-244.1715625 111.68379395 -243.686875 111.16446289 -243.1875 110.62939453 C-241.45791913 108.74834964 -239.80585473 106.80673731 -238.15625 104.85546875 C-235.36566165 101.64365951 -232.36586069 98.87934268 -229.12109375 96.1328125 C-226.93406661 94.245892 -224.82203831 92.29259914 -222.71533203 90.31689453 C-213.1721714 81.39645237 -202.87513132 73.50468608 -192.24609375 65.921875 C-190.54167362 64.67750973 -188.87259664 63.38407815 -187.23046875 62.05859375 C-184.90622622 60.21745891 -182.51314205 58.79411132 -179.921875 57.36328125 C-176.49203465 55.39047834 -173.19799507 53.20524915 -169.8828125 51.046875 C-162.26327878 46.33608359 -154.27997548 42.25086905 -146.34375 38.10546875 C-145.36277344 37.58919922 -144.38179687 37.07292969 -143.37109375 36.54101562 C-121.12734827 24.91562268 -97.14979468 16.33269141 -72.84375 10.16796875 C-72.0384082 9.95930176 -71.23306641 9.75063477 -70.40332031 9.53564453 C-54.0800327 5.35837546 -37.5655999 3.06388056 -20.84375 1.16796875 C-20.09617432 1.08020676 -19.34859863 0.99244476 -18.57836914 0.90202332 C-12.3714234 0.21778195 -6.24177144 0.00737475 0 0 Z " fill="#2E6AFE" transform="translate(446.84375,9.83203125)"/>
<path d="M0 0 C3.61466185 1.98192948 6.69666709 4.26946947 9.8671875 6.890625 C11.09568338 7.88494392 12.32484667 8.87843884 13.5546875 9.87109375 C14.43640625 10.58724854 14.43640625 10.58724854 15.3359375 11.31787109 C17.46320877 13.01680325 19.65775501 14.61312269 21.8671875 16.203125 C22.8984375 17.0075 23.9296875 17.811875 24.9921875 18.640625 C24.9921875 19.300625 24.9921875 19.960625 24.9921875 20.640625 C25.54874023 20.89013916 26.10529297 21.13965332 26.67871094 21.39672852 C35.66938284 26.23078015 43.13933357 34.49091975 50.26416016 41.70678711 C51.74975218 43.21078339 53.24333955 44.70647405 54.73828125 46.20117188 C69.42475755 60.93833516 69.42475755 60.93833516 70.9921875 65.640625 C71.6521875 65.640625 72.3121875 65.640625 72.9921875 65.640625 C74.5 67.3203125 74.5 67.3203125 76.1171875 69.515625 C76.65601563 70.23492187 77.19484375 70.95421875 77.75 71.6953125 C78.9921875 73.640625 78.9921875 73.640625 78.9921875 75.640625 C79.9821875 75.970625 80.9721875 76.300625 81.9921875 76.640625 C82.92259888 77.95009287 83.83944935 79.27099722 84.69140625 80.6328125 C86.36113647 83.21011381 88.17463821 85.66552078 89.9921875 88.140625 C91.32552083 89.97395833 92.65885417 91.80729167 93.9921875 93.640625 C94.45625 94.26839844 94.9203125 94.89617187 95.3984375 95.54296875 C97.60982832 98.64681373 97.9921875 99.63421831 97.9921875 103.640625 C94.72168543 104.57928323 91.45077942 105.51652443 88.1796875 106.453125 C87.2100708 106.7308374 86.2404541 107.0085498 85.24145508 107.29467773 C80.56273567 108.63173552 75.883003 109.9547141 71.1796875 111.203125 C64.70109815 112.95131578 58.30947593 114.98532941 51.91845703 117.02636719 C50.14129403 117.59307721 48.36176402 118.15235012 46.58203125 118.7109375 C41.47537198 120.35074971 36.70924643 122.13772553 31.96875 124.64453125 C28.9609722 126.1603086 25.83654105 127.34495553 22.703125 128.57421875 C12.94672976 132.3973418 12.94672976 132.3973418 3.5546875 137.015625 C-0.35327242 138.79820321 -1.06827331 138.76938814 -5.0078125 137.640625 C-6.70817745 136.93909121 -8.38629996 136.18208665 -10.04296875 135.3828125 C-11.0079126 134.92519531 -11.97285645 134.46757812 -12.96704102 133.99609375 C-13.99112061 133.50753906 -15.0152002 133.01898438 -16.0703125 132.515625 C-25.48453828 128.10057888 -34.92381447 124.33529242 -44.79296875 121.078125 C-47.49448372 120.18460773 -50.10838678 119.20770559 -52.71484375 118.06640625 C-68.14497175 111.3855086 -85.66406061 107.4981565 -102.0078125 103.640625 C-101.46164878 99.40027056 -100.08059166 96.96255472 -97.5078125 93.578125 C-96.78207031 92.61519531 -96.05632812 91.65226562 -95.30859375 90.66015625 C-94.54933594 89.66371094 -93.79007812 88.66726563 -93.0078125 87.640625 C-92.30011719 86.67511719 -91.59242188 85.70960938 -90.86328125 84.71484375 C-86.323763 78.53946307 -81.55919218 72.62411882 -76.54956055 66.82861328 C-74.00959561 63.92136195 -74.00959561 63.92136195 -72.0078125 60.640625 C-71.3478125 60.640625 -70.6878125 60.640625 -70.0078125 60.640625 C-69.770625 60.08890625 -69.5334375 59.5371875 -69.2890625 58.96875 C-67.69536107 56.07287789 -65.71863977 53.84550463 -63.5078125 51.390625 C-62.71375 50.49859375 -61.9196875 49.6065625 -61.1015625 48.6875 C-59.0078125 46.640625 -59.0078125 46.640625 -57.0078125 46.640625 C-56.7809375 46.08375 -56.5540625 45.526875 -56.3203125 44.953125 C-54.64366438 41.99903069 -52.48002257 39.91996762 -50.0078125 37.640625 C-49.32847656 37.01414062 -48.64914062 36.38765625 -47.94921875 35.7421875 C-45.32177893 33.35203699 -42.66963583 30.99243678 -40.0078125 28.640625 C-39.49041504 28.18236328 -38.97301758 27.72410156 -38.43994141 27.25195312 C-29.90272128 19.71896153 -21.08280761 12.64086067 -11.83642578 5.99267578 C-10.5912308 5.07199624 -9.37616111 4.10946746 -8.19091797 3.11279297 C-5.29742538 0.76515256 -3.78802284 -0.45259494 0 0 Z " fill="#2E6AFE" transform="translate(462.0078125,308.359375)"/>
<path d="M0 0 C1.49466797 0.69609375 1.49466797 0.69609375 3.01953125 1.40625 C3.73496094 1.7671875 4.45039062 2.128125 5.1875 2.5 C5.07958984 4.34765625 5.07958984 4.34765625 4.1875 6.5 C1.49462891 7.80859375 1.49462891 7.80859375 -2.0859375 8.9375 C-2.72431549 9.14431396 -3.36269348 9.35112793 -4.02041626 9.56420898 C-6.07147901 10.22516 -8.12885979 10.86308861 -10.1875 11.5 C-11.53565521 11.92811943 -12.88331851 12.35779118 -14.23046875 12.7890625 C-16.21767444 13.42521668 -18.20504697 14.0606347 -20.19424438 14.6905365 C-25.79529868 16.46974197 -31.31177288 18.4342787 -36.8125 20.5 C-37.51777832 20.76151855 -38.22305664 21.02303711 -38.94970703 21.29248047 C-40.86403164 22.00297579 -42.77620298 22.7189039 -44.6875 23.4375 C-45.37038086 23.69418457 -46.05326172 23.95086914 -46.75683594 24.21533203 C-53.12141424 26.6113213 -59.47682425 29.02839023 -65.8125 31.5 C-66.49666992 31.76474121 -67.18083984 32.02948242 -67.88574219 32.30224609 C-96.54844908 43.42237286 -125.48798956 55.86006783 -152.4609375 70.6796875 C-156.16183489 72.689732 -159.91259869 74.57167615 -163.6875 76.4375 C-183.78347132 86.41876597 -203.59115755 97.12794323 -222.52197266 109.18554688 C-226.03370596 111.4162072 -229.56506816 113.49864199 -233.25 115.4375 C-240.30534064 119.19191146 -246.90740628 123.6572683 -253.58203125 128.04003906 C-256.48012776 129.93699803 -259.39182894 131.81242362 -262.30395508 133.68774414 C-281.91885762 146.07675847 -281.91885762 146.07675847 -300.625 159.75 C-302.8125 161.5 -302.8125 161.5 -304.9765625 162.7578125 C-308.61913987 164.99553909 -311.97255303 167.54143464 -315.375 170.125 C-316.79816046 171.19924077 -318.22133771 172.2734593 -319.64453125 173.34765625 C-320.34658691 173.87891113 -321.04864258 174.41016602 -321.77197266 174.95751953 C-324.69579602 177.16770331 -327.62904531 179.36511512 -330.5625 181.5625 C-331.48546875 182.25472656 -332.4084375 182.94695312 -333.359375 183.66015625 C-334.16890625 184.26730469 -334.9784375 184.87445313 -335.8125 185.5 C-336.53953125 186.07621094 -337.2665625 186.65242187 -338.015625 187.24609375 C-339.8125 188.5 -339.8125 188.5 -341.8125 188.5 C-341.8125 189.16 -341.8125 189.82 -341.8125 190.5 C-343.1850704 191.4451189 -344.56470001 192.38111851 -345.97216797 193.2734375 C-349.46232547 195.59959182 -352.64016968 198.33602209 -355.875 201 C-357.26160853 202.13555127 -358.64832476 203.27097104 -360.03515625 204.40625 C-360.68653564 204.94088867 -361.33791504 205.47552734 -362.0090332 206.02636719 C-363.53418782 207.27258802 -365.07056941 208.50504986 -366.609375 209.734375 C-368.4430523 211.2039178 -370.22646743 212.7094516 -372 214.25 C-374.8125 216.5 -374.8125 216.5 -376.8125 216.5 C-377.05226563 217.08523437 -377.29203125 217.67046875 -377.5390625 218.2734375 C-379.07201548 220.95375405 -380.73231104 222.25778509 -383.1875 224.125 C-387.21883131 227.25527903 -391.19996669 230.42581812 -395.125 233.6875 C-396.09050781 234.48542969 -397.05601562 235.28335938 -398.05078125 236.10546875 C-400.76965434 238.46285093 -403.28506054 240.94015747 -405.8125 243.5 C-407.36118776 244.95237003 -408.92306557 246.39084944 -410.5 247.8125 C-411.26699219 248.50988281 -412.03398437 249.20726562 -412.82421875 249.92578125 C-414.8125 251.5 -414.8125 251.5 -416.8125 251.5 C-417.080625 252.139375 -417.34875 252.77875 -417.625 253.4375 C-418.8125 255.5 -418.8125 255.5 -421.8125 256.5 C-422.48601075 257.82988928 -423.15158401 259.16380679 -423.8125 260.5 C-425.70751953 262.37597656 -425.70751953 262.37597656 -428.0703125 264.390625 C-434.26059532 269.82632103 -440.06943585 275.60593869 -445.8828125 281.43994141 C-447.70198477 283.26452788 -449.52651468 285.08363628 -451.3515625 286.90234375 C-452.52375867 288.07519993 -453.69564503 289.24836585 -454.8671875 290.421875 C-455.40576385 290.95842712 -455.94434021 291.49497925 -456.49923706 292.04779053 C-458.85441015 294.4175781 -460.9979752 296.73775978 -463.05908203 299.37988281 C-463.92702393 300.42934082 -463.92702393 300.42934082 -464.8125 301.5 C-465.4725 301.5 -466.1325 301.5 -466.8125 301.5 C-467.1528125 302.304375 -467.1528125 302.304375 -467.5 303.125 C-470.07272688 307.78041055 -472.93647165 311.32134903 -477.8125 313.5 C-479.58809879 293.15548854 -479.58809879 293.15548854 -473.39453125 285.65625 C-470.07611675 282.22265601 -466.47475335 279.17405529 -462.76025391 276.1796875 C-460.32262674 274.07754725 -458.38710012 271.72491881 -456.35229492 269.2421875 C-454.09970425 266.69351348 -451.53086009 264.5771394 -448.9453125 262.375 C-445.04449785 258.9457124 -441.45228151 255.20189382 -437.8125 251.5 C-432.91256537 246.51644874 -427.98174138 241.67173156 -422.67871094 237.11669922 C-420.90811729 235.5828333 -419.18592141 234.01171311 -417.4765625 232.41015625 C-416.71666016 231.69956055 -416.71666016 231.69956055 -415.94140625 230.97460938 C-414.91269753 230.00869197 -413.88678066 229.03979492 -412.86328125 228.06835938 C-409.03261529 224.5 -409.03261529 224.5 -406.8125 224.5 C-406.8125 223.84 -406.8125 223.18 -406.8125 222.5 C-405.23963316 221.08561594 -403.60110004 219.74395599 -401.9375 218.4375 C-398.07628353 215.3534771 -394.33029145 212.21422549 -390.6875 208.875 C-386.96577915 205.48735488 -383.14157805 202.3465525 -379.140625 199.296875 C-376.59256338 197.33025026 -374.10835525 195.29767889 -371.625 193.25 C-363.2181069 186.34265103 -354.6820173 179.58399769 -345.9453125 173.09765625 C-342.98638756 170.88117218 -340.05564625 168.62868291 -337.125 166.375 C-336.5777124 165.95468506 -336.0304248 165.53437012 -335.46655273 165.10131836 C-332.97627795 163.18440972 -330.50415282 161.2511354 -328.05859375 159.27734375 C-325.8125 157.5 -325.8125 157.5 -323.5625 156.1875 C-320.18741657 154.11642608 -317.17897895 151.69562395 -314.09375 149.21875 C-311.75103629 147.45369173 -309.33596111 145.99220146 -306.8125 144.5 C-305.17697014 143.39036399 -303.55203155 142.26497275 -301.9375 141.125 C-301.06996094 140.51398438 -300.20242188 139.90296875 -299.30859375 139.2734375 C-297.19901174 137.77461084 -295.09799154 136.26496107 -293 134.75 C-289.8125 132.5 -289.8125 132.5 -287.41796875 131.07421875 C-283.98233607 128.9984167 -280.76582314 126.65777402 -277.5078125 124.31640625 C-274.93804409 122.5846058 -272.30247792 121.04662701 -269.60205078 119.52905273 C-266.72789143 117.87631308 -263.96543333 116.05858423 -261.1875 114.25 C-252.02529558 108.31622951 -242.72604796 102.61380523 -233.35302734 97.01879883 C-231.74022774 96.05462178 -230.12895667 95.08787964 -228.51977539 94.11767578 C-222.53191247 90.50823042 -216.50497617 86.97387025 -210.4375 83.5 C-209.52282959 82.97599609 -208.60815918 82.45199219 -207.66577148 81.91210938 C-201.95773463 78.6633782 -196.22940361 75.57854288 -190.28515625 72.78125 C-187.68972139 71.49651898 -187.68972139 71.49651898 -184.96875 69.58203125 C-181.50725725 67.29864556 -177.97475511 65.49161449 -174.25 63.6875 C-168.00312096 60.61937779 -161.86812833 57.41250923 -155.77734375 54.04296875 C-153.18845911 52.69565724 -150.58084496 51.53518585 -147.89086914 50.40893555 C-143.21210934 48.36276819 -138.65302654 46.04769247 -134.0625 43.8125 C-124.80351204 39.33216956 -115.4875883 35.11411445 -105.96875 31.21875 C-100.11016571 28.8191646 -94.34891551 26.2065323 -88.59375 23.5703125 C-79.10663665 19.24360884 -69.56053617 15.52487723 -59.69677734 12.15722656 C-57.04289803 11.23156666 -54.42866579 10.2144062 -51.8125 9.1875 C-50.18908352 8.56437044 -48.5655935 7.94143026 -46.94140625 7.3203125 C-45.30107403 6.68825788 -43.66358764 6.04881422 -42.02734375 5.40625 C-38.79704403 4.14485637 -35.55582706 2.91496941 -32.3125 1.6875 C-30.76369141 1.07297974 -30.76369141 1.07297974 -29.18359375 0.44604492 C-19.53528814 -3.15453563 -9.53876019 -4.59699286 0 0 Z " fill="#2D68FE" transform="translate(586.8125,32.5)"/>
<path d="M0 0 C5.04906959 2.13444849 9.96232781 4.50843436 14.875 6.9375 C15.55620911 7.27092407 16.23741821 7.60434814 16.93927002 7.94787598 C25.54023367 12.15959305 34.05950291 16.49346987 42.375 21.25 C43.15214355 21.69077881 43.92928711 22.13155762 44.72998047 22.58569336 C49.87336189 25.62008567 49.87336189 25.62008567 51 29 C49.57743494 30.11772969 48.15484929 31.2354332 46.73217773 32.35302734 C45.48135134 33.33599569 44.23086972 34.31940289 42.98071289 35.30322266 C39.70461614 37.88036963 36.42348615 40.45041777 33.12890625 43.00390625 C32.50967285 43.48561279 31.89043945 43.96731934 31.25244141 44.46362305 C30.07326329 45.38060296 28.89205577 46.29498127 27.70849609 47.20629883 C24.21851806 49.92629207 21.09376078 52.84167378 18 56 C17.21625 56.598125 16.4325 57.19625 15.625 57.8125 C12.62508005 60.31243329 10.22860274 63.0858864 7.6953125 66.046875 C5.5768906 68.48745323 3.31483967 70.74607716 1 73 C0.175 73.825 -0.65 74.65 -1.5 75.5 C-3.15628276 77.15628276 -4.822886 78.80231385 -6.5 80.4375 C-9.07253019 83.0074975 -9.07253019 83.0074975 -11.5 86 C-14 89 -14 89 -16.26953125 91.22265625 C-19.46248519 94.47042485 -22.3259319 97.89841735 -25.1875 101.4375 C-25.75194824 102.13399658 -26.31639648 102.83049316 -26.89794922 103.5480957 C-32.8618878 110.97315718 -38.92699633 118.60403857 -43.6484375 126.89453125 C-44.09445312 127.58933594 -44.54046875 128.28414062 -45 129 C-45.66 129 -46.32 129 -47 129 C-47.268125 129.928125 -47.53625 130.85625 -47.8125 131.8125 C-49.52574711 136.41121594 -49.52574711 136.41121594 -52 138 C-54.71826923 137.77144597 -57.1060346 137.39584411 -59.75 136.8125 C-61.27417853 136.50759848 -62.7989352 136.20557462 -64.32421875 135.90625 C-65.4851001 135.67421875 -65.4851001 135.67421875 -66.66943359 135.4375 C-70.2831338 134.75912678 -73.91578052 134.27476646 -77.5625 133.8125 C-78.80128906 133.65394531 -80.04007812 133.49539063 -81.31640625 133.33203125 C-82.20199219 133.22246094 -83.08757812 133.11289062 -84 133 C-83.57530259 125.65412398 -82.08000381 119.15051113 -79.75 112.1875 C-79.43571045 111.22626221 -79.1214209 110.26502441 -78.79760742 109.2746582 C-76.42442157 102.08976694 -73.90092754 94.99092786 -71 88 C-70.68675781 87.24460937 -70.37351562 86.48921875 -70.05078125 85.7109375 C-60.10446445 62.62876772 -47.14873241 41.03382277 -31.27490234 21.56591797 C-30.38558323 20.4735984 -29.50644418 19.37294572 -28.63525391 18.26611328 C-27.46829442 16.80709369 -26.23874657 15.39858484 -25 14 C-24.34 14 -23.68 14 -23 14 C-22.7525 13.443125 -22.505 12.88625 -22.25 12.3125 C-19.92423209 8.00982936 -16.7315055 4.52908609 -13.3125 1.0625 C-12.40951172 0.12083984 -12.40951172 0.12083984 -11.48828125 -0.83984375 C-7.40706462 -2.74270299 -4.04069139 -1.42907266 0 0 Z " fill="#2E6AFE" transform="translate(393,270)"/>
<path d="M0 0 C2.3125 1.75 2.3125 1.75 3.3125 4.75 C4.63183665 5.44395462 5.9670075 6.10822733 7.3125 6.75 C8.77734375 8.16796875 8.77734375 8.16796875 10.25 9.9375 C12.55477036 12.67657399 14.8751614 15.38994975 17.26953125 18.05078125 C27.68823782 29.70427421 36.55057505 42.17700824 44.3125 55.75 C44.95960938 56.86117187 45.60671875 57.97234375 46.2734375 59.1171875 C52.04004706 69.05553026 57.22313304 79.00080684 61.3125 89.75 C61.7765625 90.94625 62.240625 92.1425 62.71875 93.375 C73.02934622 120.15861841 73.02934622 120.15861841 73.3125 133.75 C69.70217986 134.95344005 66.1368879 135.28416187 62.375 135.6875 C55.30744662 136.47739858 48.31529791 137.50332981 41.3125 138.75 C40.9501123 138.21632813 40.58772461 137.68265625 40.21435547 137.1328125 C38.54070624 134.67052996 36.86412137 132.21025961 35.1875 129.75 C34.33285156 128.49123047 34.33285156 128.49123047 33.4609375 127.20703125 C23.97776675 113.30556503 13.31861471 100.45813173 2.3125 87.75 C1.5803125 86.90308594 0.848125 86.05617188 0.09375 85.18359375 C-3.02184098 81.56456347 -3.02184098 81.56456347 -6.37109375 78.16796875 C-7.6875 76.75 -7.6875 76.75 -7.6875 74.75 C-8.326875 74.481875 -8.96625 74.21375 -9.625 73.9375 C-11.6875 72.75 -11.6875 72.75 -12.6875 69.75 C-13.6775 69.255 -13.6775 69.255 -14.6875 68.75 C-16.6875 67.75 -16.6875 67.75 -17.6875 64.75 C-19.01088632 64.06379969 -20.34699948 63.40213539 -21.6875 62.75 C-24.63595112 60.4288789 -27.31795827 58.12463885 -29.953125 55.453125 C-33.02005484 52.42124579 -36.21972343 49.60898358 -39.5 46.8125 C-40.1194751 46.28325928 -40.7389502 45.75401855 -41.37719727 45.20874023 C-45.69147653 41.54507619 -50.07183381 38.02928177 -54.6875 34.75 C-55.35910156 34.26660156 -56.03070313 33.78320312 -56.72265625 33.28515625 C-58.37318167 32.10058433 -60.02965538 30.92430661 -61.6875 29.75 C-60.36314964 25.77694891 -57.98870823 24.89807648 -54.5 23 C-53.87287109 22.65074463 -53.24574219 22.30148926 -52.59960938 21.94165039 C-47.20755949 18.96753896 -41.7225048 16.18679207 -36.1953125 13.47265625 C-33.8257176 12.30896878 -31.4675578 11.13445198 -29.1171875 9.93359375 C-5.01174427 -2.33104385 -5.01174427 -2.33104385 0 0 Z " fill="#2E6AFE" transform="translate(537.6875,269.25)"/>
<path d="M0 0 C1.23105469 0.24878906 2.46210937 0.49757813 3.73046875 0.75390625 C7.16294367 1.46656654 10.58296201 2.21713395 14 3 C14 4.32 14 5.64 14 7 C12.58074219 7.52787109 12.58074219 7.52787109 11.1328125 8.06640625 C-2.33509936 13.08842715 -15.79766313 18.14561321 -29.03125 23.76171875 C-31.54251093 24.8091789 -34.06189 25.82589305 -36.58984375 26.83203125 C-42.4377839 29.1647834 -48.25140153 31.57717941 -54.0625 34 C-55.08666016 34.42539062 -56.11082031 34.85078125 -57.16601562 35.2890625 C-65.65601042 38.82610826 -74.05583498 42.44468105 -82.25 46.625 C-88.55601642 49.81475479 -94.91864029 52.86571028 -101.3125 55.875 C-109.93661012 59.94436138 -118.39263414 64.27673158 -126.80078125 68.7734375 C-129.47396589 70.20222966 -132.16106189 71.58791476 -134.87890625 72.9296875 C-139.86550563 75.40488645 -144.74200994 78.07760718 -149.625 80.75 C-150.59848389 81.28222168 -151.57196777 81.81444336 -152.57495117 82.36279297 C-160.10203066 86.4879895 -167.58095583 90.68284715 -175 95 C-175.65242676 95.37833984 -176.30485352 95.75667969 -176.97705078 96.14648438 C-186.76539327 101.82870983 -196.4191416 107.69583006 -205.98974609 113.73681641 C-208.05659371 115.0355618 -210.13063822 116.32204595 -212.20703125 117.60546875 C-218.99740485 121.80955999 -225.67657177 126.03551144 -232.08203125 130.8203125 C-234 132 -234 132 -237 132 C-237 132.66 -237 133.32 -237 134 C-238.84375 135.33984375 -238.84375 135.33984375 -241.5 136.9375 C-254.6976813 145.10345942 -267.42381882 154.15342085 -279.88623047 163.39941406 C-284.78611428 167 -284.78611428 167 -287 167 C-287 167.66 -287 168.32 -287 169 C-289.11422213 170.64506331 -291.23014409 172.17675997 -293.4375 173.6875 C-294.73405155 174.59365343 -296.02962548 175.50120728 -297.32421875 176.41015625 C-297.95763184 176.85375488 -298.59104492 177.29735352 -299.24365234 177.75439453 C-303.87962242 181.0422343 -308.3008848 184.61070899 -312.69921875 188.20703125 C-313.60285156 188.94308594 -314.50648438 189.67914063 -315.4375 190.4375 C-316.26121094 191.11683594 -317.08492188 191.79617187 -317.93359375 192.49609375 C-320 194 -320 194 -322 194 C-322 194.66 -322 195.32 -322 196 C-322.804375 196.268125 -323.60875 196.53625 -324.4375 196.8125 C-325.7059375 197.4003125 -325.7059375 197.4003125 -327 198 C-327.33 198.99 -327.66 199.98 -328 201 C-328.99 201.33 -329.98 201.66 -331 202 C-331.680625 202.680625 -332.36125 203.36125 -333.0625 204.0625 C-333.701875 204.701875 -334.34125 205.34125 -335 206 C-335.66 206 -336.32 206 -337 206 C-337.33 206.99 -337.66 207.98 -338 209 C-340.0390625 210.83203125 -340.0390625 210.83203125 -342.625 212.8125 C-345.83207332 215.29821155 -348.96626112 217.80547665 -352 220.5 C-355 223 -355 223 -357 223 C-357.33 223.99 -357.66 224.98 -358 226 C-359.9609375 227.71875 -359.9609375 227.71875 -362.375 229.5 C-365.66845955 231.93870086 -365.66845955 231.93870086 -368.6640625 234.71875 C-370 236 -370 236 -372 236 C-372.22945312 236.56460938 -372.45890625 237.12921875 -372.6953125 237.7109375 C-374.34679367 240.60844637 -376.38324604 242.41421533 -378.875 244.625 C-379.73867188 245.40101563 -380.60234375 246.17703125 -381.4921875 246.9765625 C-384 249 -384 249 -386.2578125 250.0859375 C-388.3630183 250.93379006 -388.3630183 250.93379006 -389 254 C-390.41259766 255.38696289 -390.41259766 255.38696289 -392.2890625 256.91015625 C-396.03472572 260.08669929 -399.51511439 263.44072156 -402.9609375 266.93359375 C-403.48181946 267.46014557 -404.00270142 267.98669739 -404.53936768 268.52920532 C-406.70866729 270.72556834 -408.87367851 272.92607538 -411.03466797 275.13061523 C-412.63078899 276.75674919 -414.23292323 278.37675895 -415.8359375 279.99609375 C-416.3254892 280.49910507 -416.81504089 281.00211639 -417.31942749 281.52037048 C-418.50883537 282.71861993 -419.75024396 283.86483363 -421 285 C-421.66 285 -422.32 285 -423 285 C-422.64037013 271.51388001 -420.96719585 261.68529536 -411 252 C-408.96335882 250.13847189 -406.90018791 248.32411918 -404.79296875 246.54296875 C-402.84520362 244.91239016 -402.84520362 244.91239016 -400.625 242.5625 C-399 241 -399 241 -397 241 C-396.73960937 240.40316406 -396.47921875 239.80632812 -396.2109375 239.19140625 C-394.91099639 236.83893217 -393.6882846 235.63949215 -391.625 233.9375 C-388.58596111 231.37107837 -385.62250649 228.74864918 -382.70922852 226.03979492 C-377.62801641 221.31564537 -372.42887456 216.82531379 -367.015625 212.48046875 C-364.65453686 210.538382 -362.34347767 208.5671633 -360.046875 206.55078125 C-359.36665283 205.95378418 -358.68643066 205.35678711 -357.9855957 204.74169922 C-356.63672277 203.55345616 -355.29140404 202.36116431 -353.94995117 201.16455078 C-349.2184104 197 -349.2184104 197 -347 197 C-347 196.34 -347 195.68 -347 195 C-344.8902357 193.19034442 -342.77298891 191.49122035 -340.5625 189.8125 C-339.92666992 189.32289795 -339.29083984 188.8332959 -338.63574219 188.32885742 C-337.35595709 187.3434229 -336.07455616 186.3600831 -334.79150391 185.37890625 C-331.71652526 183.01211974 -328.69796298 180.57336502 -325.671875 178.14453125 C-324 177 -324 177 -322 177 C-322 176.34 -322 175.68 -322 175 C-320.453125 173.58984375 -320.453125 173.58984375 -318.25 171.9375 C-317.42886719 171.31746094 -316.60773438 170.69742188 -315.76171875 170.05859375 C-314.85035156 169.37925781 -313.93898438 168.69992188 -313 168 C-312.03707031 167.26910156 -311.07414062 166.53820312 -310.08203125 165.78515625 C-304.53075026 161.58399276 -298.90998215 157.52057966 -293.18359375 153.5625 C-291.27177841 152.19447471 -289.47306899 150.77659334 -287.6875 149.25 C-285 147 -285 147 -282.6875 145.625 C-279.32238078 143.59027675 -276.34486409 141.17827117 -273.28125 138.71875 C-270.93555664 136.95144678 -268.52724572 135.49472792 -266 134 C-263.7002467 132.48992103 -261.40915646 130.97074189 -259.125 129.4375 C-257.79041489 128.54419567 -256.45577797 127.65096875 -255.12109375 126.7578125 C-254.09991455 126.07380371 -254.09991455 126.07380371 -253.05810547 125.37597656 C-251.05318444 124.03555724 -249.04490163 122.70036021 -247.03515625 121.3671875 C-245.75254057 120.5157208 -244.4699876 119.66415961 -243.1875 118.8125 C-242.55956543 118.39572998 -241.93163086 117.97895996 -241.28466797 117.54956055 C-237.72548227 115.17849131 -234.22309673 112.74645974 -230.75 110.25 C-226.48143469 107.22138521 -222.00921167 104.77544103 -217.38671875 102.33203125 C-214.88977981 101.02453413 -214.88977981 101.02453413 -212.5 99 C-210.08315675 97.0665254 -207.78790366 95.75744333 -205.05859375 94.3125 C-198.09554163 90.55571169 -191.404802 86.39588062 -184.69335938 82.2109375 C-178.80899724 78.5836457 -172.84636801 75.37011322 -166.6340332 72.34057617 C-163.58228984 70.7874088 -160.82486255 68.93045764 -158 67 C-155.49495033 65.65268197 -152.93739315 64.42146281 -150.375 63.1875 C-145.48482535 60.7940439 -140.72617027 58.31884358 -136.0625 55.5 C-130.71019356 52.30599846 -125.19972663 49.65426965 -119.54785156 47.04638672 C-114.75109899 44.83258252 -110.01978005 42.52253776 -105.3125 40.125 C-97.88159414 36.3557683 -90.31477965 32.90798601 -82.7121582 29.50048828 C-77.97792376 27.37501922 -73.30531367 25.17649928 -68.67626953 22.83105469 C-66.71624215 21.85931959 -64.73182856 21.02803572 -62.6875 20.25 C-57.69013948 18.29718527 -52.75218706 16.21812088 -47.8125 14.125 C-40.73722905 11.13446437 -33.64819743 8.19295626 -26.49609375 5.390625 C-24.15971394 4.46129404 -21.83882359 3.49206714 -19.53515625 2.484375 C-12.41949247 -0.53791393 -7.55032304 -1.6717792 0 0 Z " fill="#2D69FE" transform="translate(537,18)"/>
<path d="M0 0 C2.23069896 0.0054179 4.46120114 -0.00001738 6.69189453 -0.00634766 C22.49707439 -0.02114138 22.49707439 -0.02114138 27.83642578 1.13037109 C30.70066665 4.21632098 31.61597247 8.13877085 32.83642578 12.13037109 C33.15482422 13.14357422 33.47322266 14.15677734 33.80126953 15.20068359 C39.51729283 37.06381419 36.13483242 59.77937201 24.83642578 79.13037109 C20.45364774 86.05010335 20.45364774 86.05010335 17.83642578 88.13037109 C15.50827026 88.49786377 15.50827026 88.49786377 12.73828125 88.48681641 C11.70065643 88.4898175 10.66303162 88.4928186 9.59396362 88.49591064 C8.47514801 88.48356384 7.3563324 88.47121704 6.20361328 88.45849609 C4.48224655 88.45568634 4.48224655 88.45568634 2.72610474 88.45281982 C0.30012101 88.44609479 -2.1258518 88.43217146 -4.55175781 88.41162109 C-8.28053777 88.3804383 -12.00889551 88.37064858 -15.73779297 88.36474609 C-18.09066275 88.35557764 -20.4435282 88.34520237 -22.79638672 88.33349609 C-23.91925079 88.32924622 -25.04211487 88.32499634 -26.19900513 88.32061768 C-27.74598587 88.30620636 -27.74598587 88.30620636 -29.32421875 88.29150391 C-30.23672394 88.2846759 -31.14922913 88.2778479 -32.08938599 88.27081299 C-34.16357422 88.13037109 -34.16357422 88.13037109 -35.16357422 87.13037109 C-35.09819965 85.10673117 -34.9599745 83.08529874 -34.78857422 81.06787109 C-34.69833984 79.96314453 -34.60810547 78.85841797 -34.51513672 77.72021484 C-34.27980468 75.31721326 -33.99154215 72.91883836 -33.65209961 70.52832031 C-33.05098359 65.74009544 -33.00167808 60.99414424 -32.99560547 56.17333984 C-32.99227707 55.2308992 -32.98894867 54.28845856 -32.98551941 53.31745911 C-32.98047758 51.3264718 -32.97811023 49.33547611 -32.97827148 47.34448242 C-32.97610826 44.36475833 -32.95798761 41.38541935 -32.93896484 38.40576172 C-32.90430603 26.18262636 -33.60002452 14.25341791 -35.16357422 2.13037109 C-23.77195436 -0.41863424 -11.6233286 -0.03355613 0 0 Z " fill="#2E69FE" transform="translate(667.16357421875,415.86962890625)"/>
<path d="M0 0 C0.77577393 -0.00095673 1.55154785 -0.00191345 2.35083008 -0.00289917 C3.98795656 -0.00357645 5.62508579 -0.00175386 7.26220703 0.00244141 C9.71523397 0.00773744 12.16807287 0.00251139 14.62109375 -0.00390625 C40.40745609 -0.01627974 40.40745609 -0.01627974 47.75 2.1328125 C47.83368323 7.41008614 47.68006111 12.47629811 47.0378418 17.71166992 C44.49719542 38.53031676 45.43332695 58.97679679 48.47460938 79.68286133 C48.75743942 82.1989956 48.86651244 84.60333849 48.75 87.1328125 C47.09827067 88.78454183 45.14262397 88.31915784 42.86645508 88.37329102 C41.82479691 88.39903702 40.78313873 88.42478302 39.70991516 88.4513092 C34.92676373 88.53529634 30.14377493 88.60136437 25.36010742 88.64770508 C22.83706543 88.67933434 20.31417184 88.72707637 17.79174805 88.79125977 C14.15877217 88.88249508 10.52847975 88.92132049 6.89453125 88.94921875 C5.20672295 89.00644859 5.20672295 89.00644859 3.4848175 89.06483459 C-4.18151309 89.04581452 -4.18151309 89.04581452 -7.27207947 86.40498352 C-8.8196027 84.37632703 -10.06665453 82.38990226 -11.25 80.1328125 C-11.84167969 79.11316406 -12.43335938 78.09351563 -13.04296875 77.04296875 C-19.49108298 63.87581113 -22.64655121 51.7238862 -22.625 37.0078125 C-22.62411377 35.91484863 -22.62322754 34.82188477 -22.62231445 33.69580078 C-22.49139539 24.67767028 -21.2602319 16.65005727 -18.25 8.1328125 C-17.972771 7.17036621 -17.972771 7.17036621 -17.68994141 6.18847656 C-17.05078125 4.265625 -17.05078125 4.265625 -15.25 1.1328125 C-10.20543542 0.012947 -5.1465867 -0.01434683 0 0 Z " fill="#2E69FE" transform="translate(240.25,415.8671875)"/>
<path d="M0 0 C7.93914452 0.41784971 15.48564483 2.48546999 23.13720703 4.5078125 C24.69243168 4.91873424 26.25021812 5.31994455 27.80859375 5.71875 C36.97440359 8.12102153 45.98677496 11.08536608 55 14 C55.70350586 14.22502197 56.40701172 14.45004395 57.13183594 14.68188477 C63.84394112 16.86645616 70.42476571 19.37369196 77 21.9375 C78.14339844 22.36740234 79.28679687 22.79730469 80.46484375 23.24023438 C81.54894531 23.66498047 82.63304687 24.08972656 83.75 24.52734375 C84.73484375 24.90624756 85.7196875 25.28515137 86.734375 25.67553711 C89 27 89 27 89.828125 29.15454102 C89.88484375 29.76354248 89.9415625 30.37254395 90 31 C85.02241496 33.99488116 80.04038897 36.98119408 75.03515625 39.9296875 C66.72942578 44.84101631 58.58949105 49.69435264 50.99609375 55.671875 C49 57 49 57 46 57 C46 57.66 46 58.32 46 59 C43.98828125 60.65625 43.98828125 60.65625 41.3125 62.5 C40.44238281 63.1084375 39.57226562 63.716875 38.67578125 64.34375 C36.1659108 65.89730485 33.77041639 67.00165175 31 68 C31 68.66 31 69.32 31 70 C29.35546875 71.47265625 29.35546875 71.47265625 27.1875 73.0625 C26.47980469 73.58972656 25.77210938 74.11695313 25.04296875 74.66015625 C21.5969292 76.92017836 18.80845411 77.12306046 14.79418945 77.11352539 C13.20287956 77.11341209 13.20287956 77.11341209 11.579422 77.11329651 C10.43559555 77.10813522 9.2917691 77.10297394 8.11328125 77.09765625 C6.94113571 77.0962413 5.76899017 77.09482635 4.56132507 77.09336853 C0.81169093 77.08776388 -2.93788385 77.07521056 -6.6875 77.0625 C-9.22721268 77.0574856 -11.7669263 77.05292259 -14.30664062 77.04882812 C-20.53778073 77.03779294 -26.76888612 77.02105025 -33 77 C-34.2110328 73.36690159 -33.67662628 72.48891777 -32.3125 69 C-31.93738281 68.02160156 -31.56226563 67.04320312 -31.17578125 66.03515625 C-30.78777344 65.03355469 -30.39976562 64.03195312 -30 63 C-29.32932084 61.14728094 -28.66254168 59.29314463 -28 57.4375 C-27.33652447 55.62382944 -26.66996325 53.81128406 -26 52 C-25.55720703 50.80117188 -25.55720703 50.80117188 -25.10546875 49.578125 C-22.50465662 42.80494617 -19.26962086 36.37773361 -15.97509766 29.92236328 C-14.965342 27.93167323 -13.97090504 25.93396124 -12.98046875 23.93359375 C-2.2301794 2.2301794 -2.2301794 2.2301794 0 0 Z " fill="#2D69FE" transform="translate(349,427)"/>
<path d="M0 0 C6.28671395 10.92856705 12.12592717 21.99444717 17.359375 33.46484375 C18.51683715 35.9588991 19.71263519 38.37788102 20.98046875 40.8125 C23.29653537 45.41081801 24.92798338 50.18833471 26.5625 55.0625 C27.14472918 56.78336807 27.729324 58.50343777 28.31640625 60.22265625 C28.73237061 61.44686279 28.73237061 61.44686279 29.15673828 62.69580078 C29.9275991 64.80216569 30.81363984 66.78541751 31.77734375 68.80859375 C33.10967755 72.28628294 32.87555207 73.50557936 32 77 C24.65388853 77.20405062 17.30851617 77.3434407 9.96020508 77.43945312 C7.46448458 77.4795061 4.96894969 77.53396656 2.47387695 77.60351562 C-20.95213847 78.23981243 -20.95213847 78.23981243 -27.6640625 73.34765625 C-29.143765 71.93356866 -30.59280862 70.4862623 -32 69 C-33.4552027 67.91197718 -34.93535442 66.8563163 -36.44140625 65.83984375 C-37.12154785 65.3600708 -37.80168945 64.88029785 -38.50244141 64.38598633 C-39.93048206 63.38188995 -41.35854338 62.37782296 -42.78662109 61.3737793 C-43.51574707 60.86113525 -44.24487305 60.34849121 -44.99609375 59.8203125 C-45.6907373 59.33208008 -46.38538086 58.84384766 -47.10107422 58.34082031 C-48.6689373 57.23376142 -50.22822833 56.11457312 -51.78515625 54.9921875 C-58.36737283 50.26705707 -65.27251133 46.14992155 -72.24609375 42.03710938 C-74.67301044 40.60203948 -77.08625077 39.14458033 -79.5 37.6875 C-83.30380075 35.40394738 -87.13769357 33.18304276 -91 31 C-91 30.01 -91 29.02 -91 28 C-82.15198529 24.00081455 -73.21228541 20.56972562 -64.01855469 17.44897461 C-60.3833741 16.21010333 -56.79614286 14.95637135 -53.27734375 13.4140625 C-43.9373397 9.38416802 -33.82131011 7.05651249 -23.99414062 4.51757812 C-21.89499092 3.97274495 -19.79919276 3.41593665 -17.703125 2.859375 C-16.28141354 2.4889551 -14.85954234 2.11914762 -13.4375 1.75 C-12.78289795 1.5746875 -12.1282959 1.399375 -11.45385742 1.21875 C-7.54928748 0.22085399 -4.02503438 -0.17365326 0 0 Z " fill="#2D69FE" transform="translate(572,427)"/>
<path d="M0 0 C0.32076956 1.43567733 0.63094808 2.87371982 0.9375 4.3125 C1.11152344 5.11300781 1.28554688 5.91351563 1.46484375 6.73828125 C3.3417142 18.17760115 3.11797279 29.63346085 3.0625 41.1875 C3.05747456 43.01627482 3.0529135 44.84505097 3.04882812 46.67382812 C3.03790619 51.11591895 3.02069923 55.55794441 3 60 C2.01 60 1.02 60 0 60 C-0.75559211 58.54455619 -1.50406425 57.08541637 -2.25 55.625 C-2.66765625 54.81289063 -3.0853125 54.00078125 -3.515625 53.1640625 C-4.73615479 50.56240689 -5.8181669 47.97692944 -6.8671875 45.3046875 C-8.99089258 39.9303112 -11.38373514 34.71266193 -13.875 29.5 C-14.31191162 28.58162354 -14.74882324 27.66324707 -15.19897461 26.71704102 C-17.83660795 21.2355035 -20.59497126 15.93059612 -23.94140625 10.83984375 C-25.05581245 8.90299756 -25.56727197 7.1830886 -26 5 C-20.86493893 2.54673129 -16.39220668 1.38619452 -10.75 0.8125 C-10.04359375 0.73064453 -9.3371875 0.64878906 -8.609375 0.56445312 C-5.72320854 0.23921278 -2.90632754 0 0 0 Z " fill="#2D69FE" transform="translate(615,419)"/>
<path d="M0 0 C21.23404255 1.61702128 21.23404255 1.61702128 26 4 C24.08548968 10.75709525 21.24853416 16.22294436 17.62890625 22.23046875 C15.76747557 25.39534728 14.37359693 28.59586849 13 32 C12.04653249 34.04394356 11.08756962 36.08532716 10.125 38.125 C7.48665229 43.80304009 5.17139959 49.55421533 2.98046875 55.41796875 C2 58 2 58 1 60 C0.01 60 -0.98 60 -2 60 C-3.30212845 39.79781662 -2.95787741 20.044645 0 0 Z " fill="#2D69FE" transform="translate(305,419)"/>
</svg>
